G04 Layer: BottomPasteMaskLayer*
G04 EasyEDA v6.2.35, 2019-08-16T20:57:05+08:00*
G04 ac69921650c84e06b2cbf5d8b71e85d1,46bf6a40d4384fdb86bc8fc37bf60e4c,10*
G04 Gerber Generator version 0.2*
G04 Scale: 100 percent, Rotated: No, Reflected: No *
G04 Dimensions in millimeters *
G04 leading zeros omitted , absolute positions ,3 integer and 3 decimal *
%FSLAX33Y33*%
%MOMM*%
G90*
G71D02*

%ADD28C,0.999998*%

%LPD*%
G54D28*
G01X8256Y17534D02*
G01X8256Y18534D01*
G01X10256Y17534D02*
G01X10256Y18534D01*
G01X12255Y17534D02*
G01X12255Y18534D01*
G01X14255Y17534D02*
G01X14255Y18534D01*
G01X16256Y17534D02*
G01X16256Y18534D01*
G01X18255Y17534D02*
G01X18255Y18534D01*
G01X20255Y17534D02*
G01X20255Y18534D01*
G01X22255Y17534D02*
G01X22255Y18533D01*
G01X22261Y2534D02*
G01X22261Y1534D01*
G01X20257Y2533D02*
G01X20257Y1533D01*
G01X18259Y2531D02*
G01X18259Y1531D01*
G01X16258Y2532D02*
G01X16258Y1532D01*
G01X14258Y2533D02*
G01X14258Y1533D01*
G01X12258Y2532D02*
G01X12258Y1532D01*
G01X10258Y2532D02*
G01X10258Y1532D01*
G01X8258Y2532D02*
G01X8258Y1532D01*
G36*
G01X2410Y691D02*
G01X3010Y691D01*
G01X3010Y1340D01*
G01X2410Y1340D01*
G01X2410Y691D01*
G37*
G36*
G01X1561Y691D02*
G01X2161Y691D01*
G01X2161Y1340D01*
G01X1561Y1340D01*
G01X1561Y691D01*
G37*
G36*
G01X25292Y13725D02*
G01X27292Y13725D01*
G01X27292Y14175D01*
G01X25292Y14175D01*
G01X25292Y13725D01*
G37*
G36*
G01X25292Y14375D02*
G01X27292Y14375D01*
G01X27292Y14825D01*
G01X25292Y14825D01*
G01X25292Y14375D01*
G37*
G36*
G01X25292Y15025D02*
G01X27292Y15025D01*
G01X27292Y15475D01*
G01X25292Y15475D01*
G01X25292Y15025D01*
G37*
G36*
G01X25292Y15675D02*
G01X27292Y15675D01*
G01X27292Y16125D01*
G01X25292Y16125D01*
G01X25292Y15675D01*
G37*
G36*
G01X25292Y16325D02*
G01X27292Y16325D01*
G01X27292Y16775D01*
G01X25292Y16775D01*
G01X25292Y16325D01*
G37*
G36*
G01X30004Y14444D02*
G01X30004Y12844D01*
G01X31203Y12844D01*
G01X31203Y14444D01*
G01X30004Y14444D01*
G37*
G36*
G01X29987Y17723D02*
G01X29987Y16122D01*
G01X31187Y16122D01*
G01X31187Y17723D01*
G01X29987Y17723D01*
G37*
M00*
M02*
