G04 Layer: BottomSilkLayer*
G04 EasyEDA v6.1.51, Sun, 16 Jun 2019 04:45:57 GMT*
G04 01268da5a8234bf897f73133ac2f115b,46bf6a40d4384fdb86bc8fc37bf60e4c,10*
G04 Gerber Generator version 0.2*
G04 Scale: 100 percent, Rotated: No, Reflected: No *
G04 Dimensions in millimeters *
G04 leading zeros omitted , absolute positions ,3 integer and 3 decimal *
%FSLAX33Y33*%
%MOMM*%
G90*
G71D02*

%ADD10C,0.254000*%
%ADD11C,0.200000*%
%ADD27C,0.152400*%
%ADD28C,0.101600*%
%ADD29C,0.150012*%

%LPD*%
G54D28*
G01X5029Y20091D02*
G01X5029Y20040D01*
G01X5892Y20091D02*
G01X5892Y20040D01*
G54D10*
G01X14512Y1041D02*
G01X14512Y10641D01*
G01X12411Y1041D02*
G01X12411Y10641D01*
G01X7362Y19610D02*
G01X6463Y19610D01*
G01X6463Y17009D01*
G01X11062Y17009D02*
G01X11062Y19610D01*
G01X10163Y19610D01*
G54D11*
G01X7765Y13423D02*
G01X8865Y13423D01*
G01X8865Y15024D01*
G01X7765Y15024D01*
G01X6965Y13423D02*
G01X5865Y13423D01*
G01X5865Y14423D01*
G01X5865Y15024D01*
G01X6965Y15024D01*
G01X10522Y15024D02*
G01X9422Y15024D01*
G01X9422Y13423D01*
G01X10522Y13423D01*
G01X11322Y15024D02*
G01X12422Y15024D01*
G01X12422Y14024D01*
G01X12422Y13423D01*
G01X11322Y13423D01*
G01X2483Y18326D02*
G01X1383Y18326D01*
G01X1383Y16725D01*
G01X2483Y16725D01*
G01X3282Y18326D02*
G01X4383Y18326D01*
G01X4383Y17326D01*
G01X4383Y16725D01*
G01X3282Y16725D01*
G01X2483Y20485D02*
G01X1383Y20485D01*
G01X1383Y18884D01*
G01X2483Y18884D01*
G01X3282Y20485D02*
G01X4383Y20485D01*
G01X4383Y19485D01*
G01X4383Y18884D01*
G01X3282Y18884D01*
G54D10*
G01X1890Y13804D02*
G01X1890Y13145D01*
G01X1890Y13804D01*
G01X1890Y13145D01*
G01X2705Y13145D01*
G01X2705Y16064D02*
G01X1890Y16064D01*
G01X1890Y15405D01*
G54D11*
G01X3439Y14904D02*
G01X3439Y14305D01*
G54D10*
G01X11388Y1193D02*
G01X11388Y11193D01*
G01X388Y11193D01*
G01X388Y1193D01*
G01X11388Y1193D01*
G54D27*
G01X7510Y13081D02*
G01X7548Y13154D01*
G01X7619Y13225D01*
G01X7693Y13263D01*
G01X7838Y13263D01*
G01X7912Y13225D01*
G01X7983Y13154D01*
G01X8021Y13081D01*
G01X8056Y12971D01*
G01X8056Y12791D01*
G01X8021Y12682D01*
G01X7983Y12608D01*
G01X7912Y12534D01*
G01X7838Y12499D01*
G01X7693Y12499D01*
G01X7619Y12534D01*
G01X7548Y12608D01*
G01X7510Y12682D01*
G01X6835Y13263D02*
G01X7198Y13263D01*
G01X7233Y12936D01*
G01X7198Y12971D01*
G01X7089Y13009D01*
G01X6979Y13009D01*
G01X6870Y12971D01*
G01X6799Y12900D01*
G01X6761Y12791D01*
G01X6761Y12717D01*
G01X6799Y12608D01*
G01X6870Y12534D01*
G01X6979Y12499D01*
G01X7089Y12499D01*
G01X7198Y12534D01*
G01X7233Y12573D01*
G01X7271Y12644D01*
G01X10756Y13081D02*
G01X10794Y13154D01*
G01X10866Y13225D01*
G01X10939Y13263D01*
G01X11084Y13263D01*
G01X11158Y13225D01*
G01X11229Y13154D01*
G01X11267Y13081D01*
G01X11302Y12971D01*
G01X11302Y12791D01*
G01X11267Y12682D01*
G01X11229Y12608D01*
G01X11158Y12534D01*
G01X11084Y12499D01*
G01X10939Y12499D01*
G01X10866Y12534D01*
G01X10794Y12608D01*
G01X10756Y12682D01*
G01X10480Y13081D02*
G01X10480Y13119D01*
G01X10444Y13190D01*
G01X10408Y13225D01*
G01X10335Y13263D01*
G01X10190Y13263D01*
G01X10116Y13225D01*
G01X10081Y13190D01*
G01X10045Y13119D01*
G01X10045Y13045D01*
G01X10081Y12971D01*
G01X10154Y12862D01*
G01X10518Y12499D01*
G01X10007Y12499D01*
G01X381Y18034D02*
G01X1145Y18034D01*
G01X381Y18034D02*
G01X381Y17706D01*
G01X419Y17597D01*
G01X454Y17561D01*
G01X525Y17526D01*
G01X599Y17526D01*
G01X673Y17561D01*
G01X708Y17597D01*
G01X744Y17706D01*
G01X744Y18034D01*
G01X744Y17780D02*
G01X1145Y17526D01*
G01X563Y17249D02*
G01X525Y17249D01*
G01X454Y17211D01*
G01X419Y17175D01*
G01X381Y17104D01*
G01X381Y16957D01*
G01X419Y16885D01*
G01X454Y16847D01*
G01X525Y16812D01*
G01X599Y16812D01*
G01X673Y16847D01*
G01X782Y16921D01*
G01X1145Y17284D01*
G01X1145Y16776D01*
G01X254Y20193D02*
G01X1018Y20193D01*
G01X254Y20193D02*
G01X254Y19865D01*
G01X292Y19756D01*
G01X327Y19720D01*
G01X398Y19685D01*
G01X472Y19685D01*
G01X546Y19720D01*
G01X581Y19756D01*
G01X617Y19865D01*
G01X617Y20193D01*
G01X617Y19939D02*
G01X1018Y19685D01*
G01X398Y19443D02*
G01X363Y19370D01*
G01X254Y19263D01*
G01X1018Y19263D01*
G01X2230Y15021D02*
G01X2268Y15094D01*
G01X2339Y15166D01*
G01X2413Y15204D01*
G01X2522Y15239D01*
G01X2702Y15239D01*
G01X2811Y15204D01*
G01X2885Y15166D01*
G01X2959Y15094D01*
G01X2994Y15021D01*
G01X2994Y14876D01*
G01X2959Y14802D01*
G01X2885Y14731D01*
G01X2811Y14693D01*
G01X2702Y14658D01*
G01X2522Y14658D01*
G01X2413Y14693D01*
G01X2339Y14731D01*
G01X2268Y14802D01*
G01X2230Y14876D01*
G01X2230Y15021D01*
G01X2849Y14912D02*
G01X3065Y14693D01*
G01X2413Y14381D02*
G01X2374Y14381D01*
G01X2303Y14345D01*
G01X2268Y14310D01*
G01X2230Y14236D01*
G01X2230Y14091D01*
G01X2268Y14018D01*
G01X2303Y13982D01*
G01X2374Y13944D01*
G01X2448Y13944D01*
G01X2522Y13982D01*
G01X2631Y14053D01*
G01X2994Y14416D01*
G01X2994Y13908D01*
G01X8328Y3248D02*
G01X7239Y3248D01*
G01X8328Y3248D02*
G01X8328Y3924D01*
G01X7810Y3248D02*
G01X7810Y3665D01*
G01X7239Y3248D02*
G01X7239Y3924D01*
G01X8173Y4993D02*
G01X8277Y4889D01*
G01X8328Y4734D01*
G01X8328Y4526D01*
G01X8277Y4371D01*
G01X8173Y4267D01*
G01X8069Y4267D01*
G01X7965Y4318D01*
G01X7914Y4371D01*
G01X7861Y4475D01*
G01X7757Y4785D01*
G01X7706Y4889D01*
G01X7653Y4942D01*
G01X7548Y4993D01*
G01X7393Y4993D01*
G01X7289Y4889D01*
G01X7239Y4734D01*
G01X7239Y4526D01*
G01X7289Y4371D01*
G01X7393Y4267D01*
G01X8328Y5336D02*
G01X7239Y5336D01*
G01X8328Y5336D02*
G01X8328Y5803D01*
G01X8277Y5961D01*
G01X8224Y6012D01*
G01X8120Y6065D01*
G01X7965Y6065D01*
G01X7861Y6012D01*
G01X7810Y5961D01*
G01X7757Y5803D01*
G01X7757Y5336D01*
G01X7706Y6408D02*
G01X7706Y7343D01*
G01X8328Y7998D02*
G01X8277Y7841D01*
G01X8120Y7736D01*
G01X7861Y7686D01*
G01X7706Y7686D01*
G01X7444Y7736D01*
G01X7289Y7841D01*
G01X7239Y7998D01*
G01X7239Y8100D01*
G01X7289Y8257D01*
G01X7444Y8361D01*
G01X7706Y8412D01*
G01X7861Y8412D01*
G01X8120Y8361D01*
G01X8277Y8257D01*
G01X8328Y8100D01*
G01X8328Y7998D01*
G01X8120Y8755D02*
G01X8173Y8859D01*
G01X8328Y9014D01*
G01X7239Y9014D01*
G01X8328Y9357D02*
G01X7239Y9357D01*
G01X8328Y9357D02*
G01X8328Y10033D01*
G01X7810Y9357D02*
G01X7810Y9773D01*
G54D29*
G01X1717Y2324D02*
G01X1120Y2324D01*
G01X1008Y2286D01*
G01X972Y2247D01*
G01X934Y2174D01*
G01X934Y2100D01*
G01X972Y2024D01*
G01X1008Y1988D01*
G01X1120Y1950D01*
G01X1196Y1950D01*
G01X1717Y2570D02*
G01X934Y2570D01*
G01X934Y2570D02*
G01X934Y3017D01*
G01X1531Y3822D02*
G01X1605Y3784D01*
G01X1678Y3710D01*
G01X1717Y3634D01*
G01X1717Y3487D01*
G01X1678Y3411D01*
G01X1605Y3337D01*
G01X1531Y3299D01*
G01X1419Y3263D01*
G01X1231Y3263D01*
G01X1120Y3299D01*
G01X1046Y3337D01*
G01X972Y3411D01*
G01X934Y3487D01*
G01X934Y3634D01*
G01X972Y3710D01*
G01X1046Y3784D01*
G01X1120Y3822D01*
G01X1717Y4439D02*
G01X1120Y4439D01*
G01X1008Y4404D01*
G01X972Y4366D01*
G01X934Y4292D01*
G01X934Y4216D01*
G01X972Y4142D01*
G01X1008Y4104D01*
G01X1120Y4066D01*
G01X1196Y4066D01*
G01X1717Y4686D02*
G01X934Y4686D01*
G01X934Y4686D02*
G01X934Y5133D01*
G01X1531Y5938D02*
G01X1605Y5900D01*
G01X1678Y5826D01*
G01X1717Y5753D01*
G01X1717Y5603D01*
G01X1678Y5529D01*
G01X1605Y5453D01*
G01X1531Y5417D01*
G01X1419Y5379D01*
G01X1231Y5379D01*
G01X1120Y5417D01*
G01X1046Y5453D01*
G01X972Y5529D01*
G01X934Y5603D01*
G01X934Y5753D01*
G01X972Y5826D01*
G01X1046Y5900D01*
G01X1120Y5938D01*
G01X1717Y6558D02*
G01X1120Y6558D01*
G01X1008Y6520D01*
G01X972Y6482D01*
G01X934Y6408D01*
G01X934Y6334D01*
G01X972Y6258D01*
G01X1008Y6223D01*
G01X1120Y6184D01*
G01X1196Y6184D01*
G01X1717Y6804D02*
G01X934Y6804D01*
G01X934Y6804D02*
G01X934Y7251D01*
G01X1531Y8056D02*
G01X1605Y8018D01*
G01X1678Y7945D01*
G01X1717Y7868D01*
G01X1717Y7721D01*
G01X1678Y7645D01*
G01X1605Y7571D01*
G01X1531Y7533D01*
G01X1419Y7498D01*
G01X1231Y7498D01*
G01X1120Y7533D01*
G01X1046Y7571D01*
G01X972Y7645D01*
G01X934Y7721D01*
G01X934Y7868D01*
G01X972Y7945D01*
G01X1046Y8018D01*
G01X1120Y8056D01*
G01X1717Y8674D02*
G01X1120Y8674D01*
G01X1008Y8638D01*
G01X972Y8600D01*
G01X934Y8526D01*
G01X934Y8450D01*
G01X972Y8376D01*
G01X1008Y8338D01*
G01X1120Y8300D01*
G01X1196Y8300D01*
G01X1717Y8920D02*
G01X934Y8920D01*
G01X934Y8920D02*
G01X934Y9367D01*
G01X1531Y10172D02*
G01X1605Y10134D01*
G01X1678Y10060D01*
G01X1717Y9987D01*
G01X1717Y9837D01*
G01X1678Y9763D01*
G01X1605Y9687D01*
G01X1531Y9652D01*
G01X1419Y9613D01*
G01X1231Y9613D01*
G01X1120Y9652D01*
G01X1046Y9687D01*
G01X972Y9763D01*
G01X934Y9837D01*
G01X934Y9987D01*
G01X972Y10060D01*
G01X1046Y10134D01*
G01X1120Y10172D01*
G01X6096Y18961D02*
G01X6096Y18006D01*
G01X6096Y18961D02*
G01X5504Y18961D01*
G01X6096Y18506D02*
G01X5732Y18506D01*
G01X5204Y18641D02*
G01X5204Y17688D01*
G01X5204Y18506D02*
G01X5113Y18597D01*
G01X5024Y18641D01*
G01X4886Y18641D01*
G01X4795Y18597D01*
G01X4704Y18506D01*
G01X4660Y18369D01*
G01X4660Y18277D01*
G01X4704Y18143D01*
G01X4795Y18051D01*
G01X4886Y18006D01*
G01X5024Y18006D01*
G01X5113Y18051D01*
G01X5204Y18143D01*
G01X12064Y12573D02*
G01X12923Y12573D01*
G01X12064Y12573D02*
G01X12064Y12204D01*
G01X12105Y12082D01*
G01X12146Y12042D01*
G01X12227Y12001D01*
G01X12308Y12001D01*
G01X12392Y12042D01*
G01X12433Y12082D01*
G01X12473Y12204D01*
G01X12473Y12573D01*
G01X12473Y12285D02*
G01X12923Y12001D01*
G01X12590Y17779D02*
G01X12674Y17739D01*
G01X12755Y17658D01*
G01X12796Y17574D01*
G01X12796Y17411D01*
G01X12755Y17330D01*
G01X12674Y17246D01*
G01X12590Y17205D01*
G01X12468Y17165D01*
G01X12265Y17165D01*
G01X12141Y17205D01*
G01X12059Y17246D01*
G01X11978Y17330D01*
G01X11938Y17411D01*
G01X11938Y17574D01*
G01X11978Y17658D01*
G01X12059Y17739D01*
G01X12141Y17779D01*
G01X12265Y17779D01*
G01X12265Y17574D02*
G01X12265Y17779D01*
G01X12064Y15714D02*
G01X12923Y15714D01*
G01X12064Y16002D02*
G01X12064Y15430D01*
G01X12796Y19695D02*
G01X12796Y19286D01*
G01X12428Y19245D01*
G01X12468Y19286D01*
G01X12512Y19410D01*
G01X12512Y19532D01*
G01X12468Y19654D01*
G01X12387Y19735D01*
G01X12265Y19776D01*
G01X12184Y19776D01*
G01X12059Y19735D01*
G01X11978Y19654D01*
G01X11938Y19532D01*
G01X11938Y19410D01*
G01X11978Y19286D01*
G01X12019Y19245D01*
G01X12100Y19204D01*
G01X12796Y20048D02*
G01X11938Y20375D01*
G01X12796Y20701D02*
G01X11938Y20375D01*
G54D10*
G75*
G01X13843Y2794D02*
G03X13843Y2794I-381J0D01*
G01*
G75*
G01X9974Y3143D02*
G03X9974Y3143I-560J0D01*
G01*
M00*
M02*
