G04 Layer: BottomLayer*
G04 EasyEDA v6.2.35, 2019-08-16T20:57:05+08:00*
G04 ac69921650c84e06b2cbf5d8b71e85d1,46bf6a40d4384fdb86bc8fc37bf60e4c,10*
G04 Gerber Generator version 0.2*
G04 Scale: 100 percent, Rotated: No, Reflected: No *
G04 Dimensions in millimeters *
G04 leading zeros omitted , absolute positions ,3 integer and 3 decimal *
%FSLAX33Y33*%
%MOMM*%
G90*
G71D02*

%ADD11C,0.200000*%
%ADD14C,0.609600*%
%ADD22C,1.524000*%
%ADD23R,1.799996X1.799996*%
%ADD24C,1.799996*%
%ADD26C,1.199998*%
%ADD27C,1.299997*%
%ADD28C,0.999998*%

%LPD*%
G36*
G01X22924Y5485D02*
G01X12127Y5485D01*
G01X12111Y5484D01*
G01X12096Y5480D01*
G01X12081Y5474D01*
G01X12068Y5466D01*
G01X12055Y5455D01*
G01X11308Y4708D01*
G01X11297Y4695D01*
G01X11289Y4682D01*
G01X11283Y4667D01*
G01X11279Y4652D01*
G01X11278Y4636D01*
G01X11278Y2694D01*
G01X11277Y2666D01*
G01X11274Y2639D01*
G01X11268Y2611D01*
G01X11261Y2584D01*
G01X11251Y2558D01*
G01X11239Y2533D01*
G01X11226Y2508D01*
G01X11210Y2485D01*
G01X11193Y2463D01*
G01X11174Y2442D01*
G01X11044Y2313D01*
G01X11034Y2301D01*
G01X11026Y2287D01*
G01X11020Y2273D01*
G01X11016Y2257D01*
G01X11015Y2241D01*
G01X11015Y1532D01*
G01X11013Y1490D01*
G01X11010Y1448D01*
G01X11004Y1407D01*
G01X10996Y1366D01*
G01X10986Y1325D01*
G01X10973Y1285D01*
G01X10958Y1246D01*
G01X10941Y1207D01*
G01X10922Y1170D01*
G01X10901Y1134D01*
G01X10878Y1099D01*
G01X10853Y1065D01*
G01X10826Y1033D01*
G01X10817Y1021D01*
G01X10810Y1008D01*
G01X10805Y995D01*
G01X10802Y980D01*
G01X10801Y966D01*
G01X10802Y951D01*
G01X10805Y937D01*
G01X10810Y923D01*
G01X10817Y911D01*
G01X10826Y899D01*
G01X10836Y889D01*
G01X10848Y880D01*
G01X10860Y873D01*
G01X10874Y868D01*
G01X10888Y865D01*
G01X10903Y864D01*
G01X11613Y864D01*
G01X11628Y865D01*
G01X11642Y868D01*
G01X11656Y873D01*
G01X11668Y880D01*
G01X11680Y889D01*
G01X11690Y899D01*
G01X11699Y911D01*
G01X11706Y923D01*
G01X11711Y937D01*
G01X11714Y951D01*
G01X11715Y966D01*
G01X11714Y980D01*
G01X11711Y995D01*
G01X11706Y1008D01*
G01X11699Y1021D01*
G01X11690Y1033D01*
G01X11663Y1065D01*
G01X11638Y1099D01*
G01X11615Y1134D01*
G01X11594Y1170D01*
G01X11575Y1207D01*
G01X11558Y1246D01*
G01X11543Y1285D01*
G01X11530Y1325D01*
G01X11520Y1366D01*
G01X11512Y1407D01*
G01X11506Y1448D01*
G01X11503Y1490D01*
G01X11502Y1532D01*
G01X11502Y2532D01*
G01X11503Y2572D01*
G01X11506Y2611D01*
G01X11511Y2650D01*
G01X11518Y2689D01*
G01X11527Y2728D01*
G01X11539Y2766D01*
G01X11552Y2803D01*
G01X11567Y2840D01*
G01X11584Y2875D01*
G01X11603Y2910D01*
G01X11624Y2944D01*
G01X11646Y2977D01*
G01X11670Y3008D01*
G01X11696Y3038D01*
G01X11723Y3067D01*
G01X11752Y3094D01*
G01X11782Y3120D01*
G01X11813Y3144D01*
G01X11846Y3166D01*
G01X11880Y3187D01*
G01X11915Y3206D01*
G01X11950Y3223D01*
G01X11987Y3238D01*
G01X12024Y3252D01*
G01X12062Y3263D01*
G01X12101Y3272D01*
G01X12140Y3279D01*
G01X12179Y3284D01*
G01X12218Y3288D01*
G01X12258Y3289D01*
G01X12298Y3288D01*
G01X12337Y3284D01*
G01X12376Y3279D01*
G01X12415Y3272D01*
G01X12454Y3263D01*
G01X12492Y3252D01*
G01X12529Y3238D01*
G01X12566Y3223D01*
G01X12602Y3206D01*
G01X12636Y3187D01*
G01X12670Y3166D01*
G01X12703Y3144D01*
G01X12734Y3120D01*
G01X12764Y3094D01*
G01X12793Y3067D01*
G01X12820Y3038D01*
G01X12846Y3008D01*
G01X12870Y2977D01*
G01X12893Y2944D01*
G01X12913Y2910D01*
G01X12932Y2875D01*
G01X12949Y2840D01*
G01X12964Y2803D01*
G01X12978Y2766D01*
G01X12989Y2728D01*
G01X12998Y2689D01*
G01X13005Y2650D01*
G01X13010Y2611D01*
G01X13014Y2572D01*
G01X13015Y2532D01*
G01X13015Y1532D01*
G01X13013Y1490D01*
G01X13010Y1448D01*
G01X13004Y1407D01*
G01X12996Y1366D01*
G01X12986Y1325D01*
G01X12973Y1285D01*
G01X12958Y1246D01*
G01X12941Y1207D01*
G01X12922Y1170D01*
G01X12901Y1134D01*
G01X12878Y1099D01*
G01X12853Y1065D01*
G01X12826Y1033D01*
G01X12818Y1021D01*
G01X12810Y1008D01*
G01X12805Y995D01*
G01X12802Y980D01*
G01X12801Y966D01*
G01X12802Y951D01*
G01X12805Y937D01*
G01X12810Y923D01*
G01X12817Y911D01*
G01X12826Y899D01*
G01X12836Y889D01*
G01X12848Y880D01*
G01X12861Y873D01*
G01X12874Y868D01*
G01X12888Y865D01*
G01X12903Y864D01*
G01X13614Y864D01*
G01X13628Y865D01*
G01X13643Y868D01*
G01X13656Y873D01*
G01X13669Y880D01*
G01X13681Y889D01*
G01X13691Y899D01*
G01X13699Y911D01*
G01X13706Y923D01*
G01X13712Y937D01*
G01X13715Y951D01*
G01X13716Y966D01*
G01X13715Y980D01*
G01X13711Y995D01*
G01X13706Y1008D01*
G01X13699Y1021D01*
G01X13690Y1033D01*
G01X13663Y1065D01*
G01X13638Y1099D01*
G01X13615Y1134D01*
G01X13594Y1170D01*
G01X13575Y1208D01*
G01X13558Y1246D01*
G01X13543Y1285D01*
G01X13530Y1325D01*
G01X13520Y1366D01*
G01X13512Y1407D01*
G01X13506Y1449D01*
G01X13503Y1491D01*
G01X13502Y1533D01*
G01X13502Y2533D01*
G01X13503Y2573D01*
G01X13506Y2613D01*
G01X13511Y2653D01*
G01X13519Y2693D01*
G01X13528Y2732D01*
G01X13540Y2770D01*
G01X13553Y2808D01*
G01X13569Y2845D01*
G01X13587Y2882D01*
G01X13606Y2917D01*
G01X13628Y2951D01*
G01X13651Y2984D01*
G01X13676Y3016D01*
G01X13702Y3046D01*
G01X13730Y3075D01*
G01X13760Y3102D01*
G01X13791Y3128D01*
G01X13823Y3152D01*
G01X13857Y3174D01*
G01X13869Y3183D01*
G01X13880Y3194D01*
G01X13889Y3206D01*
G01X13896Y3220D01*
G01X13901Y3234D01*
G01X13904Y3249D01*
G01X13908Y3278D01*
G01X13915Y3308D01*
G01X13925Y3336D01*
G01X13937Y3364D01*
G01X13951Y3390D01*
G01X13967Y3415D01*
G01X13986Y3439D01*
G01X14006Y3461D01*
G01X14776Y4231D01*
G01X14786Y4243D01*
G01X14794Y4257D01*
G01X14800Y4271D01*
G01X14804Y4287D01*
G01X14805Y4303D01*
G01X14805Y4318D01*
G01X14806Y4351D01*
G01X14809Y4385D01*
G01X14814Y4419D01*
G01X14821Y4452D01*
G01X14831Y4485D01*
G01X14842Y4517D01*
G01X14855Y4548D01*
G01X14869Y4578D01*
G01X14886Y4608D01*
G01X14905Y4636D01*
G01X14925Y4664D01*
G01X14946Y4690D01*
G01X14994Y4738D01*
G01X15020Y4759D01*
G01X15048Y4779D01*
G01X15076Y4798D01*
G01X15106Y4815D01*
G01X15136Y4829D01*
G01X15167Y4842D01*
G01X15199Y4853D01*
G01X15232Y4863D01*
G01X15265Y4870D01*
G01X15299Y4875D01*
G01X15333Y4878D01*
G01X15367Y4879D01*
G01X15400Y4878D01*
G01X15434Y4875D01*
G01X15468Y4870D01*
G01X15501Y4863D01*
G01X15534Y4853D01*
G01X15566Y4842D01*
G01X15597Y4829D01*
G01X15627Y4815D01*
G01X15657Y4798D01*
G01X15685Y4779D01*
G01X15713Y4759D01*
G01X15739Y4738D01*
G01X15787Y4690D01*
G01X15808Y4664D01*
G01X15828Y4636D01*
G01X15847Y4608D01*
G01X15864Y4578D01*
G01X15878Y4548D01*
G01X15891Y4517D01*
G01X15902Y4485D01*
G01X15912Y4452D01*
G01X15919Y4419D01*
G01X15924Y4385D01*
G01X15927Y4351D01*
G01X15928Y4318D01*
G01X15927Y4284D01*
G01X15924Y4250D01*
G01X15919Y4216D01*
G01X15912Y4183D01*
G01X15902Y4150D01*
G01X15891Y4118D01*
G01X15878Y4087D01*
G01X15864Y4057D01*
G01X15847Y4027D01*
G01X15828Y3999D01*
G01X15808Y3971D01*
G01X15787Y3945D01*
G01X15739Y3897D01*
G01X15713Y3876D01*
G01X15685Y3856D01*
G01X15657Y3837D01*
G01X15627Y3820D01*
G01X15597Y3806D01*
G01X15566Y3793D01*
G01X15534Y3782D01*
G01X15501Y3772D01*
G01X15468Y3765D01*
G01X15434Y3760D01*
G01X15400Y3757D01*
G01X15367Y3756D01*
G01X15352Y3756D01*
G01X15336Y3755D01*
G01X15320Y3751D01*
G01X15306Y3745D01*
G01X15292Y3737D01*
G01X15280Y3727D01*
G01X14779Y3225D01*
G01X14768Y3213D01*
G01X14760Y3200D01*
G01X14754Y3185D01*
G01X14750Y3169D01*
G01X14749Y3154D01*
G01X14750Y3137D01*
G01X14754Y3121D01*
G01X14761Y3106D01*
G01X14769Y3092D01*
G01X14780Y3080D01*
G01X14809Y3051D01*
G01X14836Y3021D01*
G01X14862Y2989D01*
G01X14885Y2956D01*
G01X14907Y2921D01*
G01X14927Y2886D01*
G01X14945Y2849D01*
G01X14961Y2812D01*
G01X14975Y2773D01*
G01X14987Y2734D01*
G01X14997Y2695D01*
G01X15005Y2655D01*
G01X15010Y2614D01*
G01X15013Y2574D01*
G01X15015Y2533D01*
G01X15015Y1533D01*
G01X15013Y1491D01*
G01X15010Y1449D01*
G01X15004Y1407D01*
G01X14996Y1366D01*
G01X14986Y1325D01*
G01X14973Y1285D01*
G01X14958Y1246D01*
G01X14941Y1208D01*
G01X14922Y1170D01*
G01X14901Y1134D01*
G01X14878Y1099D01*
G01X14853Y1065D01*
G01X14826Y1033D01*
G01X14817Y1021D01*
G01X14810Y1008D01*
G01X14805Y995D01*
G01X14802Y980D01*
G01X14800Y966D01*
G01X14802Y951D01*
G01X14805Y937D01*
G01X14810Y923D01*
G01X14817Y911D01*
G01X14825Y899D01*
G01X14836Y889D01*
G01X14847Y880D01*
G01X14860Y873D01*
G01X14873Y868D01*
G01X14888Y865D01*
G01X14902Y864D01*
G01X15613Y864D01*
G01X15628Y865D01*
G01X15642Y868D01*
G01X15656Y873D01*
G01X15668Y880D01*
G01X15680Y889D01*
G01X15690Y899D01*
G01X15699Y911D01*
G01X15706Y923D01*
G01X15711Y937D01*
G01X15714Y951D01*
G01X15715Y966D01*
G01X15714Y980D01*
G01X15711Y995D01*
G01X15706Y1008D01*
G01X15699Y1021D01*
G01X15690Y1033D01*
G01X15663Y1065D01*
G01X15638Y1099D01*
G01X15615Y1134D01*
G01X15594Y1170D01*
G01X15575Y1207D01*
G01X15558Y1246D01*
G01X15543Y1285D01*
G01X15530Y1325D01*
G01X15520Y1366D01*
G01X15512Y1407D01*
G01X15506Y1448D01*
G01X15503Y1490D01*
G01X15502Y1532D01*
G01X15502Y2532D01*
G01X15503Y2572D01*
G01X15506Y2611D01*
G01X15511Y2650D01*
G01X15518Y2689D01*
G01X15527Y2728D01*
G01X15539Y2766D01*
G01X15552Y2803D01*
G01X15567Y2840D01*
G01X15584Y2875D01*
G01X15603Y2910D01*
G01X15624Y2944D01*
G01X15646Y2977D01*
G01X15670Y3008D01*
G01X15696Y3038D01*
G01X15723Y3067D01*
G01X15752Y3094D01*
G01X15782Y3120D01*
G01X15813Y3144D01*
G01X15846Y3166D01*
G01X15880Y3187D01*
G01X15915Y3206D01*
G01X15950Y3223D01*
G01X15987Y3238D01*
G01X16024Y3252D01*
G01X16062Y3263D01*
G01X16101Y3272D01*
G01X16140Y3279D01*
G01X16179Y3284D01*
G01X16218Y3288D01*
G01X16258Y3289D01*
G01X16298Y3288D01*
G01X16337Y3284D01*
G01X16376Y3279D01*
G01X16415Y3272D01*
G01X16454Y3263D01*
G01X16492Y3252D01*
G01X16529Y3238D01*
G01X16566Y3223D01*
G01X16602Y3206D01*
G01X16636Y3187D01*
G01X16670Y3166D01*
G01X16703Y3144D01*
G01X16734Y3120D01*
G01X16764Y3094D01*
G01X16793Y3067D01*
G01X16820Y3038D01*
G01X16846Y3008D01*
G01X16870Y2977D01*
G01X16893Y2944D01*
G01X16913Y2910D01*
G01X16932Y2875D01*
G01X16949Y2840D01*
G01X16964Y2803D01*
G01X16978Y2766D01*
G01X16989Y2728D01*
G01X16998Y2689D01*
G01X17005Y2650D01*
G01X17010Y2611D01*
G01X17014Y2572D01*
G01X17015Y2532D01*
G01X17015Y1532D01*
G01X17014Y1492D01*
G01X17010Y1452D01*
G01X17005Y1412D01*
G01X16998Y1373D01*
G01X16988Y1334D01*
G01X16977Y1295D01*
G01X16963Y1258D01*
G01X16948Y1221D01*
G01X16930Y1184D01*
G01X16911Y1149D01*
G01X16889Y1115D01*
G01X16866Y1082D01*
G01X16842Y1051D01*
G01X16815Y1021D01*
G01X16788Y992D01*
G01X16758Y964D01*
G01X16727Y939D01*
G01X16695Y915D01*
G01X16662Y892D01*
G01X16650Y884D01*
G01X16640Y873D01*
G01X16631Y862D01*
G01X16624Y849D01*
G01X16619Y835D01*
G01X16616Y821D01*
G01X16615Y806D01*
G01X16615Y764D01*
G01X16613Y736D01*
G01X16610Y708D01*
G01X16605Y681D01*
G01X16597Y654D01*
G01X16587Y628D01*
G01X16576Y602D01*
G01X16562Y578D01*
G01X16546Y554D01*
G01X16529Y532D01*
G01X16510Y512D01*
G01X16440Y442D01*
G01X16430Y430D01*
G01X16422Y416D01*
G01X16416Y402D01*
G01X16412Y386D01*
G01X16411Y370D01*
G01X16412Y356D01*
G01X16415Y342D01*
G01X16420Y328D01*
G01X16427Y315D01*
G01X16435Y304D01*
G01X16446Y294D01*
G01X16457Y285D01*
G01X16470Y278D01*
G01X16484Y273D01*
G01X16498Y270D01*
G01X16512Y269D01*
G01X18147Y269D01*
G01X18161Y270D01*
G01X18176Y273D01*
G01X18189Y278D01*
G01X18202Y285D01*
G01X18213Y294D01*
G01X18224Y304D01*
G01X18232Y315D01*
G01X18239Y328D01*
G01X18244Y342D01*
G01X18247Y356D01*
G01X18249Y370D01*
G01X18246Y391D01*
G01X18240Y430D01*
G01X18236Y469D01*
G01X18234Y508D01*
G01X18235Y544D01*
G01X18239Y581D01*
G01X18245Y617D01*
G01X18253Y653D01*
G01X18257Y679D01*
G01X18256Y694D01*
G01X18253Y708D01*
G01X18247Y722D01*
G01X18240Y735D01*
G01X18231Y747D01*
G01X18221Y757D01*
G01X18209Y766D01*
G01X18196Y773D01*
G01X18182Y777D01*
G01X18167Y780D01*
G01X18127Y786D01*
G01X18088Y794D01*
G01X18048Y805D01*
G01X18010Y817D01*
G01X17972Y831D01*
G01X17934Y848D01*
G01X17898Y866D01*
G01X17863Y886D01*
G01X17829Y909D01*
G01X17796Y933D01*
G01X17765Y958D01*
G01X17735Y986D01*
G01X17706Y1015D01*
G01X17679Y1045D01*
G01X17654Y1077D01*
G01X17630Y1110D01*
G01X17609Y1144D01*
G01X17589Y1180D01*
G01X17571Y1216D01*
G01X17555Y1254D01*
G01X17541Y1292D01*
G01X17529Y1331D01*
G01X17520Y1370D01*
G01X17512Y1410D01*
G01X17507Y1450D01*
G01X17503Y1491D01*
G01X17502Y1531D01*
G01X17502Y2531D01*
G01X17503Y2571D01*
G01X17506Y2610D01*
G01X17512Y2650D01*
G01X17519Y2689D01*
G01X17528Y2727D01*
G01X17539Y2765D01*
G01X17553Y2802D01*
G01X17568Y2839D01*
G01X17585Y2875D01*
G01X17604Y2910D01*
G01X17624Y2943D01*
G01X17647Y2976D01*
G01X17671Y3007D01*
G01X17697Y3037D01*
G01X17724Y3066D01*
G01X17753Y3093D01*
G01X17783Y3119D01*
G01X17814Y3143D01*
G01X17847Y3166D01*
G01X17881Y3186D01*
G01X17915Y3205D01*
G01X17951Y3222D01*
G01X17988Y3238D01*
G01X18025Y3251D01*
G01X18063Y3262D01*
G01X18102Y3271D01*
G01X18140Y3278D01*
G01X18180Y3284D01*
G01X18219Y3287D01*
G01X18259Y3288D01*
G01X18298Y3287D01*
G01X18338Y3284D01*
G01X18377Y3278D01*
G01X18416Y3271D01*
G01X18455Y3262D01*
G01X18493Y3251D01*
G01X18530Y3238D01*
G01X18567Y3222D01*
G01X18602Y3205D01*
G01X18637Y3186D01*
G01X18671Y3166D01*
G01X18703Y3143D01*
G01X18735Y3119D01*
G01X18765Y3093D01*
G01X18794Y3066D01*
G01X18821Y3037D01*
G01X18847Y3007D01*
G01X18871Y2976D01*
G01X18893Y2943D01*
G01X18914Y2910D01*
G01X18933Y2875D01*
G01X18950Y2839D01*
G01X18965Y2802D01*
G01X18978Y2765D01*
G01X18990Y2727D01*
G01X18999Y2689D01*
G01X19006Y2650D01*
G01X19011Y2610D01*
G01X19014Y2571D01*
G01X19015Y2531D01*
G01X19015Y1531D01*
G01X19014Y1491D01*
G01X19011Y1450D01*
G01X19006Y1410D01*
G01X18998Y1370D01*
G01X18988Y1330D01*
G01X18976Y1291D01*
G01X18962Y1253D01*
G01X18946Y1216D01*
G01X18928Y1179D01*
G01X18922Y1164D01*
G01X18918Y1148D01*
G01X18917Y1132D01*
G01X18918Y1116D01*
G01X18921Y1101D01*
G01X18927Y1087D01*
G01X18935Y1073D01*
G01X18945Y1061D01*
G01X18957Y1051D01*
G01X18970Y1043D01*
G01X18984Y1036D01*
G01X19019Y1022D01*
G01X19053Y1007D01*
G01X19085Y988D01*
G01X19116Y968D01*
G01X19146Y946D01*
G01X19175Y922D01*
G01X19201Y895D01*
G01X19213Y885D01*
G01X19227Y876D01*
G01X19242Y869D01*
G01X19258Y865D01*
G01X19275Y864D01*
G01X19495Y864D01*
G01X19511Y865D01*
G01X19526Y869D01*
G01X19541Y875D01*
G01X19554Y883D01*
G01X19567Y894D01*
G01X19632Y960D01*
G01X19643Y972D01*
G01X19651Y985D01*
G01X19657Y1000D01*
G01X19661Y1015D01*
G01X19662Y1031D01*
G01X19661Y1047D01*
G01X19657Y1063D01*
G01X19651Y1077D01*
G01X19643Y1091D01*
G01X19621Y1123D01*
G01X19600Y1157D01*
G01X19582Y1191D01*
G01X19565Y1227D01*
G01X19550Y1263D01*
G01X19537Y1300D01*
G01X19526Y1338D01*
G01X19517Y1376D01*
G01X19510Y1415D01*
G01X19505Y1454D01*
G01X19501Y1493D01*
G01X19500Y1533D01*
G01X19500Y2533D01*
G01X19502Y2572D01*
G01X19505Y2612D01*
G01X19510Y2651D01*
G01X19517Y2690D01*
G01X19526Y2728D01*
G01X19538Y2766D01*
G01X19551Y2804D01*
G01X19566Y2840D01*
G01X19583Y2876D01*
G01X19602Y2911D01*
G01X19623Y2945D01*
G01X19645Y2977D01*
G01X19669Y3009D01*
G01X19695Y3039D01*
G01X19722Y3067D01*
G01X19751Y3095D01*
G01X19781Y3120D01*
G01X19812Y3145D01*
G01X19845Y3167D01*
G01X19879Y3188D01*
G01X19914Y3207D01*
G01X19949Y3224D01*
G01X19986Y3239D01*
G01X20023Y3252D01*
G01X20061Y3263D01*
G01X20100Y3273D01*
G01X20139Y3280D01*
G01X20178Y3285D01*
G01X20217Y3288D01*
G01X20257Y3289D01*
G01X20297Y3288D01*
G01X20336Y3285D01*
G01X20375Y3280D01*
G01X20414Y3273D01*
G01X20453Y3263D01*
G01X20491Y3252D01*
G01X20528Y3239D01*
G01X20565Y3224D01*
G01X20600Y3207D01*
G01X20635Y3188D01*
G01X20669Y3167D01*
G01X20702Y3145D01*
G01X20733Y3120D01*
G01X20763Y3095D01*
G01X20792Y3067D01*
G01X20819Y3039D01*
G01X20845Y3009D01*
G01X20869Y2977D01*
G01X20892Y2945D01*
G01X20912Y2911D01*
G01X20931Y2876D01*
G01X20948Y2840D01*
G01X20963Y2804D01*
G01X20977Y2766D01*
G01X20988Y2728D01*
G01X20997Y2690D01*
G01X21004Y2651D01*
G01X21009Y2612D01*
G01X21013Y2572D01*
G01X21014Y2533D01*
G01X21014Y1533D01*
G01X21012Y1492D01*
G01X21009Y1452D01*
G01X21004Y1413D01*
G01X20997Y1373D01*
G01X20987Y1334D01*
G01X20976Y1296D01*
G01X20962Y1258D01*
G01X20946Y1221D01*
G01X20929Y1185D01*
G01X20909Y1150D01*
G01X20888Y1116D01*
G01X20865Y1083D01*
G01X20841Y1051D01*
G01X20814Y1021D01*
G01X20786Y992D01*
G01X20757Y965D01*
G01X20726Y939D01*
G01X20694Y915D01*
G01X20660Y892D01*
G01X20626Y872D01*
G01X20590Y853D01*
G01X20554Y837D01*
G01X20516Y822D01*
G01X20503Y816D01*
G01X20491Y808D01*
G01X20479Y798D01*
G01X20318Y636D01*
G01X20123Y442D01*
G01X20113Y430D01*
G01X20105Y416D01*
G01X20099Y402D01*
G01X20095Y386D01*
G01X20094Y370D01*
G01X20095Y356D01*
G01X20098Y342D01*
G01X20103Y328D01*
G01X20110Y315D01*
G01X20118Y304D01*
G01X20129Y294D01*
G01X20140Y285D01*
G01X20153Y278D01*
G01X20167Y273D01*
G01X20181Y270D01*
G01X20195Y269D01*
G01X27316Y269D01*
G01X27331Y270D01*
G01X27345Y273D01*
G01X27359Y278D01*
G01X27371Y285D01*
G01X27383Y294D01*
G01X27393Y304D01*
G01X27402Y315D01*
G01X27409Y328D01*
G01X27414Y342D01*
G01X27417Y356D01*
G01X27418Y370D01*
G01X27418Y1065D01*
G01X27417Y1080D01*
G01X27414Y1094D01*
G01X27409Y1108D01*
G01X27402Y1120D01*
G01X27393Y1132D01*
G01X27383Y1142D01*
G01X27371Y1151D01*
G01X27359Y1158D01*
G01X27345Y1163D01*
G01X27331Y1166D01*
G01X27316Y1167D01*
G01X23847Y1167D01*
G01X23830Y1166D01*
G01X23814Y1162D01*
G01X23799Y1155D01*
G01X23785Y1146D01*
G01X23773Y1136D01*
G01X23748Y1111D01*
G01X23722Y1088D01*
G01X23694Y1067D01*
G01X23665Y1048D01*
G01X23635Y1030D01*
G01X23604Y1014D01*
G01X23572Y1001D01*
G01X23539Y989D01*
G01X23506Y979D01*
G01X23472Y972D01*
G01X23437Y966D01*
G01X23402Y963D01*
G01X23368Y962D01*
G01X23332Y963D01*
G01X23297Y967D01*
G01X23262Y972D01*
G01X23227Y980D01*
G01X23193Y990D01*
G01X23160Y1002D01*
G01X23128Y1016D01*
G01X23096Y1032D01*
G01X23066Y1050D01*
G01X23036Y1070D01*
G01X23009Y1092D01*
G01X22994Y1102D01*
G01X22978Y1109D01*
G01X22961Y1114D01*
G01X22944Y1115D01*
G01X22928Y1114D01*
G01X22913Y1111D01*
G01X22898Y1105D01*
G01X22885Y1097D01*
G01X22873Y1087D01*
G01X22863Y1075D01*
G01X22837Y1043D01*
G01X22809Y1012D01*
G01X22780Y983D01*
G01X22749Y956D01*
G01X22717Y930D01*
G01X22683Y906D01*
G01X22648Y884D01*
G01X22612Y864D01*
G01X22575Y846D01*
G01X22575Y1483D01*
G01X22707Y1483D01*
G01X22722Y1484D01*
G01X22737Y1487D01*
G01X22751Y1493D01*
G01X22764Y1500D01*
G01X22776Y1509D01*
G01X22786Y1520D01*
G01X22795Y1533D01*
G01X22801Y1546D01*
G01X22806Y1560D01*
G01X22809Y1575D01*
G01X22813Y1609D01*
G01X22819Y1643D01*
G01X22827Y1676D01*
G01X22837Y1708D01*
G01X22850Y1740D01*
G01X22864Y1771D01*
G01X22880Y1801D01*
G01X22898Y1830D01*
G01X22917Y1858D01*
G01X22938Y1885D01*
G01X22961Y1911D01*
G01X22985Y1935D01*
G01X23011Y1957D01*
G01X23038Y1978D01*
G01X23066Y1997D01*
G01X23096Y2015D01*
G01X23126Y2030D01*
G01X23157Y2044D01*
G01X23191Y2056D01*
G01X23225Y2067D01*
G01X23260Y2075D01*
G01X23296Y2080D01*
G01X23332Y2084D01*
G01X23368Y2085D01*
G01X23402Y2084D01*
G01X23437Y2081D01*
G01X23472Y2075D01*
G01X23506Y2068D01*
G01X23539Y2058D01*
G01X23572Y2046D01*
G01X23604Y2033D01*
G01X23635Y2017D01*
G01X23665Y1999D01*
G01X23694Y1980D01*
G01X23722Y1959D01*
G01X23748Y1936D01*
G01X23773Y1911D01*
G01X23785Y1901D01*
G01X23799Y1892D01*
G01X23814Y1885D01*
G01X23830Y1881D01*
G01X23847Y1880D01*
G01X27316Y1880D01*
G01X27331Y1881D01*
G01X27345Y1884D01*
G01X27359Y1889D01*
G01X27371Y1896D01*
G01X27383Y1905D01*
G01X27393Y1915D01*
G01X27402Y1927D01*
G01X27409Y1939D01*
G01X27414Y1953D01*
G01X27417Y1967D01*
G01X27418Y1982D01*
G01X27418Y2081D01*
G01X27417Y2096D01*
G01X27414Y2110D01*
G01X27409Y2124D01*
G01X27402Y2136D01*
G01X27393Y2148D01*
G01X27383Y2158D01*
G01X27371Y2167D01*
G01X27359Y2174D01*
G01X27345Y2179D01*
G01X27331Y2182D01*
G01X27316Y2183D01*
G01X26416Y2183D01*
G01X26388Y2184D01*
G01X26360Y2187D01*
G01X26332Y2193D01*
G01X26305Y2200D01*
G01X26279Y2210D01*
G01X26254Y2222D01*
G01X26229Y2235D01*
G01X26206Y2251D01*
G01X26184Y2268D01*
G01X26163Y2287D01*
G01X22996Y5455D01*
G01X22983Y5466D01*
G01X22970Y5474D01*
G01X22955Y5480D01*
G01X22940Y5484D01*
G01X22924Y5485D01*
G37*

%LPC*%
G36*
G01X21948Y1483D02*
G01X21506Y1483D01*
G01X21510Y1442D01*
G01X21516Y1402D01*
G01X21524Y1362D01*
G01X21535Y1323D01*
G01X21547Y1284D01*
G01X21561Y1246D01*
G01X21578Y1209D01*
G01X21596Y1173D01*
G01X21617Y1137D01*
G01X21639Y1103D01*
G01X21663Y1071D01*
G01X21689Y1039D01*
G01X21716Y1009D01*
G01X21745Y980D01*
G01X21776Y954D01*
G01X21808Y928D01*
G01X21841Y905D01*
G01X21875Y883D01*
G01X21911Y863D01*
G01X21948Y846D01*
G01X21948Y1483D01*
G37*
G36*
G01X21948Y2585D02*
G01X21948Y3223D01*
G01X21911Y3205D01*
G01X21875Y3185D01*
G01X21841Y3163D01*
G01X21808Y3140D01*
G01X21776Y3115D01*
G01X21745Y3088D01*
G01X21716Y3059D01*
G01X21689Y3029D01*
G01X21663Y2998D01*
G01X21639Y2965D01*
G01X21617Y2931D01*
G01X21596Y2895D01*
G01X21578Y2859D01*
G01X21561Y2822D01*
G01X21547Y2784D01*
G01X21535Y2745D01*
G01X21524Y2706D01*
G01X21516Y2666D01*
G01X21510Y2626D01*
G01X21506Y2585D01*
G01X21948Y2585D01*
G37*
G36*
G01X22611Y3205D02*
G01X22575Y3223D01*
G01X22575Y2585D01*
G01X23016Y2585D01*
G01X23012Y2626D01*
G01X23006Y2666D01*
G01X22998Y2706D01*
G01X22988Y2745D01*
G01X22975Y2784D01*
G01X22961Y2822D01*
G01X22944Y2859D01*
G01X22926Y2895D01*
G01X22905Y2931D01*
G01X22883Y2965D01*
G01X22859Y2998D01*
G01X22833Y3029D01*
G01X22806Y3059D01*
G01X22777Y3088D01*
G01X22746Y3115D01*
G01X22714Y3140D01*
G01X22681Y3163D01*
G01X22647Y3185D01*
G01X22611Y3205D01*
G37*

%LPD*%
G36*
G01X31647Y3099D02*
G01X31633Y3100D01*
G01X31617Y3098D01*
G01X31602Y3095D01*
G01X31588Y3089D01*
G01X31575Y3081D01*
G01X31563Y3072D01*
G01X31529Y3041D01*
G01X31494Y3012D01*
G01X31458Y2984D01*
G01X31420Y2958D01*
G01X31381Y2934D01*
G01X31342Y2912D01*
G01X31301Y2891D01*
G01X31260Y2872D01*
G01X31217Y2856D01*
G01X31174Y2841D01*
G01X31131Y2827D01*
G01X31086Y2816D01*
G01X31042Y2807D01*
G01X30997Y2800D01*
G01X30952Y2795D01*
G01X30906Y2792D01*
G01X30861Y2791D01*
G01X30814Y2792D01*
G01X30768Y2795D01*
G01X30722Y2800D01*
G01X30676Y2808D01*
G01X30631Y2817D01*
G01X30586Y2829D01*
G01X30542Y2842D01*
G01X30498Y2858D01*
G01X30480Y2863D01*
G01X30462Y2864D01*
G01X30446Y2863D01*
G01X30430Y2859D01*
G01X30416Y2853D01*
G01X30402Y2845D01*
G01X30390Y2835D01*
G01X29843Y2287D01*
G01X29823Y2269D01*
G01X29801Y2252D01*
G01X29779Y2237D01*
G01X29767Y2228D01*
G01X29757Y2218D01*
G01X29748Y2206D01*
G01X29740Y2193D01*
G01X29735Y2180D01*
G01X29732Y2165D01*
G01X29731Y2151D01*
G01X29731Y1715D01*
G01X29733Y1697D01*
G01X29737Y1680D01*
G01X29745Y1664D01*
G01X29737Y1647D01*
G01X29733Y1630D01*
G01X29731Y1612D01*
G01X29731Y927D01*
G01X29733Y909D01*
G01X29737Y892D01*
G01X29745Y875D01*
G01X29737Y859D01*
G01X29733Y842D01*
G01X29731Y824D01*
G01X29731Y370D01*
G01X29732Y356D01*
G01X29735Y342D01*
G01X29740Y328D01*
G01X29747Y315D01*
G01X29756Y304D01*
G01X29766Y294D01*
G01X29778Y285D01*
G01X29790Y278D01*
G01X29804Y273D01*
G01X29818Y270D01*
G01X29833Y269D01*
G01X30193Y269D01*
G01X30207Y270D01*
G01X30221Y273D01*
G01X30235Y278D01*
G01X30247Y285D01*
G01X30259Y294D01*
G01X30269Y304D01*
G01X30278Y315D01*
G01X30285Y328D01*
G01X30290Y342D01*
G01X30293Y356D01*
G01X30294Y370D01*
G01X30293Y386D01*
G01X30289Y401D01*
G01X30283Y416D01*
G01X30275Y429D01*
G01X30265Y442D01*
G01X30253Y452D01*
G01X30215Y482D01*
G01X30177Y514D01*
G01X30142Y548D01*
G01X30108Y583D01*
G01X30076Y620D01*
G01X30046Y658D01*
G01X30017Y698D01*
G01X29991Y739D01*
G01X29966Y782D01*
G01X29944Y825D01*
G01X30416Y825D01*
G01X30416Y370D01*
G01X30417Y356D01*
G01X30420Y342D01*
G01X30425Y328D01*
G01X30432Y315D01*
G01X30441Y304D01*
G01X30451Y294D01*
G01X30463Y285D01*
G01X30475Y278D01*
G01X30489Y273D01*
G01X30503Y270D01*
G01X30518Y269D01*
G01X31203Y269D01*
G01X31218Y270D01*
G01X31232Y273D01*
G01X31246Y278D01*
G01X31258Y285D01*
G01X31270Y294D01*
G01X31280Y304D01*
G01X31289Y315D01*
G01X31296Y328D01*
G01X31301Y342D01*
G01X31304Y356D01*
G01X31305Y370D01*
G01X31305Y825D01*
G01X31633Y825D01*
G01X31647Y826D01*
G01X31661Y829D01*
G01X31675Y834D01*
G01X31688Y841D01*
G01X31699Y850D01*
G01X31709Y860D01*
G01X31718Y872D01*
G01X31725Y884D01*
G01X31730Y898D01*
G01X31733Y912D01*
G01X31734Y927D01*
G01X31734Y1612D01*
G01X31733Y1627D01*
G01X31730Y1641D01*
G01X31725Y1655D01*
G01X31718Y1667D01*
G01X31709Y1679D01*
G01X31699Y1689D01*
G01X31688Y1698D01*
G01X31675Y1705D01*
G01X31661Y1710D01*
G01X31647Y1713D01*
G01X31633Y1714D01*
G01X31305Y1714D01*
G01X31305Y2186D01*
G01X31352Y2162D01*
G01X31397Y2135D01*
G01X31441Y2107D01*
G01X31483Y2076D01*
G01X31524Y2043D01*
G01X31563Y2007D01*
G01X31575Y1998D01*
G01X31588Y1990D01*
G01X31602Y1984D01*
G01X31617Y1981D01*
G01X31633Y1979D01*
G01X31647Y1980D01*
G01X31661Y1983D01*
G01X31675Y1989D01*
G01X31688Y1995D01*
G01X31699Y2004D01*
G01X31709Y2014D01*
G01X31718Y2026D01*
G01X31725Y2039D01*
G01X31730Y2052D01*
G01X31733Y2067D01*
G01X31734Y2081D01*
G01X31734Y2998D01*
G01X31733Y3012D01*
G01X31730Y3027D01*
G01X31725Y3040D01*
G01X31718Y3053D01*
G01X31709Y3065D01*
G01X31699Y3075D01*
G01X31688Y3084D01*
G01X31675Y3090D01*
G01X31661Y3096D01*
G01X31647Y3099D01*
G37*

%LPC*%
G36*
G01X30416Y1714D02*
G01X30416Y2186D01*
G01X30373Y2164D01*
G01X30331Y2139D01*
G01X30290Y2113D01*
G01X30250Y2085D01*
G01X30212Y2055D01*
G01X30175Y2023D01*
G01X30140Y1990D01*
G01X30107Y1955D01*
G01X30075Y1918D01*
G01X30045Y1880D01*
G01X30017Y1840D01*
G01X29991Y1799D01*
G01X29966Y1757D01*
G01X29944Y1714D01*
G01X30416Y1714D01*
G37*

%LPD*%
G36*
G01X11339Y5993D02*
G01X9714Y5993D01*
G01X9698Y5992D01*
G01X9683Y5988D01*
G01X9668Y5982D01*
G01X9655Y5974D01*
G01X9642Y5963D01*
G01X8643Y4964D01*
G01X8633Y4952D01*
G01X8625Y4938D01*
G01X8619Y4924D01*
G01X8615Y4908D01*
G01X8614Y4892D01*
G01X8614Y3258D01*
G01X8615Y3244D01*
G01X8618Y3229D01*
G01X8623Y3216D01*
G01X8630Y3203D01*
G01X8639Y3191D01*
G01X8649Y3181D01*
G01X8661Y3172D01*
G01X8694Y3150D01*
G01X8727Y3126D01*
G01X8758Y3100D01*
G01X8787Y3073D01*
G01X8815Y3044D01*
G01X8841Y3014D01*
G01X8866Y2982D01*
G01X8889Y2949D01*
G01X8910Y2915D01*
G01X8930Y2880D01*
G01X8947Y2844D01*
G01X8963Y2807D01*
G01X8977Y2769D01*
G01X8988Y2731D01*
G01X8998Y2692D01*
G01X9005Y2652D01*
G01X9010Y2612D01*
G01X9014Y2572D01*
G01X9015Y2532D01*
G01X9015Y1532D01*
G01X9013Y1490D01*
G01X9010Y1448D01*
G01X9004Y1407D01*
G01X8996Y1366D01*
G01X8986Y1325D01*
G01X8973Y1285D01*
G01X8958Y1246D01*
G01X8941Y1207D01*
G01X8922Y1170D01*
G01X8901Y1134D01*
G01X8878Y1099D01*
G01X8853Y1065D01*
G01X8826Y1033D01*
G01X8818Y1021D01*
G01X8811Y1008D01*
G01X8805Y995D01*
G01X8802Y980D01*
G01X8801Y966D01*
G01X8802Y951D01*
G01X8805Y937D01*
G01X8810Y923D01*
G01X8817Y911D01*
G01X8826Y899D01*
G01X8836Y889D01*
G01X8848Y880D01*
G01X8861Y873D01*
G01X8874Y868D01*
G01X8888Y865D01*
G01X8903Y864D01*
G01X9614Y864D01*
G01X9628Y865D01*
G01X9642Y868D01*
G01X9656Y873D01*
G01X9669Y880D01*
G01X9680Y889D01*
G01X9690Y899D01*
G01X9699Y911D01*
G01X9706Y923D01*
G01X9711Y937D01*
G01X9714Y951D01*
G01X9715Y966D01*
G01X9714Y980D01*
G01X9711Y995D01*
G01X9706Y1008D01*
G01X9699Y1021D01*
G01X9690Y1033D01*
G01X9663Y1065D01*
G01X9638Y1099D01*
G01X9615Y1134D01*
G01X9594Y1170D01*
G01X9575Y1207D01*
G01X9558Y1246D01*
G01X9543Y1285D01*
G01X9530Y1325D01*
G01X9520Y1366D01*
G01X9512Y1407D01*
G01X9506Y1448D01*
G01X9503Y1490D01*
G01X9502Y1532D01*
G01X9502Y2532D01*
G01X9503Y2572D01*
G01X9506Y2611D01*
G01X9511Y2651D01*
G01X9518Y2690D01*
G01X9527Y2728D01*
G01X9539Y2766D01*
G01X9552Y2803D01*
G01X9567Y2840D01*
G01X9584Y2876D01*
G01X9603Y2911D01*
G01X9624Y2944D01*
G01X9646Y2977D01*
G01X9670Y3008D01*
G01X9696Y3038D01*
G01X9723Y3067D01*
G01X9752Y3094D01*
G01X9782Y3120D01*
G01X9813Y3144D01*
G01X9846Y3167D01*
G01X9880Y3187D01*
G01X9915Y3206D01*
G01X9950Y3223D01*
G01X9987Y3239D01*
G01X10024Y3252D01*
G01X10062Y3263D01*
G01X10101Y3272D01*
G01X10140Y3279D01*
G01X10179Y3285D01*
G01X10218Y3288D01*
G01X10258Y3289D01*
G01X10304Y3287D01*
G01X10349Y3283D01*
G01X10394Y3276D01*
G01X10439Y3267D01*
G01X10463Y3264D01*
G01X10478Y3265D01*
G01X10492Y3268D01*
G01X10506Y3273D01*
G01X10518Y3280D01*
G01X10530Y3289D01*
G01X10540Y3299D01*
G01X10549Y3311D01*
G01X10556Y3323D01*
G01X10561Y3337D01*
G01X10564Y3351D01*
G01X10565Y3365D01*
G01X10565Y4826D01*
G01X10566Y4853D01*
G01X10569Y4881D01*
G01X10575Y4909D01*
G01X10582Y4936D01*
G01X10592Y4962D01*
G01X10604Y4987D01*
G01X10617Y5012D01*
G01X10633Y5035D01*
G01X10650Y5057D01*
G01X10669Y5078D01*
G01X11411Y5820D01*
G01X11422Y5832D01*
G01X11430Y5845D01*
G01X11436Y5860D01*
G01X11440Y5875D01*
G01X11441Y5891D01*
G01X11440Y5906D01*
G01X11437Y5920D01*
G01X11432Y5934D01*
G01X11425Y5946D01*
G01X11416Y5958D01*
G01X11406Y5968D01*
G01X11394Y5977D01*
G01X11382Y5984D01*
G01X11368Y5989D01*
G01X11354Y5992D01*
G01X11339Y5993D01*
G37*

%LPD*%
G36*
G01X24829Y5993D02*
G01X23712Y5993D01*
G01X23697Y5992D01*
G01X23683Y5989D01*
G01X23669Y5984D01*
G01X23657Y5977D01*
G01X23645Y5968D01*
G01X23635Y5958D01*
G01X23626Y5946D01*
G01X23619Y5934D01*
G01X23614Y5920D01*
G01X23611Y5906D01*
G01X23610Y5891D01*
G01X23611Y5875D01*
G01X23615Y5860D01*
G01X23621Y5845D01*
G01X23629Y5832D01*
G01X23640Y5820D01*
G01X26533Y2926D01*
G01X26546Y2915D01*
G01X26559Y2907D01*
G01X26574Y2901D01*
G01X26589Y2897D01*
G01X26605Y2896D01*
G01X27613Y2896D01*
G01X27628Y2897D01*
G01X27642Y2900D01*
G01X27656Y2905D01*
G01X27668Y2912D01*
G01X27680Y2921D01*
G01X27690Y2931D01*
G01X27699Y2943D01*
G01X27706Y2955D01*
G01X27711Y2969D01*
G01X27714Y2983D01*
G01X27715Y2998D01*
G01X27713Y3015D01*
G01X27709Y3033D01*
G01X27701Y3049D01*
G01X27691Y3063D01*
G01X27656Y3107D01*
G01X27623Y3152D01*
G01X27593Y3199D01*
G01X27564Y3247D01*
G01X27538Y3296D01*
G01X28061Y3296D01*
G01X28061Y2998D01*
G01X28062Y2983D01*
G01X28065Y2969D01*
G01X28070Y2955D01*
G01X28077Y2943D01*
G01X28086Y2931D01*
G01X28096Y2921D01*
G01X28108Y2912D01*
G01X28120Y2905D01*
G01X28134Y2900D01*
G01X28148Y2897D01*
G01X28163Y2896D01*
G01X28986Y2896D01*
G01X29001Y2897D01*
G01X29015Y2900D01*
G01X29029Y2905D01*
G01X29041Y2912D01*
G01X29053Y2921D01*
G01X29063Y2931D01*
G01X29072Y2943D01*
G01X29079Y2955D01*
G01X29084Y2969D01*
G01X29087Y2983D01*
G01X29088Y2998D01*
G01X29088Y3296D01*
G01X29648Y3296D01*
G01X29655Y3283D01*
G01X29664Y3272D01*
G01X29674Y3261D01*
G01X29686Y3252D01*
G01X29698Y3245D01*
G01X29712Y3240D01*
G01X29726Y3237D01*
G01X29741Y3236D01*
G01X29757Y3237D01*
G01X29772Y3241D01*
G01X29787Y3247D01*
G01X29801Y3256D01*
G01X29813Y3266D01*
G01X29886Y3339D01*
G01X29896Y3351D01*
G01X29904Y3365D01*
G01X29910Y3379D01*
G01X29914Y3395D01*
G01X29915Y3411D01*
G01X29914Y3429D01*
G01X29909Y3447D01*
G01X29886Y3512D01*
G01X29873Y3560D01*
G01X29862Y3609D01*
G01X29853Y3659D01*
G01X29847Y3709D01*
G01X29843Y3759D01*
G01X29842Y3810D01*
G01X29843Y3860D01*
G01X29847Y3910D01*
G01X29853Y3960D01*
G01X29862Y4010D01*
G01X29873Y4059D01*
G01X29886Y4107D01*
G01X29901Y4152D01*
G01X29918Y4197D01*
G01X29938Y4240D01*
G01X29959Y4283D01*
G01X29982Y4325D01*
G01X30007Y4365D01*
G01X30034Y4404D01*
G01X30062Y4442D01*
G01X30093Y4479D01*
G01X30125Y4514D01*
G01X30159Y4548D01*
G01X30170Y4560D01*
G01X30179Y4574D01*
G01X30185Y4589D01*
G01X30189Y4605D01*
G01X30190Y4621D01*
G01X30189Y4636D01*
G01X30186Y4650D01*
G01X30181Y4664D01*
G01X30174Y4676D01*
G01X30166Y4688D01*
G01X30155Y4698D01*
G01X30144Y4707D01*
G01X30131Y4714D01*
G01X30117Y4719D01*
G01X30103Y4722D01*
G01X30089Y4723D01*
G01X29536Y4723D01*
G01X29521Y4722D01*
G01X29507Y4719D01*
G01X29493Y4714D01*
G01X29481Y4707D01*
G01X29469Y4698D01*
G01X29459Y4688D01*
G01X29450Y4676D01*
G01X29443Y4664D01*
G01X29438Y4650D01*
G01X29435Y4636D01*
G01X29434Y4621D01*
G01X29436Y4604D01*
G01X29440Y4586D01*
G01X29448Y4570D01*
G01X29458Y4556D01*
G01X29493Y4512D01*
G01X29526Y4467D01*
G01X29556Y4420D01*
G01X29585Y4372D01*
G01X29611Y4323D01*
G01X29088Y4323D01*
G01X29088Y4621D01*
G01X29087Y4636D01*
G01X29084Y4650D01*
G01X29079Y4664D01*
G01X29072Y4676D01*
G01X29063Y4688D01*
G01X29053Y4698D01*
G01X29041Y4707D01*
G01X29029Y4714D01*
G01X29015Y4719D01*
G01X29001Y4722D01*
G01X28986Y4723D01*
G01X28163Y4723D01*
G01X28148Y4722D01*
G01X28134Y4719D01*
G01X28120Y4714D01*
G01X28108Y4707D01*
G01X28096Y4698D01*
G01X28086Y4688D01*
G01X28077Y4676D01*
G01X28070Y4664D01*
G01X28065Y4650D01*
G01X28062Y4636D01*
G01X28061Y4621D01*
G01X28061Y4323D01*
G01X27538Y4323D01*
G01X27564Y4372D01*
G01X27593Y4420D01*
G01X27623Y4467D01*
G01X27656Y4512D01*
G01X27691Y4556D01*
G01X27701Y4570D01*
G01X27709Y4586D01*
G01X27713Y4604D01*
G01X27715Y4621D01*
G01X27714Y4636D01*
G01X27711Y4650D01*
G01X27706Y4664D01*
G01X27699Y4676D01*
G01X27690Y4688D01*
G01X27680Y4698D01*
G01X27668Y4707D01*
G01X27656Y4714D01*
G01X27642Y4719D01*
G01X27628Y4722D01*
G01X27613Y4723D01*
G01X26289Y4723D01*
G01X26261Y4724D01*
G01X26233Y4727D01*
G01X26205Y4733D01*
G01X26178Y4740D01*
G01X26152Y4750D01*
G01X26127Y4762D01*
G01X26102Y4775D01*
G01X26079Y4791D01*
G01X26057Y4808D01*
G01X26036Y4827D01*
G01X24901Y5963D01*
G01X24888Y5974D01*
G01X24875Y5982D01*
G01X24860Y5988D01*
G01X24845Y5992D01*
G01X24829Y5993D01*
G37*

%LPD*%
G36*
G01X28503Y19542D02*
G01X7103Y19542D01*
G01X7088Y19541D01*
G01X7074Y19538D01*
G01X7060Y19533D01*
G01X7048Y19526D01*
G01X7036Y19517D01*
G01X7026Y19507D01*
G01X7017Y19496D01*
G01X7010Y19483D01*
G01X7005Y19469D01*
G01X7002Y19455D01*
G01X7001Y19441D01*
G01X7001Y19440D01*
G01X7143Y5352D01*
G01X7145Y5338D01*
G01X7148Y5323D01*
G01X7153Y5310D01*
G01X7160Y5297D01*
G01X7169Y5286D01*
G01X7179Y5276D01*
G01X7190Y5267D01*
G01X7203Y5260D01*
G01X7217Y5255D01*
G01X7231Y5252D01*
G01X7245Y5251D01*
G01X7261Y5253D01*
G01X7276Y5256D01*
G01X7291Y5262D01*
G01X7305Y5271D01*
G01X7317Y5281D01*
G01X9780Y7745D01*
G01X11868Y9833D01*
G01X11879Y9845D01*
G01X11887Y9858D01*
G01X11893Y9873D01*
G01X11897Y9889D01*
G01X11898Y9905D01*
G01X11898Y16809D01*
G01X11897Y16823D01*
G01X11894Y16838D01*
G01X11889Y16851D01*
G01X11882Y16864D01*
G01X11873Y16876D01*
G01X11863Y16886D01*
G01X11851Y16895D01*
G01X11818Y16917D01*
G01X11785Y16941D01*
G01X11755Y16967D01*
G01X11725Y16994D01*
G01X11697Y17023D01*
G01X11671Y17053D01*
G01X11646Y17085D01*
G01X11623Y17118D01*
G01X11602Y17152D01*
G01X11583Y17187D01*
G01X11565Y17223D01*
G01X11550Y17260D01*
G01X11536Y17298D01*
G01X11525Y17336D01*
G01X11515Y17375D01*
G01X11508Y17414D01*
G01X11502Y17454D01*
G01X11499Y17494D01*
G01X11498Y17534D01*
G01X11498Y18534D01*
G01X11499Y18574D01*
G01X11502Y18613D01*
G01X11508Y18653D01*
G01X11515Y18692D01*
G01X11524Y18730D01*
G01X11535Y18768D01*
G01X11548Y18805D01*
G01X11564Y18842D01*
G01X11581Y18878D01*
G01X11600Y18913D01*
G01X11620Y18946D01*
G01X11643Y18979D01*
G01X11667Y19010D01*
G01X11693Y19040D01*
G01X11720Y19069D01*
G01X11749Y19096D01*
G01X11779Y19122D01*
G01X11810Y19146D01*
G01X11843Y19169D01*
G01X11876Y19189D01*
G01X11911Y19208D01*
G01X11947Y19225D01*
G01X11984Y19241D01*
G01X12021Y19254D01*
G01X12059Y19265D01*
G01X12097Y19274D01*
G01X12136Y19281D01*
G01X12176Y19287D01*
G01X12215Y19290D01*
G01X12255Y19291D01*
G01X12294Y19290D01*
G01X12334Y19287D01*
G01X12373Y19281D01*
G01X12412Y19274D01*
G01X12451Y19265D01*
G01X12489Y19254D01*
G01X12526Y19241D01*
G01X12562Y19225D01*
G01X12598Y19208D01*
G01X12633Y19189D01*
G01X12667Y19169D01*
G01X12699Y19146D01*
G01X12731Y19122D01*
G01X12761Y19096D01*
G01X12790Y19069D01*
G01X12817Y19040D01*
G01X12843Y19010D01*
G01X12867Y18979D01*
G01X12889Y18946D01*
G01X12910Y18913D01*
G01X12929Y18878D01*
G01X12946Y18842D01*
G01X12961Y18805D01*
G01X12974Y18768D01*
G01X12986Y18730D01*
G01X12995Y18692D01*
G01X13002Y18653D01*
G01X13007Y18613D01*
G01X13010Y18574D01*
G01X13011Y18534D01*
G01X13011Y17534D01*
G01X13010Y17494D01*
G01X13007Y17454D01*
G01X13002Y17414D01*
G01X12994Y17375D01*
G01X12985Y17336D01*
G01X12973Y17298D01*
G01X12960Y17260D01*
G01X12944Y17223D01*
G01X12927Y17187D01*
G01X12907Y17152D01*
G01X12886Y17118D01*
G01X12863Y17085D01*
G01X12839Y17053D01*
G01X12812Y17023D01*
G01X12784Y16994D01*
G01X12755Y16967D01*
G01X12724Y16941D01*
G01X12692Y16917D01*
G01X12659Y16895D01*
G01X12647Y16886D01*
G01X12636Y16876D01*
G01X12628Y16864D01*
G01X12621Y16851D01*
G01X12615Y16838D01*
G01X12612Y16823D01*
G01X12611Y16809D01*
G01X12611Y9715D01*
G01X12610Y9687D01*
G01X12607Y9659D01*
G01X12601Y9632D01*
G01X12594Y9605D01*
G01X12584Y9578D01*
G01X12572Y9553D01*
G01X12559Y9528D01*
G01X12543Y9505D01*
G01X12526Y9483D01*
G01X12507Y9463D01*
G01X10285Y7240D01*
G01X9924Y6879D01*
G01X9913Y6867D01*
G01X9905Y6854D01*
G01X9899Y6839D01*
G01X9895Y6824D01*
G01X9894Y6808D01*
G01X9895Y6793D01*
G01X9898Y6779D01*
G01X9903Y6765D01*
G01X9910Y6753D01*
G01X9919Y6741D01*
G01X9929Y6731D01*
G01X9941Y6722D01*
G01X9953Y6715D01*
G01X9967Y6710D01*
G01X9981Y6707D01*
G01X9996Y6706D01*
G01X24875Y6706D01*
G01X24889Y6707D01*
G01X24903Y6710D01*
G01X24917Y6715D01*
G01X24929Y6722D01*
G01X24941Y6731D01*
G01X24951Y6741D01*
G01X24960Y6753D01*
G01X24967Y6765D01*
G01X24972Y6779D01*
G01X24975Y6793D01*
G01X24976Y6808D01*
G01X24975Y6823D01*
G01X24971Y6839D01*
G01X24965Y6853D01*
G01X24957Y6867D01*
G01X24932Y6904D01*
G01X24909Y6941D01*
G01X24888Y6981D01*
G01X24869Y7021D01*
G01X24853Y7062D01*
G01X24838Y7104D01*
G01X24826Y7146D01*
G01X24815Y7189D01*
G01X24807Y7233D01*
G01X24802Y7277D01*
G01X24798Y7321D01*
G01X24797Y7365D01*
G01X24798Y7408D01*
G01X24801Y7449D01*
G01X24806Y7491D01*
G01X24813Y7533D01*
G01X24823Y7574D01*
G01X24834Y7614D01*
G01X24847Y7654D01*
G01X24862Y7693D01*
G01X24879Y7732D01*
G01X24898Y7769D01*
G01X24919Y7806D01*
G01X24941Y7841D01*
G01X24966Y7876D01*
G01X24991Y7909D01*
G01X25019Y7941D01*
G01X25048Y7971D01*
G01X25078Y8000D01*
G01X25110Y8028D01*
G01X25143Y8053D01*
G01X25178Y8078D01*
G01X25213Y8100D01*
G01X25250Y8121D01*
G01X25287Y8140D01*
G01X25326Y8157D01*
G01X25365Y8172D01*
G01X25405Y8185D01*
G01X25445Y8196D01*
G01X25486Y8206D01*
G01X25528Y8213D01*
G01X25570Y8218D01*
G01X25611Y8221D01*
G01X25654Y8222D01*
G01X25696Y8221D01*
G01X25737Y8218D01*
G01X25779Y8213D01*
G01X25821Y8206D01*
G01X25862Y8196D01*
G01X25902Y8185D01*
G01X25942Y8172D01*
G01X25981Y8157D01*
G01X26020Y8140D01*
G01X26057Y8121D01*
G01X26094Y8100D01*
G01X26129Y8078D01*
G01X26164Y8053D01*
G01X26197Y8028D01*
G01X26229Y8000D01*
G01X26259Y7971D01*
G01X26288Y7941D01*
G01X26316Y7909D01*
G01X26341Y7876D01*
G01X26366Y7841D01*
G01X26388Y7806D01*
G01X26409Y7769D01*
G01X26428Y7732D01*
G01X26445Y7693D01*
G01X26460Y7654D01*
G01X26473Y7614D01*
G01X26484Y7574D01*
G01X26494Y7533D01*
G01X26501Y7491D01*
G01X26506Y7449D01*
G01X26509Y7408D01*
G01X26510Y7366D01*
G01X26509Y7323D01*
G01X26506Y7282D01*
G01X26501Y7240D01*
G01X26494Y7198D01*
G01X26484Y7157D01*
G01X26473Y7117D01*
G01X26460Y7077D01*
G01X26445Y7038D01*
G01X26428Y6999D01*
G01X26409Y6962D01*
G01X26388Y6925D01*
G01X26366Y6890D01*
G01X26341Y6855D01*
G01X26316Y6822D01*
G01X26288Y6790D01*
G01X26259Y6760D01*
G01X26229Y6731D01*
G01X26197Y6703D01*
G01X26164Y6678D01*
G01X26129Y6653D01*
G01X26094Y6631D01*
G01X26057Y6610D01*
G01X26020Y6591D01*
G01X25981Y6574D01*
G01X25942Y6559D01*
G01X25902Y6546D01*
G01X25862Y6535D01*
G01X25821Y6525D01*
G01X25779Y6518D01*
G01X25737Y6513D01*
G01X25696Y6510D01*
G01X25654Y6509D01*
G01X25612Y6510D01*
G01X25607Y6510D01*
G01X25593Y6509D01*
G01X25579Y6506D01*
G01X25565Y6501D01*
G01X25553Y6494D01*
G01X25541Y6485D01*
G01X25531Y6475D01*
G01X25522Y6463D01*
G01X25515Y6451D01*
G01X25510Y6437D01*
G01X25507Y6423D01*
G01X25506Y6408D01*
G01X25507Y6393D01*
G01X25511Y6377D01*
G01X25517Y6362D01*
G01X25525Y6349D01*
G01X25536Y6337D01*
G01X26406Y5466D01*
G01X26419Y5455D01*
G01X26432Y5447D01*
G01X26447Y5441D01*
G01X26462Y5437D01*
G01X26478Y5436D01*
G01X27613Y5436D01*
G01X27628Y5437D01*
G01X27642Y5440D01*
G01X27656Y5445D01*
G01X27668Y5452D01*
G01X27680Y5461D01*
G01X27690Y5471D01*
G01X27699Y5483D01*
G01X27706Y5495D01*
G01X27711Y5509D01*
G01X27714Y5523D01*
G01X27715Y5538D01*
G01X27713Y5555D01*
G01X27709Y5573D01*
G01X27701Y5589D01*
G01X27691Y5603D01*
G01X27659Y5643D01*
G01X27629Y5683D01*
G01X27601Y5726D01*
G01X27574Y5769D01*
G01X27550Y5813D01*
G01X27527Y5859D01*
G01X27507Y5905D01*
G01X27488Y5952D01*
G01X27472Y6000D01*
G01X27458Y6049D01*
G01X27446Y6098D01*
G01X27436Y6148D01*
G01X27428Y6198D01*
G01X27422Y6248D01*
G01X27419Y6299D01*
G01X27418Y6350D01*
G01X27419Y6399D01*
G01X27422Y6448D01*
G01X27427Y6496D01*
G01X27435Y6545D01*
G01X27444Y6593D01*
G01X27455Y6641D01*
G01X27469Y6688D01*
G01X27484Y6735D01*
G01X27501Y6781D01*
G01X27521Y6826D01*
G01X27542Y6870D01*
G01X27565Y6914D01*
G01X27590Y6956D01*
G01X27616Y6997D01*
G01X27645Y7037D01*
G01X27675Y7076D01*
G01X27706Y7114D01*
G01X27740Y7150D01*
G01X27774Y7184D01*
G01X27810Y7218D01*
G01X27848Y7249D01*
G01X27887Y7279D01*
G01X27927Y7308D01*
G01X27968Y7334D01*
G01X28010Y7359D01*
G01X28054Y7382D01*
G01X28098Y7403D01*
G01X28143Y7423D01*
G01X28189Y7440D01*
G01X28236Y7455D01*
G01X28283Y7469D01*
G01X28331Y7480D01*
G01X28379Y7489D01*
G01X28428Y7497D01*
G01X28476Y7502D01*
G01X28525Y7505D01*
G01X28575Y7506D01*
G01X28623Y7505D01*
G01X28672Y7502D01*
G01X28720Y7497D01*
G01X28769Y7490D01*
G01X28817Y7480D01*
G01X28864Y7469D01*
G01X28911Y7456D01*
G01X28957Y7441D01*
G01X29003Y7424D01*
G01X29048Y7405D01*
G01X29092Y7384D01*
G01X29135Y7361D01*
G01X29177Y7336D01*
G01X29218Y7310D01*
G01X29258Y7282D01*
G01X29297Y7253D01*
G01X29335Y7221D01*
G01X29371Y7188D01*
G01X29405Y7154D01*
G01X29438Y7118D01*
G01X29470Y7081D01*
G01X29500Y7043D01*
G01X29529Y7003D01*
G01X29555Y6962D01*
G01X29580Y6920D01*
G01X29603Y6878D01*
G01X29625Y6834D01*
G01X29644Y6789D01*
G01X29662Y6744D01*
G01X29678Y6697D01*
G01X29691Y6650D01*
G01X29696Y6637D01*
G01X29703Y6623D01*
G01X29712Y6612D01*
G01X29722Y6601D01*
G01X29734Y6592D01*
G01X29746Y6585D01*
G01X29760Y6580D01*
G01X29775Y6576D01*
G01X29789Y6575D01*
G01X29804Y6576D01*
G01X29818Y6579D01*
G01X29831Y6584D01*
G01X29844Y6591D01*
G01X29855Y6600D01*
G01X29866Y6610D01*
G01X29874Y6621D01*
G01X29881Y6634D01*
G01X29886Y6647D01*
G01X29901Y6691D01*
G01X29918Y6735D01*
G01X29936Y6777D01*
G01X29956Y6819D01*
G01X29979Y6859D01*
G01X30003Y6899D01*
G01X30029Y6937D01*
G01X30056Y6975D01*
G01X30116Y7045D01*
G01X30149Y7078D01*
G01X30183Y7110D01*
G01X30218Y7140D01*
G01X30255Y7168D01*
G01X30292Y7195D01*
G01X30332Y7220D01*
G01X30372Y7243D01*
G01X30413Y7264D01*
G01X30455Y7284D01*
G01X30498Y7301D01*
G01X30542Y7317D01*
G01X30586Y7330D01*
G01X30631Y7342D01*
G01X30676Y7351D01*
G01X30722Y7359D01*
G01X30768Y7364D01*
G01X30814Y7367D01*
G01X30861Y7368D01*
G01X30906Y7367D01*
G01X30952Y7364D01*
G01X30997Y7359D01*
G01X31042Y7352D01*
G01X31086Y7343D01*
G01X31131Y7332D01*
G01X31174Y7318D01*
G01X31217Y7303D01*
G01X31260Y7287D01*
G01X31301Y7268D01*
G01X31342Y7247D01*
G01X31381Y7225D01*
G01X31420Y7201D01*
G01X31458Y7175D01*
G01X31494Y7147D01*
G01X31529Y7118D01*
G01X31563Y7087D01*
G01X31575Y7078D01*
G01X31588Y7070D01*
G01X31602Y7064D01*
G01X31617Y7061D01*
G01X31633Y7059D01*
G01X31647Y7060D01*
G01X31661Y7063D01*
G01X31675Y7069D01*
G01X31688Y7075D01*
G01X31699Y7084D01*
G01X31709Y7094D01*
G01X31718Y7106D01*
G01X31725Y7119D01*
G01X31730Y7132D01*
G01X31733Y7147D01*
G01X31734Y7161D01*
G01X31734Y8078D01*
G01X31733Y8092D01*
G01X31730Y8107D01*
G01X31725Y8120D01*
G01X31718Y8133D01*
G01X31709Y8145D01*
G01X31699Y8155D01*
G01X31688Y8164D01*
G01X31675Y8170D01*
G01X31661Y8176D01*
G01X31647Y8179D01*
G01X31633Y8180D01*
G01X31617Y8178D01*
G01X31602Y8175D01*
G01X31588Y8169D01*
G01X31575Y8161D01*
G01X31563Y8152D01*
G01X31529Y8121D01*
G01X31494Y8092D01*
G01X31458Y8064D01*
G01X31420Y8038D01*
G01X31381Y8014D01*
G01X31342Y7992D01*
G01X31301Y7971D01*
G01X31260Y7952D01*
G01X31217Y7936D01*
G01X31174Y7921D01*
G01X31131Y7907D01*
G01X31086Y7896D01*
G01X31042Y7887D01*
G01X30997Y7880D01*
G01X30952Y7875D01*
G01X30906Y7872D01*
G01X30861Y7871D01*
G01X30815Y7872D01*
G01X30769Y7875D01*
G01X30724Y7880D01*
G01X30679Y7887D01*
G01X30634Y7896D01*
G01X30590Y7908D01*
G01X30546Y7921D01*
G01X30503Y7936D01*
G01X30460Y7953D01*
G01X30419Y7972D01*
G01X30378Y7993D01*
G01X30338Y8015D01*
G01X30299Y8039D01*
G01X30262Y8065D01*
G01X30225Y8093D01*
G01X30190Y8122D01*
G01X30157Y8153D01*
G01X30124Y8186D01*
G01X30093Y8219D01*
G01X30064Y8254D01*
G01X30036Y8291D01*
G01X30010Y8328D01*
G01X29986Y8367D01*
G01X29964Y8407D01*
G01X29943Y8448D01*
G01X29924Y8489D01*
G01X29907Y8532D01*
G01X29892Y8575D01*
G01X29879Y8619D01*
G01X29867Y8663D01*
G01X29858Y8708D01*
G01X29851Y8753D01*
G01X29846Y8798D01*
G01X29843Y8844D01*
G01X29842Y8890D01*
G01X29843Y8935D01*
G01X29846Y8981D01*
G01X29851Y9026D01*
G01X29858Y9071D01*
G01X29867Y9116D01*
G01X29879Y9160D01*
G01X29892Y9204D01*
G01X29907Y9247D01*
G01X29924Y9290D01*
G01X29943Y9331D01*
G01X29964Y9372D01*
G01X29986Y9412D01*
G01X30010Y9451D01*
G01X30036Y9488D01*
G01X30064Y9525D01*
G01X30093Y9560D01*
G01X30124Y9593D01*
G01X30157Y9626D01*
G01X30190Y9657D01*
G01X30225Y9686D01*
G01X30262Y9714D01*
G01X30299Y9740D01*
G01X30338Y9764D01*
G01X30378Y9786D01*
G01X30419Y9807D01*
G01X30460Y9826D01*
G01X30503Y9843D01*
G01X30546Y9858D01*
G01X30590Y9871D01*
G01X30634Y9883D01*
G01X30679Y9892D01*
G01X30724Y9899D01*
G01X30769Y9904D01*
G01X30815Y9907D01*
G01X30861Y9908D01*
G01X30914Y9907D01*
G01X30968Y9902D01*
G01X31021Y9895D01*
G01X31037Y9894D01*
G01X31052Y9895D01*
G01X31066Y9898D01*
G01X31080Y9903D01*
G01X31092Y9910D01*
G01X31104Y9919D01*
G01X31114Y9929D01*
G01X31123Y9941D01*
G01X31130Y9953D01*
G01X31135Y9967D01*
G01X31138Y9981D01*
G01X31139Y9996D01*
G01X31139Y11021D01*
G01X31138Y11036D01*
G01X31135Y11050D01*
G01X31130Y11064D01*
G01X31123Y11076D01*
G01X31114Y11088D01*
G01X31104Y11098D01*
G01X31092Y11107D01*
G01X31080Y11114D01*
G01X31066Y11119D01*
G01X31052Y11122D01*
G01X31037Y11123D01*
G01X31022Y11122D01*
G01X31006Y11118D01*
G01X30992Y11112D01*
G01X30978Y11104D01*
G01X30966Y11094D01*
G01X30956Y11082D01*
G01X30928Y11046D01*
G01X30899Y11013D01*
G01X30868Y10980D01*
G01X30836Y10949D01*
G01X30803Y10920D01*
G01X30767Y10893D01*
G01X30731Y10867D01*
G01X30693Y10843D01*
G01X30655Y10821D01*
G01X30615Y10801D01*
G01X30574Y10783D01*
G01X30532Y10767D01*
G01X30490Y10753D01*
G01X30447Y10741D01*
G01X30403Y10731D01*
G01X30360Y10723D01*
G01X30315Y10718D01*
G01X30271Y10715D01*
G01X30226Y10713D01*
G01X29326Y10713D01*
G01X29283Y10714D01*
G01X29240Y10718D01*
G01X29197Y10723D01*
G01X29155Y10730D01*
G01X29112Y10739D01*
G01X29071Y10750D01*
G01X29030Y10763D01*
G01X28989Y10778D01*
G01X28950Y10795D01*
G01X28911Y10814D01*
G01X28873Y10835D01*
G01X28836Y10857D01*
G01X28800Y10882D01*
G01X28766Y10907D01*
G01X28733Y10935D01*
G01X28701Y10964D01*
G01X28670Y10994D01*
G01X28641Y11026D01*
G01X28614Y11060D01*
G01X28588Y11094D01*
G01X28564Y11130D01*
G01X28541Y11167D01*
G01X28520Y11205D01*
G01X28502Y11243D01*
G01X28485Y11283D01*
G01X28469Y11324D01*
G01X28456Y11365D01*
G01X28445Y11406D01*
G01X28436Y11448D01*
G01X28429Y11491D01*
G01X28424Y11534D01*
G01X28421Y11577D01*
G01X28420Y11620D01*
G01X28421Y11663D01*
G01X28424Y11706D01*
G01X28429Y11749D01*
G01X28436Y11792D01*
G01X28445Y11834D01*
G01X28456Y11875D01*
G01X28469Y11916D01*
G01X28485Y11957D01*
G01X28502Y11997D01*
G01X28520Y12035D01*
G01X28541Y12073D01*
G01X28564Y12110D01*
G01X28588Y12146D01*
G01X28614Y12180D01*
G01X28641Y12214D01*
G01X28670Y12246D01*
G01X28701Y12276D01*
G01X28733Y12305D01*
G01X28766Y12333D01*
G01X28800Y12358D01*
G01X28836Y12383D01*
G01X28873Y12405D01*
G01X28911Y12426D01*
G01X28950Y12445D01*
G01X28989Y12462D01*
G01X29030Y12477D01*
G01X29071Y12490D01*
G01X29112Y12501D01*
G01X29155Y12510D01*
G01X29197Y12517D01*
G01X29240Y12522D01*
G01X29283Y12526D01*
G01X29326Y12527D01*
G01X29718Y12527D01*
G01X29732Y12528D01*
G01X29746Y12531D01*
G01X29760Y12536D01*
G01X29772Y12543D01*
G01X29784Y12551D01*
G01X29794Y12562D01*
G01X29803Y12573D01*
G01X29810Y12586D01*
G01X29815Y12600D01*
G01X29818Y12614D01*
G01X29819Y12628D01*
G01X29818Y12644D01*
G01X29814Y12660D01*
G01X29807Y12675D01*
G01X29799Y12689D01*
G01X29785Y12709D01*
G01X29774Y12730D01*
G01X29764Y12751D01*
G01X29757Y12774D01*
G01X29751Y12797D01*
G01X29748Y12820D01*
G01X29747Y12844D01*
G01X29747Y14444D01*
G01X29748Y14468D01*
G01X29751Y14491D01*
G01X29757Y14514D01*
G01X29764Y14537D01*
G01X29774Y14558D01*
G01X29785Y14579D01*
G01X29799Y14599D01*
G01X29814Y14617D01*
G01X29831Y14634D01*
G01X29849Y14649D01*
G01X29868Y14662D01*
G01X29889Y14674D01*
G01X29911Y14683D01*
G01X29933Y14691D01*
G01X29956Y14696D01*
G01X29980Y14699D01*
G01X30004Y14701D01*
G01X31031Y14701D01*
G01X31045Y14702D01*
G01X31060Y14705D01*
G01X31073Y14710D01*
G01X31086Y14717D01*
G01X31098Y14725D01*
G01X31108Y14736D01*
G01X31116Y14747D01*
G01X31123Y14760D01*
G01X31128Y14773D01*
G01X31132Y14788D01*
G01X31133Y14802D01*
G01X31131Y14818D01*
G01X31128Y14834D01*
G01X31122Y14848D01*
G01X31113Y14862D01*
G01X31103Y14874D01*
G01X30997Y14980D01*
G01X30984Y14991D01*
G01X30971Y14999D01*
G01X30956Y15005D01*
G01X30941Y15009D01*
G01X30925Y15010D01*
G01X29718Y15010D01*
G01X29690Y15011D01*
G01X29662Y15014D01*
G01X29634Y15020D01*
G01X29607Y15027D01*
G01X29581Y15037D01*
G01X29556Y15049D01*
G01X29531Y15062D01*
G01X29508Y15078D01*
G01X29486Y15095D01*
G01X29465Y15114D01*
G01X29211Y15368D01*
G01X29192Y15389D01*
G01X29175Y15411D01*
G01X29159Y15434D01*
G01X29146Y15459D01*
G01X29134Y15484D01*
G01X29124Y15510D01*
G01X29117Y15537D01*
G01X29111Y15565D01*
G01X29108Y15593D01*
G01X29107Y15620D01*
G01X29107Y15939D01*
G01X29106Y15955D01*
G01X29102Y15970D01*
G01X29096Y15985D01*
G01X29088Y15998D01*
G01X29077Y16011D01*
G01X28924Y16164D01*
G01X28912Y16174D01*
G01X28898Y16183D01*
G01X28883Y16189D01*
G01X28868Y16192D01*
G01X28852Y16194D01*
G01X27650Y16194D01*
G01X27635Y16193D01*
G01X27621Y16189D01*
G01X27607Y16184D01*
G01X27595Y16177D01*
G01X27583Y16169D01*
G01X27573Y16159D01*
G01X27564Y16147D01*
G01X27557Y16134D01*
G01X27552Y16121D01*
G01X27549Y16106D01*
G01X27548Y16092D01*
G01X27548Y15675D01*
G01X27547Y15651D01*
G01X27544Y15627D01*
G01X27538Y15603D01*
G01X27535Y15589D01*
G01X27534Y15575D01*
G01X27535Y15561D01*
G01X27538Y15547D01*
G01X27544Y15523D01*
G01X27547Y15499D01*
G01X27548Y15475D01*
G01X27548Y15025D01*
G01X27547Y15001D01*
G01X27544Y14977D01*
G01X27538Y14953D01*
G01X27535Y14939D01*
G01X27534Y14925D01*
G01X27535Y14911D01*
G01X27538Y14897D01*
G01X27544Y14873D01*
G01X27547Y14849D01*
G01X27548Y14825D01*
G01X27548Y14375D01*
G01X27547Y14351D01*
G01X27544Y14327D01*
G01X27538Y14303D01*
G01X27535Y14289D01*
G01X27534Y14275D01*
G01X27535Y14261D01*
G01X27538Y14247D01*
G01X27544Y14223D01*
G01X27547Y14199D01*
G01X27548Y14175D01*
G01X27548Y14126D01*
G01X27365Y14126D01*
G01X27344Y14124D01*
G01X27318Y14120D01*
G01X27292Y14118D01*
G01X25292Y14118D01*
G01X25265Y14120D01*
G01X25239Y14124D01*
G01X25218Y14126D01*
G01X25035Y14126D01*
G01X25035Y14175D01*
G01X25036Y14199D01*
G01X25040Y14223D01*
G01X25045Y14247D01*
G01X25048Y14261D01*
G01X25049Y14275D01*
G01X25048Y14289D01*
G01X25045Y14303D01*
G01X25040Y14327D01*
G01X25036Y14351D01*
G01X25035Y14375D01*
G01X25035Y14825D01*
G01X25036Y14849D01*
G01X25040Y14873D01*
G01X25045Y14897D01*
G01X25048Y14911D01*
G01X25049Y14925D01*
G01X25048Y14939D01*
G01X25045Y14953D01*
G01X25040Y14977D01*
G01X25036Y15001D01*
G01X25035Y15025D01*
G01X25035Y15475D01*
G01X25036Y15499D01*
G01X25040Y15523D01*
G01X25045Y15547D01*
G01X25048Y15561D01*
G01X25049Y15575D01*
G01X25048Y15589D01*
G01X25045Y15603D01*
G01X25040Y15627D01*
G01X25036Y15651D01*
G01X25035Y15675D01*
G01X25035Y16092D01*
G01X25034Y16106D01*
G01X25031Y16120D01*
G01X25026Y16134D01*
G01X25019Y16147D01*
G01X25010Y16158D01*
G01X25000Y16169D01*
G01X24988Y16177D01*
G01X24976Y16184D01*
G01X24962Y16189D01*
G01X24948Y16192D01*
G01X24933Y16193D01*
G01X24136Y16193D01*
G01X24121Y16192D01*
G01X24107Y16189D01*
G01X24093Y16183D01*
G01X24079Y16176D01*
G01X24068Y16167D01*
G01X24057Y16156D01*
G01X24034Y16129D01*
G01X24009Y16103D01*
G01X23982Y16080D01*
G01X23954Y16058D01*
G01X23925Y16037D01*
G01X23895Y16019D01*
G01X23863Y16003D01*
G01X23830Y15988D01*
G01X23797Y15976D01*
G01X23763Y15966D01*
G01X23728Y15958D01*
G01X23693Y15953D01*
G01X23657Y15949D01*
G01X23622Y15948D01*
G01X23587Y15949D01*
G01X23552Y15952D01*
G01X23517Y15958D01*
G01X23483Y15965D01*
G01X23450Y15975D01*
G01X23417Y15987D01*
G01X23385Y16000D01*
G01X23354Y16016D01*
G01X23324Y16034D01*
G01X23295Y16053D01*
G01X23267Y16074D01*
G01X23241Y16097D01*
G01X23216Y16122D01*
G01X23204Y16132D01*
G01X23190Y16141D01*
G01X23175Y16148D01*
G01X23159Y16152D01*
G01X23142Y16153D01*
G01X18731Y16153D01*
G01X18715Y16152D01*
G01X18700Y16148D01*
G01X18685Y16142D01*
G01X18672Y16134D01*
G01X18659Y16123D01*
G01X18032Y15495D01*
G01X18011Y15476D01*
G01X17989Y15459D01*
G01X17966Y15443D01*
G01X17941Y15430D01*
G01X17916Y15418D01*
G01X17890Y15408D01*
G01X17863Y15401D01*
G01X17835Y15395D01*
G01X17807Y15392D01*
G01X17780Y15391D01*
G01X15367Y15391D01*
G01X15338Y15392D01*
G01X15310Y15395D01*
G01X15283Y15401D01*
G01X15255Y15409D01*
G01X15229Y15419D01*
G01X15203Y15430D01*
G01X15189Y15437D01*
G01X15173Y15440D01*
G01X15157Y15442D01*
G01X15150Y15441D01*
G01X15113Y15440D01*
G01X15079Y15441D01*
G01X15045Y15444D01*
G01X15011Y15449D01*
G01X14978Y15456D01*
G01X14945Y15466D01*
G01X14913Y15477D01*
G01X14882Y15490D01*
G01X14852Y15504D01*
G01X14822Y15521D01*
G01X14794Y15540D01*
G01X14766Y15560D01*
G01X14740Y15581D01*
G01X14692Y15629D01*
G01X14671Y15655D01*
G01X14651Y15683D01*
G01X14632Y15711D01*
G01X14615Y15741D01*
G01X14601Y15771D01*
G01X14588Y15802D01*
G01X14577Y15834D01*
G01X14567Y15867D01*
G01X14560Y15900D01*
G01X14555Y15934D01*
G01X14552Y15968D01*
G01X14551Y16002D01*
G01X14552Y16036D01*
G01X14556Y16071D01*
G01X14561Y16106D01*
G01X14568Y16140D01*
G01X14578Y16173D01*
G01X14590Y16206D01*
G01X14604Y16238D01*
G01X14619Y16270D01*
G01X14637Y16300D01*
G01X14656Y16329D01*
G01X14678Y16357D01*
G01X14701Y16383D01*
G01X14725Y16408D01*
G01X14751Y16431D01*
G01X14779Y16453D01*
G01X14807Y16473D01*
G01X14837Y16491D01*
G01X14868Y16507D01*
G01X14900Y16521D01*
G01X14933Y16533D01*
G01X14966Y16543D01*
G01X15000Y16552D01*
G01X15035Y16557D01*
G01X15069Y16561D01*
G01X15104Y16563D01*
G01X15119Y16564D01*
G01X15134Y16568D01*
G01X15148Y16573D01*
G01X15160Y16581D01*
G01X15172Y16590D01*
G01X15182Y16601D01*
G01X15191Y16613D01*
G01X15197Y16626D01*
G01X15202Y16641D01*
G01X15211Y16675D01*
G01X15223Y16709D01*
G01X15236Y16742D01*
G01X15252Y16774D01*
G01X15270Y16805D01*
G01X15290Y16834D01*
G01X15311Y16863D01*
G01X15335Y16890D01*
G01X15360Y16915D01*
G01X15370Y16927D01*
G01X15379Y16941D01*
G01X15386Y16956D01*
G01X15390Y16972D01*
G01X15391Y16989D01*
G01X15391Y17526D01*
G01X15392Y17553D01*
G01X15395Y17581D01*
G01X15401Y17608D01*
G01X15408Y17635D01*
G01X15418Y17661D01*
G01X15429Y17687D01*
G01X15443Y17711D01*
G01X15458Y17734D01*
G01X15476Y17756D01*
G01X15486Y17771D01*
G01X15494Y17787D01*
G01X15498Y17804D01*
G01X15500Y17822D01*
G01X15500Y18534D01*
G01X15501Y18574D01*
G01X15504Y18613D01*
G01X15509Y18653D01*
G01X15516Y18692D01*
G01X15526Y18730D01*
G01X15537Y18768D01*
G01X15550Y18805D01*
G01X15565Y18842D01*
G01X15582Y18878D01*
G01X15601Y18913D01*
G01X15622Y18946D01*
G01X15644Y18979D01*
G01X15668Y19010D01*
G01X15694Y19040D01*
G01X15721Y19069D01*
G01X15750Y19096D01*
G01X15780Y19122D01*
G01X15812Y19146D01*
G01X15844Y19169D01*
G01X15878Y19189D01*
G01X15913Y19208D01*
G01X15949Y19225D01*
G01X15985Y19241D01*
G01X16022Y19254D01*
G01X16060Y19265D01*
G01X16099Y19274D01*
G01X16138Y19281D01*
G01X16177Y19287D01*
G01X16217Y19290D01*
G01X16256Y19291D01*
G01X16296Y19290D01*
G01X16335Y19287D01*
G01X16375Y19281D01*
G01X16414Y19274D01*
G01X16452Y19265D01*
G01X16490Y19254D01*
G01X16527Y19241D01*
G01X16564Y19225D01*
G01X16600Y19208D01*
G01X16635Y19189D01*
G01X16668Y19169D01*
G01X16701Y19146D01*
G01X16732Y19122D01*
G01X16762Y19096D01*
G01X16791Y19069D01*
G01X16818Y19040D01*
G01X16844Y19010D01*
G01X16868Y18979D01*
G01X16891Y18946D01*
G01X16911Y18913D01*
G01X16930Y18878D01*
G01X16947Y18842D01*
G01X16963Y18805D01*
G01X16976Y18768D01*
G01X16987Y18730D01*
G01X16996Y18692D01*
G01X17003Y18653D01*
G01X17009Y18613D01*
G01X17012Y18574D01*
G01X17013Y18534D01*
G01X17013Y17534D01*
G01X17012Y17495D01*
G01X17009Y17455D01*
G01X17003Y17416D01*
G01X16996Y17376D01*
G01X16987Y17338D01*
G01X16976Y17300D01*
G01X16962Y17262D01*
G01X16947Y17226D01*
G01X16930Y17190D01*
G01X16911Y17155D01*
G01X16890Y17121D01*
G01X16867Y17088D01*
G01X16843Y17057D01*
G01X16817Y17027D01*
G01X16790Y16998D01*
G01X16761Y16971D01*
G01X16731Y16945D01*
G01X16699Y16921D01*
G01X16666Y16898D01*
G01X16632Y16878D01*
G01X16597Y16859D01*
G01X16561Y16842D01*
G01X16525Y16827D01*
G01X16487Y16814D01*
G01X16449Y16803D01*
G01X16410Y16794D01*
G01X16371Y16786D01*
G01X16357Y16783D01*
G01X16344Y16778D01*
G01X16331Y16771D01*
G01X16320Y16762D01*
G01X16309Y16752D01*
G01X16301Y16741D01*
G01X16294Y16728D01*
G01X16289Y16715D01*
G01X16286Y16700D01*
G01X16285Y16686D01*
G01X16289Y16659D01*
G01X16297Y16622D01*
G01X16304Y16585D01*
G01X16308Y16547D01*
G01X16309Y16510D01*
G01X16308Y16471D01*
G01X16304Y16433D01*
G01X16297Y16396D01*
G01X16288Y16359D01*
G01X16277Y16322D01*
G01X16263Y16287D01*
G01X16246Y16252D01*
G01X16240Y16237D01*
G01X16236Y16222D01*
G01X16235Y16206D01*
G01X16236Y16191D01*
G01X16239Y16177D01*
G01X16244Y16163D01*
G01X16251Y16151D01*
G01X16260Y16139D01*
G01X16270Y16129D01*
G01X16282Y16120D01*
G01X16294Y16113D01*
G01X16308Y16108D01*
G01X16322Y16105D01*
G01X16337Y16104D01*
G01X17590Y16104D01*
G01X17606Y16105D01*
G01X17621Y16109D01*
G01X17636Y16115D01*
G01X17649Y16123D01*
G01X17662Y16134D01*
G01X18150Y16623D01*
G01X18161Y16635D01*
G01X18169Y16648D01*
G01X18175Y16663D01*
G01X18179Y16679D01*
G01X18180Y16695D01*
G01X18179Y16710D01*
G01X18176Y16725D01*
G01X18170Y16739D01*
G01X18162Y16752D01*
G01X18152Y16764D01*
G01X18141Y16775D01*
G01X18128Y16783D01*
G01X18114Y16790D01*
G01X18100Y16794D01*
G01X18061Y16803D01*
G01X18023Y16814D01*
G01X17986Y16828D01*
G01X17949Y16843D01*
G01X17913Y16860D01*
G01X17878Y16879D01*
G01X17844Y16899D01*
G01X17812Y16922D01*
G01X17780Y16946D01*
G01X17750Y16971D01*
G01X17721Y16999D01*
G01X17694Y17027D01*
G01X17668Y17058D01*
G01X17644Y17089D01*
G01X17621Y17122D01*
G01X17601Y17156D01*
G01X17582Y17190D01*
G01X17565Y17226D01*
G01X17549Y17263D01*
G01X17536Y17300D01*
G01X17525Y17338D01*
G01X17516Y17377D01*
G01X17508Y17416D01*
G01X17503Y17455D01*
G01X17500Y17495D01*
G01X17499Y17534D01*
G01X17499Y18534D01*
G01X17500Y18574D01*
G01X17503Y18613D01*
G01X17508Y18653D01*
G01X17515Y18692D01*
G01X17525Y18730D01*
G01X17536Y18768D01*
G01X17549Y18805D01*
G01X17564Y18842D01*
G01X17581Y18878D01*
G01X17600Y18913D01*
G01X17621Y18946D01*
G01X17643Y18979D01*
G01X17668Y19010D01*
G01X17693Y19040D01*
G01X17721Y19069D01*
G01X17749Y19096D01*
G01X17779Y19122D01*
G01X17811Y19146D01*
G01X17843Y19169D01*
G01X17877Y19189D01*
G01X17912Y19208D01*
G01X17948Y19225D01*
G01X17984Y19241D01*
G01X18022Y19254D01*
G01X18060Y19265D01*
G01X18098Y19274D01*
G01X18137Y19281D01*
G01X18176Y19287D01*
G01X18216Y19290D01*
G01X18255Y19291D01*
G01X18295Y19290D01*
G01X18335Y19287D01*
G01X18374Y19281D01*
G01X18413Y19274D01*
G01X18451Y19265D01*
G01X18489Y19254D01*
G01X18527Y19241D01*
G01X18563Y19225D01*
G01X18599Y19208D01*
G01X18634Y19189D01*
G01X18668Y19169D01*
G01X18700Y19146D01*
G01X18732Y19122D01*
G01X18762Y19096D01*
G01X18790Y19069D01*
G01X18818Y19040D01*
G01X18843Y19010D01*
G01X18868Y18979D01*
G01X18890Y18946D01*
G01X18911Y18913D01*
G01X18930Y18878D01*
G01X18947Y18842D01*
G01X18962Y18805D01*
G01X18975Y18768D01*
G01X18986Y18730D01*
G01X18996Y18692D01*
G01X19003Y18653D01*
G01X19008Y18613D01*
G01X19011Y18574D01*
G01X19012Y18534D01*
G01X19012Y17534D01*
G01X19011Y17492D01*
G01X19007Y17450D01*
G01X19002Y17409D01*
G01X18993Y17368D01*
G01X18983Y17327D01*
G01X18971Y17287D01*
G01X18956Y17248D01*
G01X18939Y17209D01*
G01X18920Y17172D01*
G01X18899Y17136D01*
G01X18875Y17101D01*
G01X18850Y17067D01*
G01X18824Y17035D01*
G01X18815Y17023D01*
G01X18808Y17010D01*
G01X18803Y16997D01*
G01X18799Y16982D01*
G01X18798Y16968D01*
G01X18799Y16953D01*
G01X18802Y16939D01*
G01X18808Y16925D01*
G01X18814Y16913D01*
G01X18823Y16901D01*
G01X18833Y16891D01*
G01X18845Y16882D01*
G01X18858Y16875D01*
G01X18871Y16870D01*
G01X18886Y16867D01*
G01X18900Y16866D01*
G01X19610Y16866D01*
G01X19625Y16867D01*
G01X19639Y16870D01*
G01X19652Y16875D01*
G01X19665Y16882D01*
G01X19677Y16891D01*
G01X19687Y16901D01*
G01X19696Y16913D01*
G01X19703Y16925D01*
G01X19708Y16939D01*
G01X19711Y16953D01*
G01X19712Y16968D01*
G01X19711Y16982D01*
G01X19708Y16997D01*
G01X19702Y17010D01*
G01X19695Y17023D01*
G01X19687Y17035D01*
G01X19660Y17067D01*
G01X19635Y17101D01*
G01X19612Y17136D01*
G01X19591Y17172D01*
G01X19571Y17209D01*
G01X19555Y17248D01*
G01X19540Y17287D01*
G01X19527Y17327D01*
G01X19517Y17368D01*
G01X19509Y17409D01*
G01X19503Y17450D01*
G01X19499Y17492D01*
G01X19498Y17534D01*
G01X19498Y18534D01*
G01X19499Y18574D01*
G01X19502Y18613D01*
G01X19508Y18653D01*
G01X19515Y18692D01*
G01X19524Y18730D01*
G01X19535Y18768D01*
G01X19548Y18805D01*
G01X19564Y18842D01*
G01X19581Y18878D01*
G01X19600Y18913D01*
G01X19620Y18946D01*
G01X19643Y18979D01*
G01X19667Y19010D01*
G01X19693Y19040D01*
G01X19720Y19069D01*
G01X19749Y19096D01*
G01X19779Y19122D01*
G01X19810Y19146D01*
G01X19843Y19169D01*
G01X19876Y19189D01*
G01X19911Y19208D01*
G01X19947Y19225D01*
G01X19984Y19241D01*
G01X20021Y19254D01*
G01X20059Y19265D01*
G01X20097Y19274D01*
G01X20136Y19281D01*
G01X20176Y19287D01*
G01X20215Y19290D01*
G01X20255Y19291D01*
G01X20295Y19290D01*
G01X20335Y19286D01*
G01X20375Y19281D01*
G01X20415Y19274D01*
G01X20454Y19264D01*
G01X20493Y19252D01*
G01X20531Y19239D01*
G01X20568Y19223D01*
G01X20605Y19205D01*
G01X20640Y19185D01*
G01X20674Y19164D01*
G01X20707Y19141D01*
G01X20739Y19116D01*
G01X20753Y19106D01*
G01X20769Y19098D01*
G01X20786Y19094D01*
G01X20804Y19092D01*
G01X20821Y19093D01*
G01X20837Y19097D01*
G01X20852Y19104D01*
G01X20866Y19113D01*
G01X20896Y19135D01*
G01X20927Y19154D01*
G01X20960Y19172D01*
G01X20993Y19187D01*
G01X21028Y19200D01*
G01X21063Y19211D01*
G01X21099Y19219D01*
G01X21135Y19225D01*
G01X21172Y19229D01*
G01X21208Y19230D01*
G01X21244Y19229D01*
G01X21279Y19225D01*
G01X21313Y19220D01*
G01X21348Y19212D01*
G01X21382Y19203D01*
G01X21415Y19191D01*
G01X21447Y19177D01*
G01X21478Y19161D01*
G01X21509Y19143D01*
G01X21538Y19123D01*
G01X21566Y19102D01*
G01X21592Y19078D01*
G01X21604Y19069D01*
G01X21617Y19061D01*
G01X21631Y19056D01*
G01X21646Y19052D01*
G01X21661Y19051D01*
G01X21677Y19052D01*
G01X21692Y19056D01*
G01X21706Y19062D01*
G01X21720Y19070D01*
G01X21732Y19079D01*
G01X21762Y19107D01*
G01X21794Y19133D01*
G01X21828Y19158D01*
G01X21862Y19180D01*
G01X21898Y19200D01*
G01X21935Y19219D01*
G01X21973Y19235D01*
G01X22012Y19250D01*
G01X22051Y19262D01*
G01X22091Y19272D01*
G01X22132Y19280D01*
G01X22173Y19286D01*
G01X22214Y19289D01*
G01X22255Y19290D01*
G01X22295Y19289D01*
G01X22335Y19286D01*
G01X22374Y19281D01*
G01X22413Y19274D01*
G01X22451Y19264D01*
G01X22489Y19253D01*
G01X22527Y19240D01*
G01X22563Y19225D01*
G01X22599Y19208D01*
G01X22634Y19189D01*
G01X22668Y19168D01*
G01X22700Y19146D01*
G01X22732Y19121D01*
G01X22762Y19096D01*
G01X22818Y19040D01*
G01X22843Y19010D01*
G01X22868Y18978D01*
G01X22890Y18946D01*
G01X22911Y18912D01*
G01X22930Y18877D01*
G01X22947Y18841D01*
G01X22962Y18805D01*
G01X22975Y18767D01*
G01X22986Y18729D01*
G01X22995Y18691D01*
G01X23003Y18652D01*
G01X23008Y18613D01*
G01X23011Y18573D01*
G01X23012Y18533D01*
G01X23012Y17534D01*
G01X23011Y17492D01*
G01X23007Y17450D01*
G01X23002Y17408D01*
G01X22994Y17367D01*
G01X22983Y17327D01*
G01X22971Y17287D01*
G01X22956Y17247D01*
G01X22939Y17209D01*
G01X22920Y17172D01*
G01X22899Y17136D01*
G01X22876Y17101D01*
G01X22851Y17067D01*
G01X22824Y17035D01*
G01X22815Y17023D01*
G01X22808Y17010D01*
G01X22803Y16996D01*
G01X22800Y16982D01*
G01X22799Y16968D01*
G01X22800Y16953D01*
G01X22803Y16939D01*
G01X22808Y16925D01*
G01X22815Y16913D01*
G01X22824Y16901D01*
G01X22834Y16891D01*
G01X22846Y16882D01*
G01X22858Y16875D01*
G01X22872Y16870D01*
G01X22886Y16867D01*
G01X22901Y16866D01*
G01X23142Y16866D01*
G01X23159Y16867D01*
G01X23175Y16871D01*
G01X23190Y16878D01*
G01X23204Y16887D01*
G01X23216Y16897D01*
G01X23241Y16922D01*
G01X23267Y16945D01*
G01X23295Y16966D01*
G01X23324Y16985D01*
G01X23354Y17003D01*
G01X23385Y17019D01*
G01X23417Y17032D01*
G01X23450Y17044D01*
G01X23483Y17054D01*
G01X23517Y17061D01*
G01X23552Y17067D01*
G01X23587Y17070D01*
G01X23622Y17071D01*
G01X23658Y17070D01*
G01X23695Y17066D01*
G01X23731Y17060D01*
G01X23767Y17052D01*
G01X23802Y17041D01*
G01X23836Y17028D01*
G01X23870Y17013D01*
G01X23902Y16996D01*
G01X23933Y16976D01*
G01X23963Y16955D01*
G01X23992Y16932D01*
G01X24003Y16923D01*
G01X24016Y16916D01*
G01X24030Y16911D01*
G01X24044Y16907D01*
G01X24058Y16906D01*
G01X25020Y16906D01*
G01X25034Y16907D01*
G01X25048Y16911D01*
G01X25062Y16916D01*
G01X25075Y16923D01*
G01X25087Y16932D01*
G01X25097Y16942D01*
G01X25114Y16960D01*
G01X25132Y16976D01*
G01X25152Y16990D01*
G01X25173Y17003D01*
G01X25196Y17013D01*
G01X25219Y17021D01*
G01X25243Y17027D01*
G01X25267Y17030D01*
G01X25292Y17031D01*
G01X26211Y17031D01*
G01X26225Y17033D01*
G01X26239Y17036D01*
G01X26253Y17041D01*
G01X26266Y17048D01*
G01X26277Y17056D01*
G01X26287Y17067D01*
G01X26296Y17078D01*
G01X26303Y17091D01*
G01X26308Y17104D01*
G01X26311Y17119D01*
G01X26312Y17133D01*
G01X26311Y17151D01*
G01X26306Y17169D01*
G01X26298Y17185D01*
G01X26276Y17224D01*
G01X26256Y17263D01*
G01X26238Y17304D01*
G01X26222Y17345D01*
G01X26208Y17388D01*
G01X26197Y17430D01*
G01X26187Y17474D01*
G01X26179Y17517D01*
G01X26174Y17561D01*
G01X26171Y17606D01*
G01X26170Y17650D01*
G01X26171Y17693D01*
G01X26174Y17736D01*
G01X26179Y17779D01*
G01X26186Y17822D01*
G01X26195Y17864D01*
G01X26206Y17905D01*
G01X26219Y17946D01*
G01X26235Y17987D01*
G01X26252Y18027D01*
G01X26270Y18065D01*
G01X26291Y18103D01*
G01X26314Y18140D01*
G01X26338Y18176D01*
G01X26364Y18210D01*
G01X26391Y18244D01*
G01X26420Y18276D01*
G01X26451Y18306D01*
G01X26482Y18335D01*
G01X26516Y18363D01*
G01X26550Y18388D01*
G01X26586Y18413D01*
G01X26623Y18435D01*
G01X26661Y18456D01*
G01X26700Y18475D01*
G01X26739Y18492D01*
G01X26780Y18507D01*
G01X26821Y18520D01*
G01X26862Y18531D01*
G01X26905Y18540D01*
G01X26947Y18547D01*
G01X26990Y18552D01*
G01X27033Y18555D01*
G01X27076Y18556D01*
G01X27119Y18555D01*
G01X27162Y18552D01*
G01X27205Y18547D01*
G01X27248Y18540D01*
G01X27290Y18531D01*
G01X27332Y18520D01*
G01X27373Y18507D01*
G01X27413Y18492D01*
G01X27453Y18475D01*
G01X27492Y18456D01*
G01X27529Y18435D01*
G01X27566Y18413D01*
G01X27602Y18388D01*
G01X27637Y18363D01*
G01X27670Y18335D01*
G01X27702Y18306D01*
G01X27732Y18276D01*
G01X27761Y18244D01*
G01X27789Y18210D01*
G01X27815Y18176D01*
G01X27839Y18140D01*
G01X27861Y18103D01*
G01X27882Y18065D01*
G01X27901Y18027D01*
G01X27918Y17987D01*
G01X27933Y17946D01*
G01X27946Y17905D01*
G01X27957Y17864D01*
G01X27966Y17822D01*
G01X27973Y17779D01*
G01X27979Y17736D01*
G01X27982Y17693D01*
G01X27983Y17650D01*
G01X27982Y17605D01*
G01X27978Y17561D01*
G01X27973Y17516D01*
G01X27965Y17472D01*
G01X27955Y17429D01*
G01X27943Y17386D01*
G01X27929Y17343D01*
G01X27913Y17302D01*
G01X27895Y17261D01*
G01X27875Y17221D01*
G01X27853Y17182D01*
G01X27829Y17145D01*
G01X27803Y17108D01*
G01X27775Y17073D01*
G01X27765Y17059D01*
G01X27758Y17043D01*
G01X27754Y17026D01*
G01X27752Y17008D01*
G01X27753Y16994D01*
G01X27756Y16980D01*
G01X27761Y16966D01*
G01X27768Y16953D01*
G01X27777Y16942D01*
G01X27787Y16931D01*
G01X27799Y16923D01*
G01X27812Y16916D01*
G01X27825Y16911D01*
G01X27839Y16908D01*
G01X27854Y16907D01*
G01X29042Y16907D01*
G01X29070Y16906D01*
G01X29098Y16902D01*
G01X29125Y16897D01*
G01X29152Y16889D01*
G01X29178Y16880D01*
G01X29204Y16868D01*
G01X29228Y16854D01*
G01X29251Y16839D01*
G01X29273Y16821D01*
G01X29294Y16802D01*
G01X29557Y16539D01*
G01X29569Y16529D01*
G01X29583Y16520D01*
G01X29598Y16514D01*
G01X29613Y16510D01*
G01X29629Y16509D01*
G01X29644Y16510D01*
G01X29658Y16513D01*
G01X29671Y16518D01*
G01X29684Y16525D01*
G01X29696Y16534D01*
G01X29706Y16544D01*
G01X29715Y16556D01*
G01X29722Y16569D01*
G01X29727Y16582D01*
G01X29730Y16596D01*
G01X29731Y16611D01*
G01X29731Y17723D01*
G01X29732Y17746D01*
G01X29735Y17769D01*
G01X29740Y17792D01*
G01X29748Y17814D01*
G01X29753Y17832D01*
G01X29754Y17851D01*
G01X29753Y17865D01*
G01X29750Y17879D01*
G01X29745Y17893D01*
G01X29738Y17906D01*
G01X29730Y17917D01*
G01X29719Y17928D01*
G01X29708Y17936D01*
G01X29695Y17943D01*
G01X29681Y17948D01*
G01X29667Y17951D01*
G01X29653Y17952D01*
G01X29326Y17952D01*
G01X29283Y17953D01*
G01X29240Y17957D01*
G01X29197Y17962D01*
G01X29155Y17969D01*
G01X29112Y17978D01*
G01X29071Y17989D01*
G01X29030Y18002D01*
G01X28989Y18017D01*
G01X28950Y18034D01*
G01X28911Y18053D01*
G01X28873Y18074D01*
G01X28836Y18096D01*
G01X28800Y18121D01*
G01X28766Y18146D01*
G01X28733Y18174D01*
G01X28701Y18203D01*
G01X28670Y18233D01*
G01X28641Y18265D01*
G01X28614Y18299D01*
G01X28588Y18333D01*
G01X28564Y18369D01*
G01X28541Y18406D01*
G01X28520Y18444D01*
G01X28502Y18482D01*
G01X28485Y18522D01*
G01X28469Y18563D01*
G01X28456Y18604D01*
G01X28445Y18645D01*
G01X28436Y18687D01*
G01X28429Y18730D01*
G01X28424Y18773D01*
G01X28421Y18816D01*
G01X28420Y18859D01*
G01X28421Y18905D01*
G01X28424Y18952D01*
G01X28430Y18998D01*
G01X28439Y19044D01*
G01X28449Y19089D01*
G01X28462Y19133D01*
G01X28477Y19177D01*
G01X28495Y19220D01*
G01X28514Y19262D01*
G01X28536Y19304D01*
G01X28560Y19343D01*
G01X28586Y19382D01*
G01X28594Y19395D01*
G01X28600Y19410D01*
G01X28603Y19425D01*
G01X28604Y19441D01*
G01X28603Y19455D01*
G01X28600Y19469D01*
G01X28595Y19483D01*
G01X28588Y19496D01*
G01X28580Y19507D01*
G01X28569Y19517D01*
G01X28558Y19526D01*
G01X28545Y19533D01*
G01X28531Y19538D01*
G01X28517Y19541D01*
G01X28503Y19542D01*
G37*

%LPC*%
G36*
G01X16416Y10593D02*
G01X16383Y10594D01*
G01X16349Y10593D01*
G01X16315Y10590D01*
G01X16281Y10585D01*
G01X16248Y10578D01*
G01X16215Y10568D01*
G01X16183Y10557D01*
G01X16152Y10544D01*
G01X16122Y10530D01*
G01X16092Y10513D01*
G01X16064Y10494D01*
G01X16036Y10474D01*
G01X16010Y10453D01*
G01X15962Y10405D01*
G01X15941Y10379D01*
G01X15921Y10351D01*
G01X15902Y10323D01*
G01X15885Y10293D01*
G01X15871Y10263D01*
G01X15858Y10232D01*
G01X15847Y10200D01*
G01X15837Y10167D01*
G01X15830Y10134D01*
G01X15825Y10100D01*
G01X15822Y10066D01*
G01X15821Y10033D01*
G01X15821Y10018D01*
G01X15820Y10002D01*
G01X15816Y9986D01*
G01X15810Y9972D01*
G01X15802Y9958D01*
G01X15792Y9946D01*
G01X15503Y9657D01*
G01X15490Y9646D01*
G01X15477Y9638D01*
G01X15462Y9632D01*
G01X15447Y9628D01*
G01X15431Y9627D01*
G01X14576Y9627D01*
G01X14559Y9628D01*
G01X14543Y9632D01*
G01X14528Y9639D01*
G01X14514Y9648D01*
G01X14502Y9658D01*
G01X14477Y9683D01*
G01X14451Y9706D01*
G01X14423Y9727D01*
G01X14394Y9746D01*
G01X14364Y9764D01*
G01X14333Y9780D01*
G01X14301Y9793D01*
G01X14268Y9805D01*
G01X14235Y9815D01*
G01X14201Y9822D01*
G01X14166Y9828D01*
G01X14131Y9831D01*
G01X14097Y9832D01*
G01X14063Y9831D01*
G01X14029Y9828D01*
G01X13995Y9823D01*
G01X13962Y9816D01*
G01X13929Y9806D01*
G01X13897Y9795D01*
G01X13866Y9782D01*
G01X13836Y9768D01*
G01X13806Y9751D01*
G01X13778Y9732D01*
G01X13750Y9712D01*
G01X13724Y9691D01*
G01X13676Y9643D01*
G01X13655Y9617D01*
G01X13635Y9589D01*
G01X13616Y9561D01*
G01X13599Y9531D01*
G01X13585Y9501D01*
G01X13572Y9470D01*
G01X13561Y9438D01*
G01X13551Y9405D01*
G01X13544Y9372D01*
G01X13539Y9338D01*
G01X13536Y9304D01*
G01X13535Y9271D01*
G01X13536Y9237D01*
G01X13539Y9203D01*
G01X13544Y9169D01*
G01X13551Y9136D01*
G01X13561Y9103D01*
G01X13572Y9071D01*
G01X13585Y9040D01*
G01X13599Y9010D01*
G01X13616Y8980D01*
G01X13635Y8952D01*
G01X13655Y8924D01*
G01X13676Y8898D01*
G01X13724Y8850D01*
G01X13750Y8829D01*
G01X13778Y8809D01*
G01X13806Y8790D01*
G01X13836Y8773D01*
G01X13866Y8759D01*
G01X13897Y8746D01*
G01X13929Y8735D01*
G01X13962Y8725D01*
G01X13995Y8718D01*
G01X14029Y8713D01*
G01X14063Y8710D01*
G01X14097Y8709D01*
G01X14131Y8710D01*
G01X14166Y8713D01*
G01X14201Y8719D01*
G01X14235Y8726D01*
G01X14268Y8736D01*
G01X14301Y8748D01*
G01X14333Y8761D01*
G01X14364Y8777D01*
G01X14394Y8795D01*
G01X14423Y8814D01*
G01X14451Y8835D01*
G01X14477Y8858D01*
G01X14502Y8883D01*
G01X14514Y8893D01*
G01X14528Y8902D01*
G01X14543Y8909D01*
G01X14559Y8913D01*
G01X14576Y8914D01*
G01X15621Y8914D01*
G01X15648Y8915D01*
G01X15676Y8918D01*
G01X15704Y8924D01*
G01X15731Y8931D01*
G01X15757Y8941D01*
G01X15782Y8953D01*
G01X15807Y8966D01*
G01X15830Y8982D01*
G01X15852Y8999D01*
G01X15873Y9018D01*
G01X16296Y9442D01*
G01X16308Y9452D01*
G01X16322Y9460D01*
G01X16336Y9466D01*
G01X16352Y9470D01*
G01X16368Y9471D01*
G01X16383Y9471D01*
G01X16416Y9472D01*
G01X16450Y9475D01*
G01X16484Y9480D01*
G01X16517Y9487D01*
G01X16550Y9497D01*
G01X16582Y9508D01*
G01X16613Y9521D01*
G01X16643Y9535D01*
G01X16673Y9552D01*
G01X16701Y9571D01*
G01X16729Y9591D01*
G01X16755Y9612D01*
G01X16803Y9660D01*
G01X16824Y9686D01*
G01X16844Y9714D01*
G01X16863Y9742D01*
G01X16880Y9772D01*
G01X16894Y9802D01*
G01X16907Y9833D01*
G01X16918Y9865D01*
G01X16928Y9898D01*
G01X16935Y9931D01*
G01X16940Y9965D01*
G01X16943Y9999D01*
G01X16944Y10033D01*
G01X16943Y10066D01*
G01X16940Y10100D01*
G01X16935Y10134D01*
G01X16928Y10167D01*
G01X16918Y10200D01*
G01X16907Y10232D01*
G01X16894Y10263D01*
G01X16880Y10293D01*
G01X16863Y10323D01*
G01X16844Y10351D01*
G01X16824Y10379D01*
G01X16803Y10405D01*
G01X16755Y10453D01*
G01X16729Y10474D01*
G01X16701Y10494D01*
G01X16673Y10513D01*
G01X16643Y10530D01*
G01X16613Y10544D01*
G01X16582Y10557D01*
G01X16550Y10568D01*
G01X16517Y10578D01*
G01X16484Y10585D01*
G01X16450Y10590D01*
G01X16416Y10593D01*
G37*
G36*
G01X10295Y19290D02*
G01X10256Y19291D01*
G01X10216Y19290D01*
G01X10176Y19287D01*
G01X10137Y19281D01*
G01X10098Y19274D01*
G01X10060Y19265D01*
G01X10022Y19254D01*
G01X9984Y19241D01*
G01X9948Y19225D01*
G01X9912Y19208D01*
G01X9877Y19189D01*
G01X9843Y19169D01*
G01X9811Y19146D01*
G01X9779Y19122D01*
G01X9749Y19096D01*
G01X9721Y19069D01*
G01X9693Y19040D01*
G01X9668Y19010D01*
G01X9643Y18979D01*
G01X9621Y18946D01*
G01X9600Y18913D01*
G01X9581Y18878D01*
G01X9564Y18842D01*
G01X9549Y18805D01*
G01X9536Y18768D01*
G01X9525Y18730D01*
G01X9516Y18692D01*
G01X9508Y18653D01*
G01X9503Y18613D01*
G01X9500Y18574D01*
G01X9499Y18534D01*
G01X9499Y17534D01*
G01X9500Y17495D01*
G01X9503Y17455D01*
G01X9508Y17416D01*
G01X9516Y17377D01*
G01X9525Y17338D01*
G01X9536Y17300D01*
G01X9549Y17263D01*
G01X9564Y17227D01*
G01X9581Y17191D01*
G01X9600Y17156D01*
G01X9621Y17122D01*
G01X9643Y17090D01*
G01X9668Y17058D01*
G01X9693Y17028D01*
G01X9721Y16999D01*
G01X9749Y16972D01*
G01X9779Y16946D01*
G01X9811Y16922D01*
G01X9843Y16900D01*
G01X9877Y16879D01*
G01X9912Y16860D01*
G01X9948Y16843D01*
G01X9984Y16828D01*
G01X10022Y16815D01*
G01X10060Y16804D01*
G01X10098Y16794D01*
G01X10137Y16787D01*
G01X10176Y16782D01*
G01X10216Y16779D01*
G01X10256Y16778D01*
G01X10295Y16779D01*
G01X10335Y16782D01*
G01X10374Y16787D01*
G01X10413Y16794D01*
G01X10451Y16804D01*
G01X10489Y16815D01*
G01X10527Y16828D01*
G01X10563Y16843D01*
G01X10599Y16860D01*
G01X10634Y16879D01*
G01X10668Y16900D01*
G01X10700Y16922D01*
G01X10732Y16946D01*
G01X10762Y16972D01*
G01X10790Y16999D01*
G01X10818Y17028D01*
G01X10843Y17058D01*
G01X10868Y17090D01*
G01X10890Y17122D01*
G01X10911Y17156D01*
G01X10930Y17191D01*
G01X10947Y17227D01*
G01X10962Y17263D01*
G01X10975Y17300D01*
G01X10986Y17338D01*
G01X10996Y17377D01*
G01X11003Y17416D01*
G01X11008Y17455D01*
G01X11011Y17495D01*
G01X11012Y17534D01*
G01X11012Y18534D01*
G01X11011Y18574D01*
G01X11008Y18613D01*
G01X11003Y18653D01*
G01X10996Y18692D01*
G01X10986Y18730D01*
G01X10975Y18768D01*
G01X10962Y18805D01*
G01X10947Y18842D01*
G01X10930Y18878D01*
G01X10911Y18913D01*
G01X10890Y18946D01*
G01X10868Y18979D01*
G01X10843Y19010D01*
G01X10818Y19040D01*
G01X10790Y19069D01*
G01X10762Y19096D01*
G01X10732Y19122D01*
G01X10700Y19146D01*
G01X10668Y19169D01*
G01X10634Y19189D01*
G01X10599Y19208D01*
G01X10563Y19225D01*
G01X10527Y19241D01*
G01X10489Y19254D01*
G01X10451Y19265D01*
G01X10413Y19274D01*
G01X10374Y19281D01*
G01X10335Y19287D01*
G01X10295Y19290D01*
G37*
G36*
G01X14294Y19290D02*
G01X14255Y19291D01*
G01X14215Y19290D01*
G01X14176Y19287D01*
G01X14136Y19281D01*
G01X14097Y19274D01*
G01X14059Y19265D01*
G01X14021Y19254D01*
G01X13984Y19241D01*
G01X13947Y19225D01*
G01X13911Y19208D01*
G01X13876Y19189D01*
G01X13843Y19169D01*
G01X13810Y19146D01*
G01X13779Y19122D01*
G01X13749Y19096D01*
G01X13720Y19069D01*
G01X13693Y19040D01*
G01X13667Y19010D01*
G01X13643Y18979D01*
G01X13620Y18946D01*
G01X13600Y18913D01*
G01X13581Y18878D01*
G01X13564Y18842D01*
G01X13548Y18805D01*
G01X13535Y18768D01*
G01X13524Y18730D01*
G01X13515Y18692D01*
G01X13508Y18653D01*
G01X13502Y18613D01*
G01X13499Y18574D01*
G01X13498Y18534D01*
G01X13498Y17534D01*
G01X13499Y17495D01*
G01X13502Y17455D01*
G01X13508Y17416D01*
G01X13515Y17377D01*
G01X13524Y17338D01*
G01X13535Y17300D01*
G01X13548Y17263D01*
G01X13564Y17227D01*
G01X13581Y17191D01*
G01X13600Y17156D01*
G01X13620Y17122D01*
G01X13643Y17090D01*
G01X13667Y17058D01*
G01X13693Y17028D01*
G01X13720Y16999D01*
G01X13749Y16972D01*
G01X13779Y16946D01*
G01X13810Y16922D01*
G01X13843Y16900D01*
G01X13876Y16879D01*
G01X13911Y16860D01*
G01X13947Y16843D01*
G01X13984Y16828D01*
G01X14021Y16815D01*
G01X14059Y16804D01*
G01X14097Y16794D01*
G01X14136Y16787D01*
G01X14176Y16782D01*
G01X14215Y16779D01*
G01X14255Y16778D01*
G01X14294Y16779D01*
G01X14334Y16782D01*
G01X14373Y16787D01*
G01X14412Y16794D01*
G01X14451Y16804D01*
G01X14489Y16815D01*
G01X14526Y16828D01*
G01X14562Y16843D01*
G01X14598Y16860D01*
G01X14633Y16879D01*
G01X14667Y16900D01*
G01X14699Y16922D01*
G01X14731Y16946D01*
G01X14761Y16972D01*
G01X14790Y16999D01*
G01X14817Y17028D01*
G01X14843Y17058D01*
G01X14867Y17090D01*
G01X14889Y17122D01*
G01X14910Y17156D01*
G01X14929Y17191D01*
G01X14946Y17227D01*
G01X14961Y17263D01*
G01X14974Y17300D01*
G01X14986Y17338D01*
G01X14995Y17377D01*
G01X15002Y17416D01*
G01X15007Y17455D01*
G01X15010Y17495D01*
G01X15011Y17534D01*
G01X15011Y18534D01*
G01X15010Y18574D01*
G01X15007Y18613D01*
G01X15002Y18653D01*
G01X14995Y18692D01*
G01X14986Y18730D01*
G01X14974Y18768D01*
G01X14961Y18805D01*
G01X14946Y18842D01*
G01X14929Y18878D01*
G01X14910Y18913D01*
G01X14889Y18946D01*
G01X14867Y18979D01*
G01X14843Y19010D01*
G01X14817Y19040D01*
G01X14790Y19069D01*
G01X14761Y19096D01*
G01X14731Y19122D01*
G01X14699Y19146D01*
G01X14667Y19169D01*
G01X14633Y19189D01*
G01X14598Y19208D01*
G01X14562Y19225D01*
G01X14526Y19241D01*
G01X14489Y19254D01*
G01X14451Y19265D01*
G01X14412Y19274D01*
G01X14373Y19281D01*
G01X14334Y19287D01*
G01X14294Y19290D01*
G37*
G36*
G01X8295Y19290D02*
G01X8256Y19291D01*
G01X8216Y19290D01*
G01X8176Y19287D01*
G01X8137Y19281D01*
G01X8098Y19274D01*
G01X8060Y19265D01*
G01X8022Y19254D01*
G01X7984Y19241D01*
G01X7948Y19225D01*
G01X7912Y19208D01*
G01X7877Y19189D01*
G01X7843Y19169D01*
G01X7811Y19146D01*
G01X7779Y19122D01*
G01X7749Y19096D01*
G01X7721Y19069D01*
G01X7693Y19040D01*
G01X7668Y19010D01*
G01X7643Y18979D01*
G01X7621Y18946D01*
G01X7600Y18913D01*
G01X7581Y18878D01*
G01X7564Y18842D01*
G01X7549Y18805D01*
G01X7536Y18768D01*
G01X7525Y18730D01*
G01X7516Y18692D01*
G01X7508Y18653D01*
G01X7503Y18613D01*
G01X7500Y18574D01*
G01X7499Y18534D01*
G01X7499Y17534D01*
G01X7500Y17495D01*
G01X7503Y17455D01*
G01X7508Y17416D01*
G01X7516Y17377D01*
G01X7525Y17338D01*
G01X7536Y17300D01*
G01X7549Y17263D01*
G01X7564Y17227D01*
G01X7581Y17191D01*
G01X7600Y17156D01*
G01X7621Y17122D01*
G01X7643Y17090D01*
G01X7668Y17058D01*
G01X7693Y17028D01*
G01X7721Y16999D01*
G01X7749Y16972D01*
G01X7779Y16946D01*
G01X7811Y16922D01*
G01X7843Y16900D01*
G01X7877Y16879D01*
G01X7912Y16860D01*
G01X7948Y16843D01*
G01X7984Y16828D01*
G01X8022Y16815D01*
G01X8060Y16804D01*
G01X8098Y16794D01*
G01X8137Y16787D01*
G01X8176Y16782D01*
G01X8216Y16779D01*
G01X8256Y16778D01*
G01X8295Y16779D01*
G01X8335Y16782D01*
G01X8374Y16787D01*
G01X8413Y16794D01*
G01X8451Y16804D01*
G01X8489Y16815D01*
G01X8527Y16828D01*
G01X8563Y16843D01*
G01X8599Y16860D01*
G01X8634Y16879D01*
G01X8668Y16900D01*
G01X8700Y16922D01*
G01X8732Y16946D01*
G01X8762Y16972D01*
G01X8790Y16999D01*
G01X8818Y17028D01*
G01X8843Y17058D01*
G01X8868Y17090D01*
G01X8890Y17122D01*
G01X8911Y17156D01*
G01X8930Y17191D01*
G01X8947Y17227D01*
G01X8962Y17263D01*
G01X8975Y17300D01*
G01X8986Y17338D01*
G01X8996Y17377D01*
G01X9003Y17416D01*
G01X9008Y17455D01*
G01X9011Y17495D01*
G01X9012Y17534D01*
G01X9012Y18534D01*
G01X9011Y18574D01*
G01X9008Y18613D01*
G01X9003Y18653D01*
G01X8996Y18692D01*
G01X8986Y18730D01*
G01X8975Y18768D01*
G01X8962Y18805D01*
G01X8947Y18842D01*
G01X8930Y18878D01*
G01X8911Y18913D01*
G01X8890Y18946D01*
G01X8868Y18979D01*
G01X8843Y19010D01*
G01X8818Y19040D01*
G01X8790Y19069D01*
G01X8762Y19096D01*
G01X8732Y19122D01*
G01X8700Y19146D01*
G01X8668Y19169D01*
G01X8634Y19189D01*
G01X8599Y19208D01*
G01X8563Y19225D01*
G01X8527Y19241D01*
G01X8489Y19254D01*
G01X8451Y19265D01*
G01X8413Y19274D01*
G01X8374Y19281D01*
G01X8335Y19287D01*
G01X8295Y19290D01*
G37*
G36*
G01X27548Y13774D02*
G01X26855Y13774D01*
G01X26855Y13764D01*
G01X26854Y13748D01*
G01X26850Y13733D01*
G01X26844Y13718D01*
G01X26836Y13705D01*
G01X26826Y13692D01*
G01X26814Y13682D01*
G01X26800Y13674D01*
G01X26786Y13668D01*
G01X26743Y13652D01*
G01X26701Y13634D01*
G01X26659Y13614D01*
G01X26619Y13592D01*
G01X26580Y13567D01*
G01X26542Y13541D01*
G01X26506Y13513D01*
G01X26471Y13484D01*
G01X26438Y13452D01*
G01X26406Y13419D01*
G01X26376Y13384D01*
G01X26348Y13348D01*
G01X26321Y13311D01*
G01X26298Y13273D01*
G01X26276Y13234D01*
G01X26256Y13195D01*
G01X26238Y13154D01*
G01X26222Y13113D01*
G01X26208Y13071D01*
G01X26197Y13028D01*
G01X26187Y12985D01*
G01X26179Y12941D01*
G01X26174Y12897D01*
G01X26171Y12853D01*
G01X26170Y12809D01*
G01X26171Y12766D01*
G01X26174Y12723D01*
G01X26179Y12680D01*
G01X26186Y12637D01*
G01X26195Y12595D01*
G01X26206Y12553D01*
G01X26219Y12512D01*
G01X26235Y12472D01*
G01X26252Y12432D01*
G01X26270Y12393D01*
G01X26291Y12355D01*
G01X26314Y12319D01*
G01X26338Y12283D01*
G01X26364Y12248D01*
G01X26391Y12215D01*
G01X26420Y12183D01*
G01X26451Y12153D01*
G01X26482Y12124D01*
G01X26516Y12096D01*
G01X26550Y12070D01*
G01X26586Y12046D01*
G01X26623Y12024D01*
G01X26661Y12003D01*
G01X26700Y11984D01*
G01X26739Y11967D01*
G01X26780Y11952D01*
G01X26821Y11939D01*
G01X26862Y11928D01*
G01X26905Y11919D01*
G01X26947Y11911D01*
G01X26990Y11906D01*
G01X27033Y11903D01*
G01X27076Y11902D01*
G01X27119Y11903D01*
G01X27162Y11906D01*
G01X27205Y11911D01*
G01X27248Y11919D01*
G01X27290Y11928D01*
G01X27332Y11939D01*
G01X27373Y11952D01*
G01X27413Y11967D01*
G01X27453Y11984D01*
G01X27492Y12003D01*
G01X27529Y12024D01*
G01X27566Y12046D01*
G01X27602Y12070D01*
G01X27637Y12096D01*
G01X27670Y12124D01*
G01X27702Y12153D01*
G01X27732Y12183D01*
G01X27761Y12215D01*
G01X27789Y12248D01*
G01X27815Y12283D01*
G01X27839Y12319D01*
G01X27861Y12355D01*
G01X27882Y12393D01*
G01X27901Y12432D01*
G01X27918Y12472D01*
G01X27933Y12512D01*
G01X27946Y12553D01*
G01X27957Y12595D01*
G01X27966Y12637D01*
G01X27973Y12680D01*
G01X27979Y12723D01*
G01X27982Y12766D01*
G01X27983Y12809D01*
G01X27982Y12853D01*
G01X27978Y12897D01*
G01X27973Y12941D01*
G01X27965Y12985D01*
G01X27956Y13028D01*
G01X27944Y13071D01*
G01X27930Y13113D01*
G01X27914Y13154D01*
G01X27897Y13194D01*
G01X27877Y13234D01*
G01X27855Y13273D01*
G01X27831Y13310D01*
G01X27806Y13346D01*
G01X27779Y13381D01*
G01X27750Y13415D01*
G01X27720Y13447D01*
G01X27688Y13478D01*
G01X27654Y13507D01*
G01X27620Y13534D01*
G01X27584Y13560D01*
G01X27571Y13570D01*
G01X27560Y13583D01*
G01X27551Y13596D01*
G01X27544Y13612D01*
G01X27540Y13628D01*
G01X27539Y13644D01*
G01X27541Y13667D01*
G01X27546Y13696D01*
G01X27548Y13725D01*
G01X27548Y13774D01*
G37*
G36*
G01X26253Y10761D02*
G01X25054Y10761D01*
G01X25030Y10760D01*
G01X25007Y10757D01*
G01X24984Y10752D01*
G01X24961Y10744D01*
G01X24940Y10735D01*
G01X24919Y10723D01*
G01X24899Y10710D01*
G01X24881Y10695D01*
G01X24864Y10678D01*
G01X24849Y10660D01*
G01X24836Y10640D01*
G01X24824Y10619D01*
G01X24815Y10598D01*
G01X24807Y10575D01*
G01X24802Y10552D01*
G01X24799Y10529D01*
G01X24798Y10505D01*
G01X24798Y9306D01*
G01X24799Y9282D01*
G01X24802Y9259D01*
G01X24807Y9236D01*
G01X24815Y9213D01*
G01X24824Y9192D01*
G01X24836Y9171D01*
G01X24849Y9151D01*
G01X24864Y9133D01*
G01X24881Y9116D01*
G01X24899Y9101D01*
G01X24919Y9088D01*
G01X24940Y9076D01*
G01X24961Y9067D01*
G01X24984Y9059D01*
G01X25007Y9054D01*
G01X25030Y9051D01*
G01X25054Y9050D01*
G01X26253Y9050D01*
G01X26277Y9051D01*
G01X26300Y9054D01*
G01X26323Y9059D01*
G01X26346Y9067D01*
G01X26367Y9076D01*
G01X26388Y9088D01*
G01X26408Y9101D01*
G01X26426Y9116D01*
G01X26443Y9133D01*
G01X26458Y9151D01*
G01X26471Y9171D01*
G01X26483Y9192D01*
G01X26492Y9213D01*
G01X26500Y9236D01*
G01X26505Y9259D01*
G01X26508Y9282D01*
G01X26509Y9306D01*
G01X26509Y10505D01*
G01X26508Y10529D01*
G01X26505Y10552D01*
G01X26500Y10575D01*
G01X26492Y10598D01*
G01X26483Y10619D01*
G01X26471Y10640D01*
G01X26458Y10660D01*
G01X26443Y10678D01*
G01X26426Y10695D01*
G01X26408Y10710D01*
G01X26388Y10723D01*
G01X26367Y10735D01*
G01X26346Y10744D01*
G01X26323Y10752D01*
G01X26300Y10757D01*
G01X26277Y10760D01*
G01X26253Y10761D01*
G37*
G36*
G01X25728Y13774D02*
G01X25035Y13774D01*
G01X25035Y13725D01*
G01X25036Y13701D01*
G01X25039Y13678D01*
G01X25045Y13655D01*
G01X25052Y13632D01*
G01X25062Y13611D01*
G01X25073Y13590D01*
G01X25087Y13570D01*
G01X25102Y13552D01*
G01X25119Y13535D01*
G01X25137Y13520D01*
G01X25156Y13507D01*
G01X25177Y13495D01*
G01X25199Y13486D01*
G01X25221Y13478D01*
G01X25244Y13473D01*
G01X25268Y13469D01*
G01X25292Y13468D01*
G01X25728Y13468D01*
G01X25728Y13774D01*
G37*

%LPD*%
G54D11*
G01X26291Y16550D02*
G01X29042Y16550D01*
G01X29464Y16129D01*
G01X29464Y15621D01*
G01X29718Y15367D01*
G01X31115Y15367D01*
G01X31496Y14986D01*
G01X31496Y9144D01*
G01X31242Y8890D01*
G01X30861Y8890D01*
G01X2710Y1016D02*
G01X2794Y932D01*
G01X2794Y635D01*
G01X2921Y508D01*
G01X16002Y508D01*
G01X16258Y764D01*
G01X16258Y2032D01*
G01X30861Y3810D02*
G01X29591Y2540D01*
G01X26416Y2540D01*
G01X23114Y5842D01*
G01X11938Y5842D01*
G01X10922Y4826D01*
G01X10922Y2694D01*
G01X10259Y2032D01*
G01X8257Y2032D02*
G01X8257Y5082D01*
G01X9525Y6350D01*
G01X25019Y6350D01*
G01X26289Y5080D01*
G01X30099Y5080D01*
G01X30861Y5842D01*
G01X30861Y6350D01*
G01X16256Y18034D02*
G01X15748Y17526D01*
G01X15748Y16510D01*
G01X23368Y1524D02*
G01X28321Y1524D01*
G01X28575Y1270D01*
G01X22255Y18034D02*
G01X21620Y18669D01*
G01X21209Y18669D01*
G01X26292Y16550D02*
G01X23662Y16550D01*
G01X23622Y16510D01*
G01X8255Y7239D02*
G01X7112Y7239D01*
G01X6858Y6985D01*
G01X6858Y2032D01*
G01X6477Y1651D01*
G01X1270Y1651D01*
G01X15367Y4318D02*
G01X14258Y3209D01*
G01X14258Y2033D01*
G01X14097Y9271D02*
G01X15621Y9271D01*
G01X16383Y10033D01*
G01X18796Y508D02*
G01X19685Y508D01*
G01X20066Y889D01*
G01X20257Y1080D01*
G01X20257Y2032D01*
G01X7493Y3810D02*
G01X7493Y4953D01*
G01X10033Y7493D01*
G01X12255Y9715D01*
G01X12255Y18034D01*
G01X8255Y7239D02*
G01X8255Y7112D01*
G01X7747Y6604D01*
G01X1270Y1651D02*
G01X1270Y1143D01*
G01X1397Y1016D01*
G01X1861Y1016D01*
G01X15113Y16002D02*
G01X15367Y15748D01*
G01X17780Y15748D01*
G01X18542Y16510D01*
G01X23622Y16510D01*
G54D28*
G01X8256Y17534D02*
G01X8256Y18534D01*
G01X10256Y17534D02*
G01X10256Y18534D01*
G01X12255Y17534D02*
G01X12255Y18534D01*
G01X14255Y17534D02*
G01X14255Y18534D01*
G01X16256Y17534D02*
G01X16256Y18534D01*
G01X18255Y17534D02*
G01X18255Y18534D01*
G01X20255Y17534D02*
G01X20255Y18534D01*
G01X22255Y17534D02*
G01X22255Y18533D01*
G01X22261Y2534D02*
G01X22261Y1534D01*
G01X20257Y2533D02*
G01X20257Y1533D01*
G01X18259Y2531D02*
G01X18259Y1531D01*
G01X16258Y2532D02*
G01X16258Y1532D01*
G01X14258Y2533D02*
G01X14258Y1533D01*
G01X12258Y2532D02*
G01X12258Y1532D01*
G01X10258Y2532D02*
G01X10258Y1532D01*
G01X8258Y2532D02*
G01X8258Y1532D01*
G36*
G01X2410Y691D02*
G01X3010Y691D01*
G01X3010Y1340D01*
G01X2410Y1340D01*
G01X2410Y691D01*
G37*
G36*
G01X1561Y691D02*
G01X2161Y691D01*
G01X2161Y1340D01*
G01X1561Y1340D01*
G01X1561Y691D01*
G37*
G36*
G01X25292Y13725D02*
G01X27292Y13725D01*
G01X27292Y14175D01*
G01X25292Y14175D01*
G01X25292Y13725D01*
G37*
G36*
G01X25292Y14375D02*
G01X27292Y14375D01*
G01X27292Y14825D01*
G01X25292Y14825D01*
G01X25292Y14375D01*
G37*
G36*
G01X25292Y15025D02*
G01X27292Y15025D01*
G01X27292Y15475D01*
G01X25292Y15475D01*
G01X25292Y15025D01*
G37*
G36*
G01X25292Y15675D02*
G01X27292Y15675D01*
G01X27292Y16125D01*
G01X25292Y16125D01*
G01X25292Y15675D01*
G37*
G36*
G01X25292Y16325D02*
G01X27292Y16325D01*
G01X27292Y16775D01*
G01X25292Y16775D01*
G01X25292Y16325D01*
G37*
G36*
G01X30004Y14444D02*
G01X30004Y12844D01*
G01X31203Y12844D01*
G01X31203Y14444D01*
G01X30004Y14444D01*
G37*
G36*
G01X29987Y17723D02*
G01X29987Y16122D01*
G01X31187Y16122D01*
G01X31187Y17723D01*
G01X29987Y17723D01*
G37*
G54D22*
G01X30861Y8890D03*
G01X30861Y6350D03*
G01X30861Y3810D03*
G01X30861Y1270D03*
G54D23*
G01X28575Y1270D03*
G54D24*
G01X28575Y3810D03*
G01X28575Y6350D03*
G36*
G01X26253Y10505D02*
G01X26253Y9306D01*
G01X25054Y9306D01*
G01X25054Y10505D01*
G01X26253Y10505D01*
G37*
G54D26*
G01X25654Y7366D03*
G54D27*
G01X27076Y17650D03*
G01X27076Y12809D03*
G54D14*
G01X17272Y3556D03*
G01X13589Y3556D03*
G01X9906Y3556D03*
G01X19939Y3937D03*
G01X24511Y5715D03*
G01X15748Y16510D03*
G01X23368Y1524D03*
G01X18542Y15367D03*
G01X21209Y18669D03*
G01X23622Y16510D03*
G01X1270Y1651D03*
G01X15367Y4318D03*
G01X16383Y10033D03*
G01X14097Y9271D03*
G01X18796Y508D03*
G01X7493Y3810D03*
G01X8255Y7239D03*
G01X10795Y5715D03*
G01X16637Y7620D03*
G01X27305Y7493D03*
G01X15113Y16002D03*
G54D27*
G01X29326Y11620D02*
G01X30226Y11620D01*
G01X29326Y18859D02*
G01X30226Y18859D01*
M00*
M02*
