;Layer: Drill PTH
;EasyEDA v6.1.51, Sun, 16 Jun 2019 04:45:57 GMT
;01268da5a8234bf897f73133ac2f115b,46bf6a40d4384fdb86bc8fc37bf60e4c,10
;Gerber Generator version 0.2
M48
METRIC,LZ,000.000
;Holesize 1 = 0.305 METRIC
T01C0.305
;Holesize 2 = 0.600 METRIC
T02C0.600
;Holesize 3 = 0.915 METRIC
T03C0.915
%
G05
G90
T01
X+001397Y+002159
X+001397Y+019812
X+004572Y+012065
X+003582Y+018542
X+006604Y+016891
X+010414Y+012827
X+003302Y+002794
X+005016Y+011112
X+004953Y+004364
X+008382Y+013081
X+001397Y+012954
X+011938Y+020193
X+006350Y+020320
X+007112Y+012446
X+006477Y+010287
T02
X+010414Y+002143
T03
X+013843Y+020066
X+013843Y+017526
X+013843Y+014986
X+013843Y+012446
M30
