G04 Layer: TopPasteMaskLayer*
G04 EasyEDA v6.1.51, Sun, 16 Jun 2019 04:45:57 GMT*
G04 01268da5a8234bf897f73133ac2f115b,46bf6a40d4384fdb86bc8fc37bf60e4c,10*
G04 Gerber Generator version 0.2*
G04 Scale: 100 percent, Rotated: No, Reflected: No *
G04 Dimensions in millimeters *
G04 leading zeros omitted , absolute positions ,3 integer and 3 decimal *
%FSLAX33Y33*%
%MOMM*%
G90*
G71D02*

%ADD13R,0.699999X1.250010*%
%ADD15R,0.999998X1.400048*%
%ADD16R,0.999998X1.099998*%
%ADD17R,1.499997X1.099998*%

%LPD*%
G54D13*
G01X10287Y9164D03*
G01X9337Y11663D03*
G01X11236Y11663D03*
G36*
G01X5777Y3865D02*
G01X5777Y4865D01*
G01X7176Y4865D01*
G01X7176Y3865D01*
G01X5777Y3865D01*
G37*
G36*
G01X5777Y6565D02*
G01X5777Y7565D01*
G01X7176Y7565D01*
G01X7176Y6565D01*
G01X5777Y6565D01*
G37*
G36*
G01X8326Y1459D02*
G01X7326Y1459D01*
G01X7326Y2858D01*
G01X8326Y2858D01*
G01X8326Y1459D01*
G37*
G36*
G01X5626Y1459D02*
G01X4626Y1459D01*
G01X4626Y2858D01*
G01X5626Y2858D01*
G01X5626Y1459D01*
G37*
G54D15*
G01X5126Y9144D03*
G01X7827Y9144D03*
G36*
G01X2729Y3865D02*
G01X2729Y4865D01*
G01X4128Y4865D01*
G01X4128Y3865D01*
G01X2729Y3865D01*
G37*
G36*
G01X2729Y6565D02*
G01X2729Y7565D01*
G01X4128Y7565D01*
G01X4128Y6565D01*
G01X2729Y6565D01*
G37*
G36*
G01X8698Y3865D02*
G01X8698Y4865D01*
G01X10097Y4865D01*
G01X10097Y3865D01*
G01X8698Y3865D01*
G37*
G36*
G01X8698Y6565D02*
G01X8698Y7565D01*
G01X10097Y7565D01*
G01X10097Y6565D01*
G01X8698Y6565D01*
G37*
G54D13*
G01X2159Y9291D03*
G01X1209Y11790D03*
G01X3108Y11790D03*
G36*
G01X11575Y17357D02*
G01X10576Y17357D01*
G01X10576Y18457D01*
G01X11575Y18457D01*
G01X11575Y17357D01*
G37*
G36*
G01X10176Y17357D02*
G01X9176Y17357D01*
G01X9176Y18457D01*
G01X10176Y18457D01*
G01X10176Y17357D01*
G37*
G36*
G01X11614Y15325D02*
G01X10614Y15325D01*
G01X10614Y16425D01*
G01X11614Y16425D01*
G01X11614Y15325D01*
G37*
G36*
G01X10214Y15325D02*
G01X9214Y15325D01*
G01X9214Y16425D01*
G01X10214Y16425D01*
G01X10214Y15325D01*
G37*
G54D16*
G01X9713Y19812D03*
G01X11114Y19812D03*
G01X9752Y13970D03*
G01X11152Y13970D03*
G54D17*
G01X1016Y18161D03*
G01X7315Y18161D03*
G01X1016Y15220D03*
G01X7315Y15240D03*
M00*
M02*
