G04 Layer: BottomSilkLayer*
G04 EasyEDA v6.2.35, 2019-08-16T20:57:05+08:00*
G04 ac69921650c84e06b2cbf5d8b71e85d1,46bf6a40d4384fdb86bc8fc37bf60e4c,10*
G04 Gerber Generator version 0.2*
G04 Scale: 100 percent, Rotated: No, Reflected: No *
G04 Dimensions in millimeters *
G04 leading zeros omitted , absolute positions ,3 integer and 3 decimal *
%FSLAX33Y33*%
%MOMM*%
G90*
G71D02*

%ADD10C,0.254000*%
%ADD33C,0.101600*%
%ADD34C,0.150012*%
%ADD35C,0.203200*%

%LPD*%
G54D33*
G01X2260Y584D02*
G01X2311Y584D01*
G01X2260Y1447D02*
G01X2311Y1447D01*
G54D10*
G01X26096Y11240D02*
G01X31836Y11240D01*
G01X26086Y11240D02*
G01X26086Y19239D01*
G01X26086Y19239D02*
G01X31826Y19239D01*
G01X31846Y11240D02*
G01X31846Y19239D01*
G01X31136Y11850D02*
G01X31136Y18619D01*
G01X31846Y11260D02*
G01X31726Y11260D01*
G01X31136Y11850D01*
G01X31826Y19210D02*
G01X31726Y19210D01*
G01X31136Y18619D01*
G01X24255Y18034D02*
G01X24255Y2034D01*
G01X24255Y2034D02*
G01X255Y2034D01*
G01X255Y2034D02*
G01X255Y18034D01*
G01X24255Y18034D01*
G01X7255Y17034D02*
G01X7255Y3034D01*
G01X6255Y5034D02*
G01X6255Y15034D01*
G01X1255Y15034D01*
G01X1255Y14034D01*
G01X4255Y14034D01*
G01X4255Y13034D01*
G01X1255Y13034D01*
G01X1255Y12034D01*
G01X4255Y12034D01*
G01X4255Y11034D01*
G01X1255Y11034D01*
G01X1255Y10034D01*
G01X4255Y10034D01*
G01X4255Y9034D01*
G01X1255Y9034D01*
G01X1255Y3034D01*
G01X9255Y16034D02*
G01X22255Y16034D01*
G01X22255Y4034D01*
G01X9255Y4034D01*
G01X9255Y16034D01*
G54D34*
G01X7901Y13530D02*
G01X8498Y13530D01*
G01X8610Y13568D01*
G01X8646Y13606D01*
G01X8684Y13680D01*
G01X8684Y13754D01*
G01X8646Y13830D01*
G01X8610Y13865D01*
G01X8498Y13903D01*
G01X8422Y13903D01*
G01X7901Y13284D02*
G01X8684Y13284D01*
G01X8684Y13284D02*
G01X8684Y12837D01*
G01X8087Y12031D02*
G01X8013Y12070D01*
G01X7940Y12143D01*
G01X7901Y12219D01*
G01X7901Y12367D01*
G01X7940Y12443D01*
G01X8013Y12517D01*
G01X8087Y12555D01*
G01X8199Y12590D01*
G01X8387Y12590D01*
G01X8498Y12555D01*
G01X8572Y12517D01*
G01X8646Y12443D01*
G01X8684Y12367D01*
G01X8684Y12219D01*
G01X8646Y12143D01*
G01X8572Y12070D01*
G01X8498Y12031D01*
G01X7901Y11414D02*
G01X8498Y11414D01*
G01X8610Y11450D01*
G01X8646Y11488D01*
G01X8684Y11562D01*
G01X8684Y11638D01*
G01X8646Y11711D01*
G01X8610Y11750D01*
G01X8498Y11788D01*
G01X8422Y11788D01*
G01X7901Y11168D02*
G01X8684Y11168D01*
G01X8684Y11168D02*
G01X8684Y10721D01*
G01X8087Y9916D02*
G01X8013Y9954D01*
G01X7940Y10027D01*
G01X7901Y10101D01*
G01X7901Y10251D01*
G01X7940Y10325D01*
G01X8013Y10401D01*
G01X8087Y10436D01*
G01X8199Y10474D01*
G01X8387Y10474D01*
G01X8498Y10436D01*
G01X8572Y10401D01*
G01X8646Y10325D01*
G01X8684Y10251D01*
G01X8684Y10101D01*
G01X8646Y10027D01*
G01X8572Y9954D01*
G01X8498Y9916D01*
G01X7901Y9296D02*
G01X8498Y9296D01*
G01X8610Y9334D01*
G01X8646Y9372D01*
G01X8684Y9446D01*
G01X8684Y9519D01*
G01X8646Y9596D01*
G01X8610Y9631D01*
G01X8498Y9669D01*
G01X8422Y9669D01*
G01X7901Y9049D02*
G01X8684Y9049D01*
G01X8684Y9049D02*
G01X8684Y8602D01*
G01X8087Y7797D02*
G01X8013Y7835D01*
G01X7940Y7909D01*
G01X7901Y7985D01*
G01X7901Y8133D01*
G01X7940Y8209D01*
G01X8013Y8282D01*
G01X8087Y8321D01*
G01X8199Y8356D01*
G01X8387Y8356D01*
G01X8498Y8321D01*
G01X8572Y8282D01*
G01X8646Y8209D01*
G01X8684Y8133D01*
G01X8684Y7985D01*
G01X8646Y7909D01*
G01X8572Y7835D01*
G01X8498Y7797D01*
G01X7901Y7180D02*
G01X8498Y7180D01*
G01X8610Y7216D01*
G01X8646Y7254D01*
G01X8684Y7327D01*
G01X8684Y7404D01*
G01X8646Y7477D01*
G01X8610Y7515D01*
G01X8498Y7553D01*
G01X8422Y7553D01*
G01X7901Y6934D02*
G01X8684Y6934D01*
G01X8684Y6934D02*
G01X8684Y6487D01*
G01X8087Y5681D02*
G01X8013Y5720D01*
G01X7940Y5793D01*
G01X7901Y5867D01*
G01X7901Y6017D01*
G01X7940Y6090D01*
G01X8013Y6167D01*
G01X8087Y6202D01*
G01X8199Y6240D01*
G01X8387Y6240D01*
G01X8498Y6202D01*
G01X8572Y6167D01*
G01X8646Y6090D01*
G01X8684Y6017D01*
G01X8684Y5867D01*
G01X8646Y5793D01*
G01X8572Y5720D01*
G01X8498Y5681D01*
G01X5461Y1562D02*
G01X5461Y607D01*
G01X5461Y1562D02*
G01X4869Y1562D01*
G01X5461Y1107D02*
G01X5097Y1107D01*
G01X4569Y1242D02*
G01X4569Y289D01*
G01X4569Y1107D02*
G01X4478Y1198D01*
G01X4389Y1242D01*
G01X4251Y1242D01*
G01X4160Y1198D01*
G01X4069Y1107D01*
G01X4025Y970D01*
G01X4025Y878D01*
G01X4069Y744D01*
G01X4160Y652D01*
G01X4251Y607D01*
G01X4389Y607D01*
G01X4478Y652D01*
G01X4569Y744D01*
G01X29464Y7586D02*
G01X30322Y7586D01*
G01X29464Y7874D02*
G01X29464Y7302D01*
G01X29337Y5334D02*
G01X30195Y5334D01*
G01X29337Y5334D02*
G01X29337Y4965D01*
G01X29377Y4843D01*
G01X29418Y4803D01*
G01X29499Y4762D01*
G01X29580Y4762D01*
G01X29664Y4803D01*
G01X29705Y4843D01*
G01X29745Y4965D01*
G01X29745Y5334D01*
G01X29745Y5046D02*
G01X30195Y4762D01*
G01X29542Y2306D02*
G01X29458Y2346D01*
G01X29377Y2428D01*
G01X29337Y2512D01*
G01X29337Y2674D01*
G01X29377Y2755D01*
G01X29458Y2839D01*
G01X29542Y2880D01*
G01X29664Y2921D01*
G01X29867Y2921D01*
G01X29992Y2880D01*
G01X30073Y2839D01*
G01X30154Y2755D01*
G01X30195Y2674D01*
G01X30195Y2512D01*
G01X30154Y2428D01*
G01X30073Y2346D01*
G01X29992Y2306D01*
G01X29867Y2306D01*
G01X29867Y2512D02*
G01X29867Y2306D01*
G01X29227Y10177D02*
G01X29227Y10586D01*
G01X29596Y10627D01*
G01X29555Y10586D01*
G01X29512Y10462D01*
G01X29512Y10340D01*
G01X29555Y10218D01*
G01X29636Y10137D01*
G01X29758Y10096D01*
G01X29839Y10096D01*
G01X29964Y10137D01*
G01X30045Y10218D01*
G01X30086Y10340D01*
G01X30086Y10462D01*
G01X30045Y10586D01*
G01X30005Y10627D01*
G01X29923Y10668D01*
G01X29227Y9824D02*
G01X30086Y9497D01*
G01X29227Y9171D02*
G01X30086Y9497D01*
G54D35*
G01X14513Y14856D02*
G01X16451Y14856D01*
G01X14513Y14856D02*
G01X14513Y13657D01*
G01X15435Y14856D02*
G01X15435Y14119D01*
G01X16451Y14856D02*
G01X16451Y13657D01*
G01X14790Y11755D02*
G01X14605Y11938D01*
G01X14513Y12214D01*
G01X14513Y12585D01*
G01X14605Y12862D01*
G01X14790Y13047D01*
G01X14973Y13047D01*
G01X15158Y12954D01*
G01X15250Y12862D01*
G01X15344Y12677D01*
G01X15529Y12123D01*
G01X15621Y11938D01*
G01X15712Y11846D01*
G01X15897Y11755D01*
G01X16174Y11755D01*
G01X16360Y11938D01*
G01X16451Y12214D01*
G01X16451Y12585D01*
G01X16360Y12862D01*
G01X16174Y13047D01*
G01X14513Y11145D02*
G01X16451Y11145D01*
G01X14513Y11145D02*
G01X14513Y10312D01*
G01X14605Y10035D01*
G01X14696Y9944D01*
G01X14881Y9852D01*
G01X15158Y9852D01*
G01X15344Y9944D01*
G01X15435Y10035D01*
G01X15529Y10312D01*
G01X15529Y11145D01*
G01X14881Y9243D02*
G01X14790Y9057D01*
G01X14513Y8780D01*
G01X16451Y8780D01*
G01X14973Y8077D02*
G01X14881Y8077D01*
G01X14696Y7985D01*
G01X14605Y7894D01*
G01X14513Y7708D01*
G01X14513Y7338D01*
G01X14605Y7155D01*
G01X14696Y7061D01*
G01X14881Y6969D01*
G01X15067Y6969D01*
G01X15250Y7061D01*
G01X15529Y7246D01*
G01X16451Y8171D01*
G01X16451Y6878D01*
G01X14513Y6268D02*
G01X16451Y6268D01*
G01X14513Y6268D02*
G01X14513Y5067D01*
G01X15435Y6268D02*
G01X15435Y5529D01*
M00*
M02*
