;Layer: Drill PTH
;EasyEDA v6.2.35, 2019-08-16T20:57:05+08:00
;ac69921650c84e06b2cbf5d8b71e85d1,46bf6a40d4384fdb86bc8fc37bf60e4c,10
;Gerber Generator version 0.2
M48
METRIC,LZ,000.000
;Holesize 1 = 0.305 METRIC
T01C0.305
;Holesize 2 = 0.701 METRIC
T02C0.701
;Holesize 3 = 0.720 METRIC
T03C0.720
;Holesize 4 = 0.901 METRIC
T04C0.901
;Holesize 5 = 0.915 METRIC
T05C0.915
;Holesize 6 = 1.000 METRIC
T06C1.000
%
G05
G90
T01
X+017272Y+003556
X+013589Y+003556
X+009906Y+003556
X+019939Y+003937
X+024511Y+005715
X+015748Y+016510
X+023368Y+001524
X+018542Y+015367
X+021209Y+018669
X+023622Y+016510
X+001270Y+001651
X+015367Y+004318
X+016383Y+010033
X+014097Y+009271
X+018796Y+000508
X+007493Y+003810
X+008255Y+007239
X+010795Y+005715
X+016637Y+007620
X+027305Y+007493
X+015113Y+016002
T02
X+030176Y+011620G85X+029376Y+011620
X+030176Y+018859G85X+029376Y+018859
T03
X+025654Y+009906
X+025654Y+007366
T04
X+027076Y+017650
X+027076Y+012809
T05
X+030861Y+008890
X+030861Y+006350
X+030861Y+003810
X+030861Y+001270
T06
X+028575Y+001270
X+028575Y+003810
X+028575Y+006350
M30
