G04 Layer: TopSilkLayer*
G04 EasyEDA v6.2.35, 2019-08-16T20:57:05+08:00*
G04 ac69921650c84e06b2cbf5d8b71e85d1,46bf6a40d4384fdb86bc8fc37bf60e4c,10*
G04 Gerber Generator version 0.2*
G04 Scale: 100 percent, Rotated: No, Reflected: No *
G04 Dimensions in millimeters *
G04 leading zeros omitted , absolute positions ,3 integer and 3 decimal *
%FSLAX33Y33*%
%MOMM*%
G90*
G71D02*

%ADD10C,0.254000*%
%ADD11C,0.200000*%
%ADD32C,0.152400*%

%LPD*%
G54D10*
G01X22482Y18467D02*
G01X23381Y18467D01*
G01X23381Y15866D01*
G01X18782Y15866D02*
G01X18782Y18467D01*
G01X19681Y18467D01*
G01X21604Y3263D02*
G01X21604Y2604D01*
G01X21604Y3263D01*
G01X21604Y2604D01*
G01X20789Y2604D01*
G01X20789Y5523D02*
G01X21604Y5523D01*
G01X21604Y4864D01*
G54D11*
G01X20055Y4363D02*
G01X20055Y3764D01*
G54D10*
G01X17945Y5094D02*
G01X18604Y5094D01*
G01X17945Y5094D01*
G01X18604Y5094D01*
G01X18604Y4279D01*
G01X15685Y4279D02*
G01X15685Y5094D01*
G01X16344Y5094D01*
G54D11*
G01X16845Y3545D02*
G01X17444Y3545D01*
G01X23964Y16528D02*
G01X23964Y17628D01*
G01X25565Y17628D01*
G01X25565Y16528D01*
G01X23964Y15728D02*
G01X23964Y14628D01*
G01X24964Y14628D01*
G01X25565Y14628D01*
G01X25565Y15728D01*
G01X21011Y2070D02*
G01X22111Y2070D01*
G01X22111Y469D01*
G01X21011Y469D01*
G01X20212Y2070D02*
G01X19111Y2070D01*
G01X19111Y1070D01*
G01X19111Y469D01*
G01X20212Y469D01*
G01X16580Y469D02*
G01X15480Y469D01*
G01X15480Y2070D01*
G01X16580Y2070D01*
G01X17379Y469D02*
G01X18480Y469D01*
G01X18480Y1469D01*
G01X18480Y2070D01*
G01X17379Y2070D01*
G01X25583Y3721D02*
G01X26683Y3721D01*
G01X26683Y2120D01*
G01X25583Y2120D01*
G01X24784Y3721D02*
G01X23683Y3721D01*
G01X23683Y2721D01*
G01X23683Y2120D01*
G01X24784Y2120D01*
G01X25545Y1943D02*
G01X26645Y1943D01*
G01X26645Y342D01*
G01X25545Y342D01*
G01X24745Y1943D02*
G01X23645Y1943D01*
G01X23645Y943D01*
G01X23645Y342D01*
G01X24745Y342D01*
G01X16598Y16528D02*
G01X16598Y17628D01*
G01X18199Y17628D01*
G01X18199Y16528D01*
G01X16598Y15728D02*
G01X16598Y14628D01*
G01X17598Y14628D01*
G01X18199Y14628D01*
G01X18199Y15728D01*
G01X25545Y5499D02*
G01X26645Y5499D01*
G01X26645Y3898D01*
G01X25545Y3898D01*
G01X24745Y5499D02*
G01X23645Y5499D01*
G01X23645Y4499D01*
G01X23645Y3898D01*
G01X24745Y3898D01*
G01X10216Y2070D02*
G01X11316Y2070D01*
G01X11316Y469D01*
G01X10216Y469D01*
G01X9417Y2070D02*
G01X8316Y2070D01*
G01X8316Y1070D01*
G01X8316Y469D01*
G01X9417Y469D01*
G54D10*
G01X10579Y5094D02*
G01X11238Y5094D01*
G01X10579Y5094D01*
G01X11238Y5094D01*
G01X11238Y4279D01*
G01X8319Y4279D02*
G01X8319Y5094D01*
G01X8978Y5094D01*
G54D11*
G01X9479Y3545D02*
G01X10078Y3545D01*
G01X13772Y2070D02*
G01X14872Y2070D01*
G01X14872Y469D01*
G01X13772Y469D01*
G01X12973Y2070D02*
G01X11872Y2070D01*
G01X11872Y1070D01*
G01X11872Y469D01*
G01X12973Y469D01*
G54D10*
G01X14262Y5094D02*
G01X14921Y5094D01*
G01X14262Y5094D01*
G01X14921Y5094D01*
G01X14921Y4279D01*
G01X12002Y4279D02*
G01X12002Y5094D01*
G01X12661Y5094D01*
G54D11*
G01X13162Y3545D02*
G01X13761Y3545D01*
G54D10*
G01X27075Y810D02*
G01X27075Y6810D01*
G01X31075Y810D02*
G01X31075Y6810D01*
G01X31075Y6810D02*
G01X29629Y6810D01*
G01X31075Y810D02*
G01X29725Y810D01*
G01X27521Y6810D02*
G01X27075Y6810D01*
G01X27425Y810D02*
G01X27075Y810D01*
G01X25654Y9931D02*
G01X25654Y7366D01*
G01X26568Y8153D02*
G01X24739Y8153D01*
G01X25679Y8178D02*
G01X26517Y9017D01*
G01X24790Y9017D01*
G01X25628Y8178D01*
G01X25628Y8153D01*
G01X27765Y7466D02*
G01X26825Y8405D01*
G01X26825Y7999D01*
G01X26825Y8405D02*
G01X27206Y8405D01*
G01X27917Y8329D02*
G01X26977Y9269D01*
G01X26977Y8863D01*
G01X26977Y9269D02*
G01X27358Y9269D01*
G01X9294Y18403D02*
G01X12295Y18403D01*
G01X9294Y16902D02*
G01X12295Y16902D01*
G01X10044Y18403D02*
G01X10044Y16902D01*
G01X10044Y17653D02*
G01X10795Y18153D01*
G01X10795Y17152D01*
G01X10044Y17653D01*
G01X6996Y12723D02*
G01X6996Y15724D01*
G01X8497Y12723D02*
G01X8497Y15724D01*
G01X6996Y13473D02*
G01X8497Y13473D01*
G01X7747Y13473D02*
G01X7246Y14224D01*
G01X8247Y14224D01*
G01X7747Y13473D01*
G01X9294Y11545D02*
G01X12295Y11545D01*
G01X9294Y10044D02*
G01X12295Y10044D01*
G01X10044Y11545D02*
G01X10044Y10044D01*
G01X10044Y10795D02*
G01X10795Y11295D01*
G01X10795Y10294D01*
G01X10044Y10795D01*
G01X12838Y12723D02*
G01X12838Y15724D01*
G01X14339Y12723D02*
G01X14339Y15724D01*
G01X12838Y13473D02*
G01X14339Y13473D01*
G01X13589Y13473D02*
G01X13088Y14224D01*
G01X14089Y14224D01*
G01X13589Y13473D01*
G01X10044Y12723D02*
G01X10044Y15724D01*
G01X11545Y12723D02*
G01X11545Y15724D01*
G01X10044Y13473D02*
G01X11545Y13473D01*
G01X10795Y13473D02*
G01X10294Y14224D01*
G01X11295Y14224D01*
G01X10795Y13473D01*
G54D11*
G01X3358Y2070D02*
G01X4458Y2070D01*
G01X4458Y469D01*
G01X3358Y469D01*
G01X2559Y2070D02*
G01X1458Y2070D01*
G01X1458Y1070D01*
G01X1458Y469D01*
G01X2559Y469D01*
G01X6039Y469D02*
G01X4939Y469D01*
G01X4939Y2070D01*
G01X6039Y2070D01*
G01X6838Y469D02*
G01X7939Y469D01*
G01X7939Y1469D01*
G01X7939Y2070D01*
G01X6838Y2070D01*
G54D10*
G01X25019Y13017D02*
G01X25019Y6731D01*
G01X17526Y6731D01*
G01X17526Y13017D01*
G01X25019Y13017D01*
G54D32*
G01X20447Y3774D02*
G01X20482Y3700D01*
G01X20556Y3629D01*
G01X20629Y3591D01*
G01X20739Y3556D01*
G01X20919Y3556D01*
G01X21028Y3591D01*
G01X21102Y3629D01*
G01X21173Y3700D01*
G01X21211Y3774D01*
G01X21211Y3919D01*
G01X21173Y3992D01*
G01X21102Y4064D01*
G01X21028Y4102D01*
G01X20919Y4137D01*
G01X20739Y4137D01*
G01X20629Y4102D01*
G01X20556Y4064D01*
G01X20482Y3992D01*
G01X20447Y3919D01*
G01X20447Y3774D01*
G01X21066Y3883D02*
G01X21282Y4102D01*
G01X20591Y4378D02*
G01X20556Y4450D01*
G01X20447Y4559D01*
G01X21211Y4559D01*
G01X16667Y4826D02*
G01X16593Y4787D01*
G01X16522Y4716D01*
G01X16484Y4643D01*
G01X16449Y4533D01*
G01X16449Y4353D01*
G01X16484Y4244D01*
G01X16522Y4170D01*
G01X16593Y4097D01*
G01X16667Y4061D01*
G01X16812Y4061D01*
G01X16885Y4097D01*
G01X16957Y4170D01*
G01X16995Y4244D01*
G01X17030Y4353D01*
G01X17030Y4533D01*
G01X16995Y4643D01*
G01X16957Y4716D01*
G01X16885Y4787D01*
G01X16812Y4826D01*
G01X16667Y4826D01*
G01X16776Y4206D02*
G01X16995Y3990D01*
G01X17307Y4643D02*
G01X17307Y4681D01*
G01X17343Y4752D01*
G01X17378Y4787D01*
G01X17452Y4826D01*
G01X17597Y4826D01*
G01X17670Y4787D01*
G01X17706Y4752D01*
G01X17744Y4681D01*
G01X17744Y4607D01*
G01X17706Y4533D01*
G01X17635Y4424D01*
G01X17272Y4061D01*
G01X17780Y4061D01*
G01X24605Y18516D02*
G01X24566Y18590D01*
G01X24495Y18661D01*
G01X24422Y18699D01*
G01X24277Y18699D01*
G01X24203Y18661D01*
G01X24132Y18590D01*
G01X24094Y18516D01*
G01X24058Y18407D01*
G01X24058Y18227D01*
G01X24094Y18117D01*
G01X24132Y18044D01*
G01X24203Y17970D01*
G01X24277Y17934D01*
G01X24422Y17934D01*
G01X24495Y17970D01*
G01X24566Y18044D01*
G01X24605Y18117D01*
G01X25280Y18699D02*
G01X24917Y18699D01*
G01X24881Y18371D01*
G01X24917Y18407D01*
G01X25026Y18445D01*
G01X25135Y18445D01*
G01X25245Y18407D01*
G01X25316Y18336D01*
G01X25354Y18227D01*
G01X25354Y18153D01*
G01X25316Y18044D01*
G01X25245Y17970D01*
G01X25135Y17934D01*
G01X25026Y17934D01*
G01X24917Y17970D01*
G01X24881Y18008D01*
G01X24843Y18079D01*
G01X22661Y3302D02*
G01X21897Y3302D01*
G01X22661Y3302D02*
G01X22661Y2974D01*
G01X22623Y2865D01*
G01X22588Y2829D01*
G01X22517Y2794D01*
G01X22443Y2794D01*
G01X22369Y2829D01*
G01X22334Y2865D01*
G01X22298Y2974D01*
G01X22298Y3302D01*
G01X22298Y3048D02*
G01X21897Y2794D01*
G01X22517Y2552D02*
G01X22552Y2479D01*
G01X22661Y2372D01*
G01X21897Y2372D01*
G01X16708Y2159D02*
G01X17472Y2159D01*
G01X16708Y2159D02*
G01X16708Y2486D01*
G01X16746Y2595D01*
G01X16781Y2631D01*
G01X16852Y2667D01*
G01X16926Y2667D01*
G01X17000Y2631D01*
G01X17035Y2595D01*
G01X17071Y2486D01*
G01X17071Y2159D01*
G01X17071Y2413D02*
G01X17472Y2667D01*
G01X16891Y2943D02*
G01X16852Y2943D01*
G01X16781Y2981D01*
G01X16746Y3017D01*
G01X16708Y3088D01*
G01X16708Y3235D01*
G01X16746Y3307D01*
G01X16781Y3345D01*
G01X16852Y3380D01*
G01X16926Y3380D01*
G01X17000Y3345D01*
G01X17109Y3271D01*
G01X17472Y2908D01*
G01X17472Y3416D01*
G01X22804Y2286D02*
G01X23568Y2286D01*
G01X22804Y2286D02*
G01X22804Y2613D01*
G01X22842Y2722D01*
G01X22877Y2758D01*
G01X22948Y2794D01*
G01X23022Y2794D01*
G01X23096Y2758D01*
G01X23131Y2722D01*
G01X23167Y2613D01*
G01X23167Y2286D01*
G01X23167Y2540D02*
G01X23568Y2794D01*
G01X22804Y3398D02*
G01X23314Y3035D01*
G01X23314Y3581D01*
G01X22804Y3398D02*
G01X23568Y3398D01*
G01X22550Y508D02*
G01X23314Y508D01*
G01X22550Y508D02*
G01X22550Y835D01*
G01X22588Y944D01*
G01X22623Y980D01*
G01X22694Y1016D01*
G01X22768Y1016D01*
G01X22842Y980D01*
G01X22877Y944D01*
G01X22913Y835D01*
G01X22913Y508D01*
G01X22913Y762D02*
G01X23314Y1016D01*
G01X22550Y1694D02*
G01X22550Y1330D01*
G01X22877Y1292D01*
G01X22842Y1330D01*
G01X22804Y1437D01*
G01X22804Y1546D01*
G01X22842Y1656D01*
G01X22913Y1729D01*
G01X23022Y1765D01*
G01X23096Y1765D01*
G01X23205Y1729D01*
G01X23279Y1656D01*
G01X23314Y1546D01*
G01X23314Y1437D01*
G01X23279Y1330D01*
G01X23241Y1292D01*
G01X23169Y1257D01*
G01X17365Y18516D02*
G01X17327Y18590D01*
G01X17256Y18661D01*
G01X17183Y18699D01*
G01X17038Y18699D01*
G01X16964Y18661D01*
G01X16893Y18590D01*
G01X16855Y18516D01*
G01X16819Y18407D01*
G01X16819Y18227D01*
G01X16855Y18117D01*
G01X16893Y18044D01*
G01X16964Y17970D01*
G01X17038Y17934D01*
G01X17183Y17934D01*
G01X17256Y17970D01*
G01X17327Y18044D01*
G01X17365Y18117D01*
G01X17642Y18516D02*
G01X17642Y18554D01*
G01X17678Y18625D01*
G01X17713Y18661D01*
G01X17787Y18699D01*
G01X17932Y18699D01*
G01X18006Y18661D01*
G01X18041Y18625D01*
G01X18077Y18554D01*
G01X18077Y18481D01*
G01X18041Y18407D01*
G01X17967Y18298D01*
G01X17604Y17934D01*
G01X18115Y17934D01*
G01X22839Y5366D02*
G01X22796Y5448D01*
G01X22715Y5529D01*
G01X22633Y5570D01*
G01X22471Y5570D01*
G01X22387Y5529D01*
G01X22306Y5448D01*
G01X22265Y5366D01*
G01X22225Y5242D01*
G01X22225Y5039D01*
G01X22265Y4917D01*
G01X22306Y4833D01*
G01X22387Y4752D01*
G01X22471Y4711D01*
G01X22633Y4711D01*
G01X22715Y4752D01*
G01X22796Y4833D01*
G01X22839Y4917D01*
G01X23108Y5407D02*
G01X23190Y5448D01*
G01X23312Y5570D01*
G01X23312Y4711D01*
G01X9469Y2286D02*
G01X10233Y2286D01*
G01X9469Y2286D02*
G01X9469Y2613D01*
G01X9507Y2722D01*
G01X9542Y2758D01*
G01X9613Y2794D01*
G01X9687Y2794D01*
G01X9761Y2758D01*
G01X9796Y2722D01*
G01X9832Y2613D01*
G01X9832Y2286D01*
G01X9832Y2540D02*
G01X10233Y2794D01*
G01X9578Y3472D02*
G01X9507Y3434D01*
G01X9469Y3324D01*
G01X9469Y3253D01*
G01X9507Y3144D01*
G01X9613Y3070D01*
G01X9796Y3035D01*
G01X9979Y3035D01*
G01X10124Y3070D01*
G01X10198Y3144D01*
G01X10233Y3253D01*
G01X10233Y3289D01*
G01X10198Y3398D01*
G01X10124Y3472D01*
G01X10015Y3507D01*
G01X9979Y3507D01*
G01X9870Y3472D01*
G01X9796Y3398D01*
G01X9761Y3289D01*
G01X9761Y3253D01*
G01X9796Y3144D01*
G01X9870Y3070D01*
G01X9979Y3035D01*
G01X9362Y4825D02*
G01X9288Y4790D01*
G01X9217Y4716D01*
G01X9179Y4643D01*
G01X9144Y4533D01*
G01X9144Y4353D01*
G01X9179Y4244D01*
G01X9217Y4170D01*
G01X9288Y4099D01*
G01X9362Y4061D01*
G01X9507Y4061D01*
G01X9580Y4099D01*
G01X9652Y4170D01*
G01X9690Y4244D01*
G01X9725Y4353D01*
G01X9725Y4533D01*
G01X9690Y4643D01*
G01X9652Y4716D01*
G01X9580Y4790D01*
G01X9507Y4825D01*
G01X9362Y4825D01*
G01X9471Y4206D02*
G01X9690Y3990D01*
G01X10038Y4825D02*
G01X10439Y4825D01*
G01X10220Y4533D01*
G01X10330Y4533D01*
G01X10401Y4498D01*
G01X10439Y4462D01*
G01X10474Y4353D01*
G01X10474Y4279D01*
G01X10439Y4170D01*
G01X10365Y4099D01*
G01X10256Y4061D01*
G01X10147Y4061D01*
G01X10038Y4099D01*
G01X10002Y4135D01*
G01X9966Y4206D01*
G01X13025Y2159D02*
G01X13789Y2159D01*
G01X13025Y2159D02*
G01X13025Y2486D01*
G01X13063Y2595D01*
G01X13098Y2631D01*
G01X13169Y2667D01*
G01X13243Y2667D01*
G01X13317Y2631D01*
G01X13352Y2595D01*
G01X13388Y2486D01*
G01X13388Y2159D01*
G01X13388Y2413D02*
G01X13789Y2667D01*
G01X13025Y3416D02*
G01X13789Y3053D01*
G01X13025Y2908D02*
G01X13025Y3416D01*
G01X13045Y4825D02*
G01X12971Y4790D01*
G01X12900Y4716D01*
G01X12862Y4643D01*
G01X12827Y4533D01*
G01X12827Y4353D01*
G01X12862Y4244D01*
G01X12900Y4170D01*
G01X12971Y4099D01*
G01X13045Y4061D01*
G01X13190Y4061D01*
G01X13263Y4099D01*
G01X13335Y4170D01*
G01X13373Y4244D01*
G01X13408Y4353D01*
G01X13408Y4533D01*
G01X13373Y4643D01*
G01X13335Y4716D01*
G01X13263Y4790D01*
G01X13190Y4825D01*
G01X13045Y4825D01*
G01X13154Y4206D02*
G01X13373Y3990D01*
G01X14013Y4825D02*
G01X13649Y4315D01*
G01X14193Y4315D01*
G01X14013Y4825D02*
G01X14013Y4061D01*
G01X28648Y8183D02*
G01X28648Y7419D01*
G01X28887Y8183D02*
G01X28887Y7419D01*
G01X28887Y8183D02*
G01X29215Y8183D01*
G01X29324Y8145D01*
G01X29362Y8110D01*
G01X29397Y8039D01*
G01X29397Y7965D01*
G01X29362Y7891D01*
G01X29324Y7856D01*
G01X29215Y7820D01*
G01X28887Y7820D01*
G01X29143Y7820D02*
G01X29397Y7419D01*
G01X29636Y8183D02*
G01X29636Y7419D01*
G01X29636Y8183D02*
G01X30111Y8183D01*
G01X29636Y7820D02*
G01X29928Y7820D01*
G01X26417Y10596D02*
G01X26417Y9832D01*
G01X26655Y10596D02*
G01X26655Y9832D01*
G01X26655Y10596D02*
G01X26983Y10596D01*
G01X27092Y10558D01*
G01X27128Y10523D01*
G01X27166Y10452D01*
G01X27166Y10378D01*
G01X27128Y10304D01*
G01X27092Y10269D01*
G01X26983Y10233D01*
G01X26655Y10233D01*
G01X26909Y10233D02*
G01X27166Y9832D01*
G01X27405Y10452D02*
G01X27478Y10487D01*
G01X27587Y10596D01*
G01X27587Y9832D01*
G01X13081Y17835D02*
G01X13081Y17070D01*
G01X12827Y17835D02*
G01X13335Y17835D01*
G01X13576Y17835D02*
G01X13576Y17070D01*
G01X13576Y17835D02*
G01X13903Y17835D01*
G01X14013Y17799D01*
G01X14048Y17761D01*
G01X14084Y17690D01*
G01X14084Y17616D01*
G01X14048Y17545D01*
G01X14013Y17507D01*
G01X13903Y17471D01*
G01X13576Y17471D01*
G01X13830Y17471D02*
G01X14084Y17070D01*
G01X14361Y17654D02*
G01X14361Y17690D01*
G01X14396Y17761D01*
G01X14434Y17799D01*
G01X14505Y17835D01*
G01X14653Y17835D01*
G01X14724Y17799D01*
G01X14762Y17761D01*
G01X14798Y17690D01*
G01X14798Y17616D01*
G01X14762Y17545D01*
G01X14688Y17436D01*
G01X14325Y17070D01*
G01X14833Y17070D01*
G01X5969Y13614D02*
G01X6733Y13614D01*
G01X5969Y13360D02*
G01X5969Y13868D01*
G01X5969Y14109D02*
G01X6733Y14109D01*
G01X5969Y14109D02*
G01X5969Y14437D01*
G01X6004Y14546D01*
G01X6042Y14582D01*
G01X6113Y14617D01*
G01X6187Y14617D01*
G01X6258Y14582D01*
G01X6296Y14546D01*
G01X6332Y14437D01*
G01X6332Y14109D01*
G01X6332Y14363D02*
G01X6733Y14617D01*
G01X5969Y14930D02*
G01X5969Y15331D01*
G01X6258Y15113D01*
G01X6258Y15222D01*
G01X6296Y15295D01*
G01X6332Y15331D01*
G01X6441Y15367D01*
G01X6515Y15367D01*
G01X6624Y15331D01*
G01X6695Y15257D01*
G01X6733Y15148D01*
G01X6733Y15039D01*
G01X6695Y14930D01*
G01X6659Y14894D01*
G01X6586Y14859D01*
G01X10033Y9580D02*
G01X10033Y8815D01*
G01X9779Y9580D02*
G01X10287Y9580D01*
G01X10528Y9580D02*
G01X10528Y8815D01*
G01X10528Y9580D02*
G01X10855Y9580D01*
G01X10965Y9544D01*
G01X11000Y9506D01*
G01X11036Y9435D01*
G01X11036Y9361D01*
G01X11000Y9290D01*
G01X10965Y9252D01*
G01X10855Y9216D01*
G01X10528Y9216D01*
G01X10782Y9216D02*
G01X11036Y8815D01*
G01X11640Y9580D02*
G01X11277Y9072D01*
G01X11823Y9072D01*
G01X11640Y9580D02*
G01X11640Y8815D01*
G01X14732Y13487D02*
G01X15496Y13487D01*
G01X14732Y13233D02*
G01X14732Y13741D01*
G01X14732Y13982D02*
G01X15496Y13982D01*
G01X14732Y13982D02*
G01X14732Y14310D01*
G01X14767Y14419D01*
G01X14805Y14455D01*
G01X14876Y14490D01*
G01X14950Y14490D01*
G01X15021Y14455D01*
G01X15059Y14419D01*
G01X15095Y14310D01*
G01X15095Y13982D01*
G01X15095Y14236D02*
G01X15496Y14490D01*
G01X14732Y15168D02*
G01X14732Y14803D01*
G01X15059Y14767D01*
G01X15021Y14803D01*
G01X14986Y14912D01*
G01X14986Y15021D01*
G01X15021Y15130D01*
G01X15095Y15204D01*
G01X15204Y15240D01*
G01X15278Y15240D01*
G01X15387Y15204D01*
G01X15458Y15130D01*
G01X15496Y15021D01*
G01X15496Y14912D01*
G01X15458Y14803D01*
G01X15422Y14767D01*
G01X15349Y14732D01*
G01X9017Y13561D02*
G01X9781Y13561D01*
G01X9017Y13307D02*
G01X9017Y13815D01*
G01X9017Y14056D02*
G01X9781Y14056D01*
G01X9017Y14056D02*
G01X9017Y14383D01*
G01X9052Y14493D01*
G01X9090Y14528D01*
G01X9161Y14564D01*
G01X9235Y14564D01*
G01X9306Y14528D01*
G01X9344Y14493D01*
G01X9380Y14383D01*
G01X9380Y14056D01*
G01X9380Y14310D02*
G01X9781Y14564D01*
G01X9161Y14805D02*
G01X9126Y14876D01*
G01X9017Y14985D01*
G01X9781Y14985D01*
G01X2413Y3103D02*
G01X2413Y2339D01*
G01X2413Y3103D02*
G01X2740Y3103D01*
G01X2849Y3065D01*
G01X2885Y3030D01*
G01X2921Y2959D01*
G01X2921Y2885D01*
G01X2885Y2811D01*
G01X2849Y2776D01*
G01X2740Y2740D01*
G01X2413Y2740D01*
G01X2667Y2740D02*
G01X2921Y2339D01*
G01X3342Y3103D02*
G01X3235Y3065D01*
G01X3197Y2994D01*
G01X3197Y2921D01*
G01X3235Y2849D01*
G01X3307Y2811D01*
G01X3451Y2776D01*
G01X3561Y2740D01*
G01X3634Y2667D01*
G01X3670Y2593D01*
G01X3670Y2484D01*
G01X3634Y2413D01*
G01X3599Y2374D01*
G01X3489Y2339D01*
G01X3342Y2339D01*
G01X3235Y2374D01*
G01X3197Y2413D01*
G01X3162Y2484D01*
G01X3162Y2593D01*
G01X3197Y2667D01*
G01X3271Y2740D01*
G01X3380Y2776D01*
G01X3525Y2811D01*
G01X3599Y2849D01*
G01X3634Y2921D01*
G01X3634Y2994D01*
G01X3599Y3065D01*
G01X3489Y3103D01*
G01X3342Y3103D01*
G01X5842Y3103D02*
G01X5842Y2339D01*
G01X5842Y3103D02*
G01X6169Y3103D01*
G01X6278Y3065D01*
G01X6314Y3030D01*
G01X6350Y2959D01*
G01X6350Y2885D01*
G01X6314Y2811D01*
G01X6278Y2776D01*
G01X6169Y2740D01*
G01X5842Y2740D01*
G01X6096Y2740D02*
G01X6350Y2339D01*
G01X7063Y2849D02*
G01X7028Y2740D01*
G01X6954Y2667D01*
G01X6845Y2631D01*
G01X6809Y2631D01*
G01X6700Y2667D01*
G01X6626Y2740D01*
G01X6591Y2849D01*
G01X6591Y2885D01*
G01X6626Y2994D01*
G01X6700Y3065D01*
G01X6809Y3103D01*
G01X6845Y3103D01*
G01X6954Y3065D01*
G01X7028Y2994D01*
G01X7063Y2849D01*
G01X7063Y2667D01*
G01X7028Y2484D01*
G01X6954Y2374D01*
G01X6845Y2339D01*
G01X6771Y2339D01*
G01X6664Y2374D01*
G01X6626Y2448D01*
G01X20815Y11193D02*
G01X19725Y11193D01*
G01X20815Y11557D02*
G01X20815Y10830D01*
G01X20815Y10487D02*
G01X19725Y10487D01*
G01X20815Y10144D02*
G01X19725Y10144D01*
G01X20815Y10144D02*
G01X20815Y9677D01*
G01X20764Y9519D01*
G01X20713Y9469D01*
G01X20609Y9415D01*
G01X20505Y9415D01*
G01X20401Y9469D01*
G01X20347Y9519D01*
G01X20297Y9677D01*
G01X20297Y10144D01*
G01X20297Y9779D02*
G01X19725Y9415D01*
G01X20815Y9072D02*
G01X19725Y9072D01*
G01X20815Y9072D02*
G01X20815Y8397D01*
G01X20297Y9072D02*
G01X20297Y8658D01*
G54D10*
G75*
G01X31075Y1656D02*
G03X31075Y5964I-650J2154D01*
G01*
G75*
G01X23825Y9906D02*
G03X23825Y9906I-1092J0D01*
G01*
M00*
M02*
