G04 Layer: BottomLayer*
G04 EasyEDA v6.1.51, Sun, 16 Jun 2019 04:45:57 GMT*
G04 01268da5a8234bf897f73133ac2f115b,46bf6a40d4384fdb86bc8fc37bf60e4c,10*
G04 Gerber Generator version 0.2*
G04 Scale: 100 percent, Rotated: No, Reflected: No *
G04 Dimensions in millimeters *
G04 leading zeros omitted , absolute positions ,3 integer and 3 decimal *
%FSLAX33Y33*%
%MOMM*%
G90*
G71D02*

%ADD11C,0.200000*%
%ADD12C,0.609600*%
%ADD16R,0.999998X1.099998*%
%ADD18C,1.524000*%
%ADD19C,0.999998*%
%ADD20C,0.299999*%
%ADD21C,1.999996*%
%ADD22C,0.699999*%
%ADD23C,0.799998*%

%LPD*%
G54D11*
G01X2715Y11483D02*
G01X2715Y12240D01*
G01X3302Y12827D01*
G01X4826Y12827D01*
G01X5207Y13208D01*
G01X5207Y19641D01*
G01X5461Y19641D01*
G01X3302Y2794D02*
G01X4318Y2794D01*
G01X4914Y2197D01*
G01X4914Y922D01*
G01X2181Y17526D02*
G01X2181Y15852D01*
G01X2479Y15554D01*
G01X3789Y15554D01*
G01X3582Y19685D02*
G01X3582Y18542D01*
G01X3582Y18542D02*
G01X3582Y17526D01*
G01X1397Y2159D02*
G01X889Y2159D01*
G01X508Y2540D01*
G01X508Y14351D01*
G01X762Y14605D01*
G01X1290Y14605D01*
G01X1397Y19812D02*
G01X2055Y19812D01*
G01X2182Y19685D01*
G01X3812Y11483D02*
G01X3736Y11483D01*
G01X4318Y12065D01*
G01X4572Y12065D01*
G01X8065Y14224D02*
G01X8065Y15706D01*
G01X7261Y16510D01*
G01X9313Y11483D02*
G01X9313Y18458D01*
G01X8763Y19009D01*
G01X10221Y14224D02*
G01X10133Y14135D01*
G01X9313Y14135D01*
G01X6604Y16891D02*
G01X6985Y16891D01*
G01X7366Y16510D01*
G01X7261Y16510D01*
G01X5016Y11112D02*
G01X5016Y4428D01*
G01X4953Y4365D01*
G01X4572Y12065D02*
G01X4699Y12065D01*
G01X5715Y13081D01*
G01X8382Y13081D01*
G01X10414Y1023D02*
G01X10432Y1041D01*
G01X13462Y1041D01*
G01X7114Y11483D02*
G01X7112Y12446D01*
G01X6477Y10287D02*
G01X6013Y10750D01*
G01X6013Y11483D01*
G54D20*
G01X5760Y13634D02*
G01X5760Y18888D01*
G01X5760Y18888D02*
G01X5785Y18888D01*
G01X6239Y19341D02*
G01X6239Y19941D01*
G01X5785Y20395D02*
G01X5136Y20395D01*
G01X4682Y19941D02*
G01X4682Y19819D01*
G01X4653Y19641D02*
G01X4653Y16291D01*
G01X4414Y16358D02*
G01X3164Y16358D01*
G01X2759Y16108D02*
G01X2735Y16108D01*
G01X2735Y16108D02*
G01X2735Y16525D01*
G01X3083Y16522D02*
G01X4082Y16522D01*
G01X4536Y16975D02*
G01X4536Y18075D01*
G01X4536Y19134D02*
G01X4536Y20234D01*
G01X4082Y20688D02*
G01X3083Y20688D01*
G01X2683Y20688D02*
G01X1683Y20688D01*
G01X1683Y18681D02*
G01X2683Y18681D01*
G01X2683Y18529D02*
G01X1683Y18529D01*
G01X1229Y18075D02*
G01X1229Y16975D01*
G01X1628Y16525D02*
G01X1628Y15852D01*
G01X1790Y15460D02*
G01X1841Y15408D01*
G01X1841Y15408D02*
G01X665Y15408D01*
G01X466Y15362D02*
G01X466Y20742D01*
G01X466Y20742D02*
G01X7692Y20742D01*
G01X7309Y19759D02*
G01X7309Y18259D01*
G01X6458Y16146D02*
G01X6458Y15910D01*
G01X7112Y14774D02*
G01X7112Y13674D01*
G01X7113Y13634D02*
G01X5760Y13634D01*
G01X5760Y13811D02*
G01X7112Y13811D01*
G01X5760Y14416D02*
G01X7112Y14416D01*
G01X5760Y15021D02*
G01X7185Y15021D01*
G01X466Y15626D02*
G01X1675Y15626D01*
G01X5760Y15626D02*
G01X6509Y15626D01*
G01X466Y16232D02*
G01X1628Y16232D01*
G01X2735Y16232D02*
G01X2850Y16232D01*
G01X5760Y16232D02*
G01X6228Y16232D01*
G01X466Y16837D02*
G01X1250Y16837D01*
G01X4515Y16837D02*
G01X4653Y16837D01*
G01X5760Y16837D02*
G01X5847Y16837D01*
G01X466Y17442D02*
G01X1229Y17442D01*
G01X4536Y17442D02*
G01X4653Y17442D01*
G01X5760Y17442D02*
G01X6082Y17442D01*
G01X466Y18047D02*
G01X1229Y18047D01*
G01X4536Y18047D02*
G01X4653Y18047D01*
G01X5760Y18047D02*
G01X7324Y18047D01*
G01X466Y18652D02*
G01X2832Y18652D01*
G01X4333Y18652D02*
G01X4653Y18652D01*
G01X5760Y18652D02*
G01X7309Y18652D01*
G01X466Y19257D02*
G01X879Y19257D01*
G01X4536Y19257D02*
G01X4653Y19257D01*
G01X6231Y19257D02*
G01X7309Y19257D01*
G01X466Y19862D02*
G01X640Y19862D01*
G01X4536Y19862D02*
G01X4682Y19862D01*
G01X6239Y19862D02*
G01X7312Y19862D01*
G01X466Y20467D02*
G01X1015Y20467D01*
G01X4472Y20467D02*
G01X7493Y20467D01*
G01X7276Y17913D02*
G01X7276Y20742D01*
G01X6671Y13634D02*
G01X6671Y15364D01*
G01X6671Y17655D02*
G01X6671Y20742D01*
G01X6066Y13634D02*
G01X6066Y16355D01*
G01X6066Y17426D02*
G01X6066Y18985D01*
G01X6066Y20298D02*
G01X6066Y20742D01*
G01X5461Y20395D02*
G01X5461Y20742D01*
G01X4856Y20299D02*
G01X4856Y20742D01*
G01X4251Y16358D02*
G01X4251Y16554D01*
G01X4251Y20656D02*
G01X4251Y20742D01*
G01X3646Y16358D02*
G01X3646Y16522D01*
G01X3646Y20688D02*
G01X3646Y20742D01*
G01X3041Y16341D02*
G01X3041Y16524D01*
G01X3041Y20686D02*
G01X3041Y20742D01*
G01X2436Y18529D02*
G01X2436Y18681D01*
G01X2436Y20688D02*
G01X2436Y20742D01*
G01X1831Y15408D02*
G01X1831Y15419D01*
G01X1831Y18529D02*
G01X1831Y18681D01*
G01X1831Y20688D02*
G01X1831Y20742D01*
G01X1226Y15408D02*
G01X1226Y19072D01*
G01X1226Y20551D02*
G01X1226Y20742D01*
G01X621Y15406D02*
G01X621Y20742D01*
G01X466Y466D02*
G01X466Y1798D01*
G01X466Y1798D02*
G01X497Y1767D01*
G01X1061Y2839D02*
G01X1061Y13801D01*
G01X1061Y13801D02*
G01X1915Y13801D01*
G01X2369Y14254D02*
G01X2369Y14955D01*
G01X2479Y15001D02*
G01X2759Y15001D01*
G01X3164Y14751D02*
G01X4414Y14751D01*
G01X4653Y14818D02*
G01X4653Y13437D01*
G01X4653Y13437D02*
G01X4596Y13380D01*
G01X4596Y13380D02*
G01X3302Y13380D01*
G01X2910Y13218D02*
G01X2344Y12652D01*
G01X1860Y11883D02*
G01X1860Y11083D01*
G01X4462Y10528D02*
G01X4462Y4943D01*
G01X5570Y4805D02*
G01X5570Y10353D01*
G01X5686Y10294D02*
G01X5718Y10261D01*
G01X7967Y11083D02*
G01X7967Y11883D01*
G01X8460Y11883D02*
G01X8460Y11083D01*
G01X10167Y11083D02*
G01X10167Y11883D01*
G01X9867Y12532D02*
G01X9867Y13220D01*
G01X9867Y13220D02*
G01X10722Y13220D01*
G01X11175Y13673D02*
G01X11175Y14773D01*
G01X10722Y15227D02*
G01X9867Y15227D01*
G01X9867Y15227D02*
G01X9867Y17314D01*
G01X10216Y18259D02*
G01X10216Y19759D01*
G01X9833Y20742D02*
G01X12832Y20742D01*
G01X14519Y19055D02*
G01X14519Y15996D01*
G01X14519Y13975D02*
G01X14519Y13456D01*
G01X14519Y11435D02*
G01X14519Y10565D01*
G01X14519Y10565D02*
G01X12192Y10565D01*
G01X12040Y10414D02*
G01X12040Y1910D01*
G01X12008Y1741D02*
G01X12008Y1595D01*
G01X12008Y1595D02*
G01X11264Y1595D01*
G01X9560Y1523D02*
G01X9560Y523D01*
G01X9562Y466D02*
G01X5766Y466D01*
G01X5767Y523D02*
G01X5767Y1323D01*
G01X5468Y1972D02*
G01X5468Y2197D01*
G01X5306Y2588D02*
G01X4709Y3185D01*
G01X4318Y3347D02*
G01X3820Y3347D01*
G01X3820Y2240D02*
G01X4088Y2240D01*
G01X4088Y2240D02*
G01X4357Y1970D01*
G01X4060Y1323D02*
G01X4060Y523D01*
G01X4062Y466D02*
G01X466Y466D01*
G01X466Y500D02*
G01X4060Y500D01*
G01X5767Y500D02*
G01X9560Y500D01*
G01X466Y1105D02*
G01X4060Y1105D01*
G01X5767Y1105D02*
G01X9560Y1105D01*
G01X466Y1710D02*
G01X564Y1710D01*
G01X2008Y1710D02*
G01X4153Y1710D01*
G01X5675Y1710D02*
G01X9564Y1710D01*
G01X11263Y1710D02*
G01X12008Y1710D01*
G01X2139Y2315D02*
G01X2713Y2315D01*
G01X5455Y2315D02*
G01X9475Y2315D01*
G01X11352Y2315D02*
G01X12040Y2315D01*
G01X1061Y2920D02*
G01X2553Y2920D01*
G01X4974Y2920D02*
G01X9860Y2920D01*
G01X10967Y2920D02*
G01X12040Y2920D01*
G01X1061Y3525D02*
G01X3100Y3525D01*
G01X3503Y3525D02*
G01X12040Y3525D01*
G01X1061Y4130D02*
G01X4231Y4130D01*
G01X5674Y4130D02*
G01X12040Y4130D01*
G01X1061Y4735D02*
G01X4291Y4735D01*
G01X5614Y4735D02*
G01X12040Y4735D01*
G01X1061Y5340D02*
G01X4462Y5340D01*
G01X5570Y5340D02*
G01X12040Y5340D01*
G01X1061Y5945D02*
G01X4462Y5945D01*
G01X5570Y5945D02*
G01X12040Y5945D01*
G01X1061Y6550D02*
G01X4462Y6550D01*
G01X5570Y6550D02*
G01X12040Y6550D01*
G01X1061Y7155D02*
G01X4462Y7155D01*
G01X5570Y7155D02*
G01X12040Y7155D01*
G01X1061Y7760D02*
G01X4462Y7760D01*
G01X5570Y7760D02*
G01X12040Y7760D01*
G01X1061Y8366D02*
G01X4462Y8366D01*
G01X5570Y8366D02*
G01X12040Y8366D01*
G01X1061Y8971D02*
G01X4462Y8971D01*
G01X5570Y8971D02*
G01X12040Y8971D01*
G01X1061Y9576D02*
G01X4462Y9576D01*
G01X5570Y9576D02*
G01X6211Y9576D01*
G01X6742Y9576D02*
G01X12040Y9576D01*
G01X1061Y10181D02*
G01X4462Y10181D01*
G01X5570Y10181D02*
G01X5725Y10181D01*
G01X7228Y10181D02*
G01X12040Y10181D01*
G01X1061Y10786D02*
G01X1913Y10786D01*
G01X7914Y10786D02*
G01X8513Y10786D01*
G01X10114Y10786D02*
G01X14519Y10786D01*
G01X1061Y11391D02*
G01X1860Y11391D01*
G01X7967Y11391D02*
G01X8460Y11391D01*
G01X10167Y11391D02*
G01X13237Y11391D01*
G01X14448Y11391D02*
G01X14519Y11391D01*
G01X1061Y11996D02*
G01X1867Y11996D01*
G01X7960Y11996D02*
G01X8467Y11996D01*
G01X10160Y11996D02*
G01X12713Y11996D01*
G01X1061Y12601D02*
G01X2252Y12601D01*
G01X9867Y12601D02*
G01X12637Y12601D01*
G01X1061Y13206D02*
G01X2898Y13206D01*
G01X9867Y13206D02*
G01X12894Y13206D01*
G01X2012Y13811D02*
G01X4653Y13811D01*
G01X11175Y13811D02*
G01X13527Y13811D01*
G01X14158Y13811D02*
G01X14519Y13811D01*
G01X2369Y14416D02*
G01X4653Y14416D01*
G01X11175Y14416D02*
G01X12768Y14416D01*
G01X11102Y15021D02*
G01X12627Y15021D01*
G01X9867Y15626D02*
G01X12809Y15626D01*
G01X9867Y16232D02*
G01X14519Y16232D01*
G01X9867Y16837D02*
G01X14519Y16837D01*
G01X9965Y17442D02*
G01X14519Y17442D01*
G01X10201Y18047D02*
G01X14519Y18047D01*
G01X10216Y18652D02*
G01X14519Y18652D01*
G01X10216Y19257D02*
G01X12934Y19257D01*
G01X10213Y19862D02*
G01X12644Y19862D01*
G01X10032Y20467D02*
G01X12695Y20467D01*
G01X13932Y10565D02*
G01X13932Y11233D01*
G01X13932Y13658D02*
G01X13932Y13773D01*
G01X13932Y16198D02*
G01X13932Y18853D01*
G01X13327Y10565D02*
G01X13327Y11344D01*
G01X13327Y13547D02*
G01X13327Y13884D01*
G01X13327Y16087D02*
G01X13327Y18964D01*
G01X12722Y10565D02*
G01X12722Y11973D01*
G01X12722Y12918D02*
G01X12722Y14513D01*
G01X12722Y15458D02*
G01X12722Y19593D01*
G01X12722Y20538D02*
G01X12722Y20742D01*
G01X12117Y10545D02*
G01X12117Y20742D01*
G01X11512Y1595D02*
G01X11512Y20742D01*
G01X10907Y2960D02*
G01X10907Y13259D01*
G01X10907Y15188D02*
G01X10907Y20742D01*
G01X10302Y3091D02*
G01X10302Y13220D01*
G01X10302Y15227D02*
G01X10302Y20742D01*
G01X9697Y2773D02*
G01X9697Y10320D01*
G01X9092Y466D02*
G01X9092Y10258D01*
G01X8487Y466D02*
G01X8487Y10870D01*
G01X8487Y12095D02*
G01X8487Y12329D01*
G01X7881Y466D02*
G01X7881Y10709D01*
G01X7881Y12256D02*
G01X7881Y12510D01*
G01X7276Y466D02*
G01X7276Y10244D01*
G01X6671Y466D02*
G01X6671Y9553D01*
G01X6066Y466D02*
G01X6066Y9648D01*
G01X5461Y2285D02*
G01X5461Y3802D01*
G01X4856Y3038D02*
G01X4856Y3612D01*
G01X4251Y1861D02*
G01X4251Y2077D01*
G01X4251Y3347D02*
G01X4251Y4076D01*
G01X4251Y4653D02*
G01X4251Y10350D01*
G01X4251Y13380D02*
G01X4251Y14751D01*
G01X3646Y466D02*
G01X3646Y2118D01*
G01X3646Y3469D02*
G01X3646Y10245D01*
G01X3646Y13380D02*
G01X3646Y14751D01*
G01X3041Y466D02*
G01X3041Y2081D01*
G01X3041Y3506D02*
G01X3041Y10294D01*
G01X3041Y13315D02*
G01X3041Y14768D01*
G01X2436Y466D02*
G01X2436Y10275D01*
G01X2436Y12744D02*
G01X2436Y15002D01*
G01X1831Y466D02*
G01X1831Y1536D01*
G01X1831Y2781D02*
G01X1831Y13801D01*
G01X1226Y466D02*
G01X1226Y1419D01*
G01X1226Y2898D02*
G01X1226Y13801D01*
G01X621Y466D02*
G01X621Y1674D01*
G54D21*
G01X8763Y18259D02*
G01X8763Y19759D01*
G54D22*
G01X8763Y15909D02*
G01X8763Y17309D01*
G01X7261Y15910D02*
G01X7261Y17109D01*
G01X10264Y15910D02*
G01X10264Y17109D01*
G54D23*
G01X10414Y1523D02*
G01X10414Y523D01*
G01X9314Y1323D02*
G01X9314Y523D01*
G01X4914Y1323D02*
G01X4914Y523D01*
G01X2713Y11083D02*
G01X2713Y11883D01*
G01X3813Y11083D02*
G01X3813Y11883D01*
G01X6013Y11083D02*
G01X6013Y11883D01*
G01X7114Y11083D02*
G01X7114Y11883D01*
G01X9313Y11083D02*
G01X9313Y11883D01*
G01X10414Y11083D02*
G01X10414Y11883D01*
G36*
G01X5136Y19941D02*
G01X5136Y19341D01*
G01X5785Y19341D01*
G01X5785Y19941D01*
G01X5136Y19941D01*
G37*
G36*
G01X5136Y20790D02*
G01X5136Y20190D01*
G01X5785Y20190D01*
G01X5785Y20790D01*
G01X5136Y20790D01*
G37*
G36*
G01X12462Y342D02*
G01X14461Y342D01*
G01X14461Y1741D01*
G01X12462Y1741D01*
G01X12462Y342D01*
G37*
G36*
G01X12462Y9941D02*
G01X14461Y9941D01*
G01X14461Y11341D01*
G01X12462Y11341D01*
G01X12462Y9941D01*
G37*
G36*
G01X6165Y13674D02*
G01X7165Y13674D01*
G01X7165Y14774D01*
G01X6165Y14774D01*
G01X6165Y13674D01*
G37*
G36*
G01X7565Y13674D02*
G01X8565Y13674D01*
G01X8565Y14774D01*
G01X7565Y14774D01*
G01X7565Y13674D01*
G37*
G54D16*
G01X11622Y14224D03*
G01X10222Y14224D03*
G01X3582Y17526D03*
G01X2183Y17526D03*
G01X3582Y19685D03*
G01X2183Y19685D03*
G36*
G01X1915Y14254D02*
G01X1915Y14955D01*
G01X665Y14955D01*
G01X665Y14254D01*
G01X1915Y14254D01*
G37*
G36*
G01X4414Y13305D02*
G01X4414Y14005D01*
G01X3164Y14005D01*
G01X3164Y13305D01*
G01X4414Y13305D01*
G37*
G36*
G01X4414Y15204D02*
G01X4414Y15904D01*
G01X3164Y15904D01*
G01X3164Y15204D01*
G01X4414Y15204D01*
G37*
G54D20*
G75*
G01X5786Y18888D02*
G03X6240Y19342I0J454D01*
G01*
G75*
G01X6240Y19942D02*
G03X5786Y20396I-454J0D01*
G01*
G75*
G01X5136Y20396D02*
G03X4682Y19942I0J-454D01*
G01*
G75*
G01X4682Y19819D02*
G03X4653Y19642I525J-177D01*
G01*
G75*
G01X4653Y16291D02*
G03X4415Y16359I-238J-386D01*
G01*
G75*
G01X3165Y16359D02*
G03X2759Y16109I0J-454D01*
G01*
G75*
G01X2736Y16525D02*
G03X2883Y16569I-53J451D01*
G01*
G75*
G01X2883Y16569D02*
G03X3083Y16522I200J407D01*
G01*
G75*
G01X4083Y16522D02*
G03X4537Y16976I0J454D01*
G01*
G75*
G01X4537Y18076D02*
G03X4336Y18453I-454J0D01*
G01*
G75*
G01X4336Y18453D02*
G03X4342Y18542I-753J89D01*
G01*
G75*
G01X4342Y18542D02*
G03X4314Y18744I-759J0D01*
G01*
G75*
G01X4314Y18744D02*
G03X4537Y19135I-231J391D01*
G01*
G75*
G01X4537Y20235D02*
G03X4083Y20689I-454J0D01*
G01*
G75*
G01X3083Y20689D02*
G03X2883Y20642I0J-454D01*
G01*
G75*
G01X2883Y20642D02*
G03X2683Y20689I-200J-407D01*
G01*
G75*
G01X1683Y20689D02*
G03X1377Y20570I0J-454D01*
G01*
G75*
G01X1377Y20570D02*
G03X638Y19812I20J-758D01*
G01*
G75*
G01X638Y19812D02*
G03X1234Y19071I759J0D01*
G01*
G75*
G01X1234Y19071D02*
G03X1683Y18681I449J64D01*
G01*
G75*
G01X2683Y18681D02*
G03X2843Y18710I0J454D01*
G01*
G75*
G01X2843Y18710D02*
G03X2824Y18542I740J-168D01*
G01*
G75*
G01X2824Y18542D02*
G03X2825Y18507I759J0D01*
G01*
G75*
G01X2825Y18507D02*
G03X2683Y18530I-142J-431D01*
G01*
G75*
G01X1683Y18530D02*
G03X1229Y18076I0J-454D01*
G01*
G75*
G01X1229Y16976D02*
G03X1628Y16526I454J0D01*
G01*
G75*
G01X1628Y15852D02*
G03X1790Y15461I554J0D01*
G01*
G75*
G01X665Y15409D02*
G03X467Y15363I0J-454D01*
G01*
G75*
G01X7692Y20742D02*
G03X7309Y19759I1071J-983D01*
G01*
G75*
G01X7309Y18259D02*
G03X7352Y17909I1454J0D01*
G01*
G75*
G01X7352Y17909D02*
G03X7262Y17914I-90J-799D01*
G01*
G75*
G01X7262Y17914D02*
G03X6664Y17647I0J-804D01*
G01*
G75*
G01X6664Y17647D02*
G03X6604Y17650I-60J-756D01*
G01*
G75*
G01X6604Y17650D02*
G03X5845Y16891I0J-759D01*
G01*
G75*
G01X5845Y16891D02*
G03X6458Y16147I759J0D01*
G01*
G75*
G01X6458Y15910D02*
G03X7257Y15106I804J0D01*
G01*
G75*
G01X7257Y15106D02*
G03X7112Y14774I309J-332D01*
G01*
G75*
G01X7112Y13674D02*
G03X7114Y13635I454J0D01*
G01*
G75*
G01X497Y1767D02*
G03X878Y1605I392J392D01*
G01*
G75*
G01X878Y1605D02*
G03X1397Y1400I519J554D01*
G01*
G75*
G01X1397Y1400D02*
G03X2156Y2159I0J759D01*
G01*
G75*
G01X2156Y2159D02*
G03X1397Y2918I-759J0D01*
G01*
G75*
G01X1397Y2918D02*
G03X1062Y2840I0J-759D01*
G01*
G75*
G01X1915Y13801D02*
G03X2369Y14255I0J454D01*
G01*
G75*
G01X2369Y14955D02*
G03X2365Y15013I-454J0D01*
G01*
G75*
G01X2365Y15013D02*
G03X2479Y15001I114J542D01*
G01*
G75*
G01X2759Y15001D02*
G03X3165Y14751I406J204D01*
G01*
G75*
G01X4415Y14751D02*
G03X4653Y14819I0J454D01*
G01*
G75*
G01X3302Y13381D02*
G03X2910Y13219I0J-554D01*
G01*
G75*
G01X2345Y12653D02*
G03X1860Y11883I369J-770D01*
G01*
G75*
G01X1860Y11083D02*
G03X2714Y10229I854J0D01*
G01*
G75*
G01X2714Y10229D02*
G03X3264Y10430I0J854D01*
G01*
G75*
G01X3264Y10430D02*
G03X3814Y10229I550J653D01*
G01*
G75*
G01X3814Y10229D02*
G03X4463Y10528I0J854D01*
G01*
G75*
G01X4463Y4944D02*
G03X4194Y4365I490J-579D01*
G01*
G75*
G01X4194Y4365D02*
G03X4953Y3606I759J0D01*
G01*
G75*
G01X4953Y3606D02*
G03X5712Y4365I0J759D01*
G01*
G75*
G01X5712Y4365D02*
G03X5570Y4806I-759J0D01*
G01*
G75*
G01X5570Y10354D02*
G03X5686Y10295I444J729D01*
G01*
G75*
G01X5719Y10262D02*
G03X6477Y9528I758J25D01*
G01*
G75*
G01X6477Y9528D02*
G03X7234Y10238I0J759D01*
G01*
G75*
G01X7234Y10238D02*
G03X7968Y11083I-120J845D01*
G01*
G75*
G01X7968Y11883D02*
G03X7857Y12304I-854J0D01*
G01*
G75*
G01X7857Y12304D02*
G03X7871Y12446I-745J142D01*
G01*
G75*
G01X7871Y12446D02*
G03X7867Y12524I-759J0D01*
G01*
G75*
G01X7867Y12524D02*
G03X8382Y12322I515J557D01*
G01*
G75*
G01X8382Y12322D02*
G03X8602Y12355I0J759D01*
G01*
G75*
G01X8602Y12355D02*
G03X8460Y11883I712J-472D01*
G01*
G75*
G01X8460Y11083D02*
G03X9314Y10229I854J0D01*
G01*
G75*
G01X9314Y10229D02*
G03X10168Y11083I0J854D01*
G01*
G75*
G01X10168Y11883D02*
G03X9868Y12533I-854J0D01*
G01*
G75*
G01X10722Y13220D02*
G03X11176Y13674I0J454D01*
G01*
G75*
G01X11176Y14774D02*
G03X10722Y15228I-454J0D01*
G01*
G75*
G01X9868Y17314D02*
G03X10217Y18259I-1105J945D01*
G01*
G75*
G01X10217Y19759D02*
G03X9834Y20742I-1454J0D01*
G01*
G75*
G01X12833Y20742D02*
G03X12627Y20066I1010J-676D01*
G01*
G75*
G01X12627Y20066D02*
G03X13843Y18850I1216J0D01*
G01*
G75*
G01X13843Y18850D02*
G03X14519Y19056I0J1216D01*
G01*
G75*
G01X14519Y15996D02*
G03X13843Y16202I-676J-1010D01*
G01*
G75*
G01X13843Y16202D02*
G03X12627Y14986I0J-1216D01*
G01*
G75*
G01X12627Y14986D02*
G03X13843Y13770I1216J0D01*
G01*
G75*
G01X13843Y13770D02*
G03X14519Y13976I0J1216D01*
G01*
G75*
G01X14519Y13456D02*
G03X13843Y13662I-676J-1010D01*
G01*
G75*
G01X13843Y13662D02*
G03X12627Y12446I0J-1216D01*
G01*
G75*
G01X12627Y12446D02*
G03X13843Y11230I1216J0D01*
G01*
G75*
G01X13843Y11230D02*
G03X14519Y11436I0J1216D01*
G01*
G75*
G01X12192Y10565D02*
G03X12041Y10414I0J-151D01*
G01*
G75*
G01X12041Y1911D02*
G03X12008Y1742I421J-169D01*
G01*
G75*
G01X11265Y1596D02*
G03X11252Y1688I-851J-73D01*
G01*
G75*
G01X11252Y1688D02*
G03X11368Y2144I-838J456D01*
G01*
G75*
G01X11368Y2144D02*
G03X10414Y3098I-954J0D01*
G01*
G75*
G01X10414Y3098D02*
G03X9460Y2144I0J-954D01*
G01*
G75*
G01X9460Y2144D02*
G03X9576Y1688I954J0D01*
G01*
G75*
G01X9576Y1688D02*
G03X9560Y1523I838J-165D01*
G01*
G75*
G01X9560Y523D02*
G03X9562Y467I854J0D01*
G01*
G75*
G01X5766Y467D02*
G03X5768Y523I-852J56D01*
G01*
G75*
G01X5768Y1323D02*
G03X5469Y1972I-854J0D01*
G01*
G75*
G01X5469Y2197D02*
G03X5307Y2589I-554J0D01*
G01*
G75*
G01X4710Y3186D02*
G03X4318Y3348I-392J-392D01*
G01*
G75*
G01X3820Y3348D02*
G03X3302Y3553I-518J-554D01*
G01*
G75*
G01X3302Y3553D02*
G03X2543Y2794I0J-759D01*
G01*
G75*
G01X2543Y2794D02*
G03X3302Y2035I759J0D01*
G01*
G75*
G01X3302Y2035D02*
G03X3820Y2240I0J759D01*
G01*
G75*
G01X4358Y1971D02*
G03X4060Y1323I556J-648D01*
G01*
G75*
G01X4060Y523D02*
G03X4062Y467I854J0D01*
G01*
G54D18*
G01X13843Y20066D03*
G01X13843Y17526D03*
G01X13843Y14986D03*
G01X13843Y12446D03*
G54D19*
G01X10414Y2143D03*
G54D12*
G01X1397Y2159D03*
G01X1397Y19812D03*
G01X4572Y12065D03*
G01X3582Y18542D03*
G01X6604Y16891D03*
G01X10414Y12827D03*
G01X3302Y2794D03*
G01X5016Y11112D03*
G01X4953Y4364D03*
G01X8382Y13081D03*
G01X1397Y12954D03*
G01X11938Y20193D03*
G01X6350Y20320D03*
G01X7112Y12446D03*
G01X6477Y10287D03*
M00*
M02*
