G04 Layer: BottomSolderMaskLayer*
G04 EasyEDA v6.1.51, Sun, 16 Jun 2019 04:45:57 GMT*
G04 01268da5a8234bf897f73133ac2f115b,46bf6a40d4384fdb86bc8fc37bf60e4c,10*
G04 Gerber Generator version 0.2*
G04 Scale: 100 percent, Rotated: No, Reflected: No *
G04 Dimensions in millimeters *
G04 leading zeros omitted , absolute positions ,3 integer and 3 decimal *
%FSLAX33Y33*%
%MOMM*%
G90*
G71D02*

%ADD29C,0.150012*%
%ADD30C,1.727200*%
%ADD34R,1.203198X1.303198*%
%ADD36C,1.203198*%
%ADD37C,2.203196*%
%ADD38C,0.903199*%
%ADD39C,1.003198*%

%LPD*%
G54D37*
G01X8763Y18259D02*
G01X8763Y19759D01*
G54D38*
G01X8763Y15909D02*
G01X8763Y17309D01*
G01X7261Y15910D02*
G01X7261Y17109D01*
G01X10264Y15910D02*
G01X10264Y17109D01*
G54D39*
G01X10414Y1523D02*
G01X10414Y523D01*
G01X9314Y1323D02*
G01X9314Y523D01*
G01X4914Y1323D02*
G01X4914Y523D01*
G01X2713Y11083D02*
G01X2713Y11883D01*
G01X3813Y11083D02*
G01X3813Y11883D01*
G01X6013Y11083D02*
G01X6013Y11883D01*
G01X7114Y11083D02*
G01X7114Y11883D01*
G01X9313Y11083D02*
G01X9313Y11883D01*
G01X10414Y11083D02*
G01X10414Y11883D01*
G54D29*
G01X14035Y4071D02*
G01X13080Y4071D01*
G01X14035Y4071D02*
G01X14035Y4389D01*
G01X13990Y4526D01*
G01X13898Y4617D01*
G01X13807Y4663D01*
G01X13672Y4709D01*
G01X13444Y4709D01*
G01X13307Y4663D01*
G01X13218Y4617D01*
G01X13126Y4526D01*
G01X13080Y4389D01*
G01X13080Y4071D01*
G01X13581Y5506D02*
G01X13672Y5463D01*
G01X13715Y5326D01*
G01X13715Y5189D01*
G01X13672Y5054D01*
G01X13581Y5008D01*
G01X13489Y5054D01*
G01X13444Y5143D01*
G01X13398Y5372D01*
G01X13352Y5463D01*
G01X13263Y5506D01*
G01X13218Y5506D01*
G01X13126Y5463D01*
G01X13080Y5326D01*
G01X13080Y5189D01*
G01X13126Y5054D01*
G01X13218Y5008D01*
G01X13627Y5854D02*
G01X13581Y5808D01*
G01X13535Y5854D01*
G01X13581Y5897D01*
G01X13627Y5854D01*
G01X13307Y5854D02*
G01X13263Y5808D01*
G01X13218Y5854D01*
G01X13263Y5897D01*
G01X13307Y5854D01*
G01X14035Y6200D02*
G01X13080Y6200D01*
G01X13535Y6200D02*
G01X13672Y6334D01*
G01X13715Y6426D01*
G01X13715Y6563D01*
G01X13672Y6652D01*
G01X13535Y6697D01*
G01X13080Y6697D01*
G01X13715Y6997D02*
G01X13263Y6997D01*
G01X13126Y7043D01*
G01X13080Y7134D01*
G01X13080Y7272D01*
G01X13126Y7363D01*
G01X13263Y7498D01*
G01X13715Y7498D02*
G01X13080Y7498D01*
G01X13444Y7797D02*
G01X13444Y8343D01*
G01X13535Y8343D01*
G01X13627Y8298D01*
G01X13672Y8252D01*
G01X13715Y8163D01*
G01X13715Y8026D01*
G01X13672Y7934D01*
G01X13581Y7843D01*
G01X13444Y7797D01*
G01X13352Y7797D01*
G01X13218Y7843D01*
G01X13126Y7934D01*
G01X13080Y8026D01*
G01X13080Y8163D01*
G01X13126Y8252D01*
G01X13218Y8343D01*
G01X13715Y8643D02*
G01X13080Y9144D01*
G01X13715Y9144D02*
G01X13080Y8643D01*
G54D30*
G01X13843Y20066D03*
G01X13843Y17526D03*
G01X13843Y14986D03*
G01X13843Y12446D03*
G36*
G01X5034Y19240D02*
G01X5034Y20043D01*
G01X5887Y20043D01*
G01X5887Y19240D01*
G01X5034Y19240D01*
G37*
G36*
G01X5034Y20088D02*
G01X5034Y20891D01*
G01X5887Y20891D01*
G01X5887Y20088D01*
G01X5034Y20088D01*
G37*
G36*
G01X12359Y241D02*
G01X12359Y1844D01*
G01X14564Y1844D01*
G01X14564Y241D01*
G01X12359Y241D01*
G37*
G36*
G01X12359Y9839D02*
G01X12359Y11442D01*
G01X14564Y11442D01*
G01X14564Y9839D01*
G01X12359Y9839D01*
G37*
G36*
G01X6065Y13571D02*
G01X6065Y14876D01*
G01X7266Y14876D01*
G01X7266Y13571D01*
G01X6065Y13571D01*
G37*
G36*
G01X7465Y13571D02*
G01X7465Y14876D01*
G01X8666Y14876D01*
G01X8666Y13571D01*
G01X7465Y13571D01*
G37*
G54D34*
G01X11622Y14224D03*
G01X10222Y14224D03*
G01X3582Y17526D03*
G01X2183Y17526D03*
G01X3582Y19685D03*
G01X2183Y19685D03*
G36*
G01X563Y14152D02*
G01X563Y15057D01*
G01X2016Y15057D01*
G01X2016Y14152D01*
G01X563Y14152D01*
G37*
G36*
G01X3063Y13202D02*
G01X3063Y14107D01*
G01X4516Y14107D01*
G01X4516Y13202D01*
G01X3063Y13202D01*
G37*
G36*
G01X3063Y15102D02*
G01X3063Y16007D01*
G01X4516Y16007D01*
G01X4516Y15102D01*
G01X3063Y15102D01*
G37*
G54D36*
G01X10414Y2143D03*
M00*
M02*
