G04 #@! TF.GenerationSoftware,KiCad,Pcbnew,(5.0.2)-1*
G04 #@! TF.CreationDate,2019-08-16T13:34:43+08:00*
G04 #@! TF.ProjectId,IRMQTT,49524d51-5454-42e6-9b69-6361645f7063,rev?*
G04 #@! TF.SameCoordinates,Original*
G04 #@! TF.FileFunction,Legend,Bot*
G04 #@! TF.FilePolarity,Positive*
%FSLAX46Y46*%
G04 Gerber Fmt 4.6, Leading zero omitted, Abs format (unit mm)*
G04 Created by KiCad (PCBNEW (5.0.2)-1) date 2019-08-16 13:34:43*
%MOMM*%
%LPD*%
G01*
G04 APERTURE LIST*
%ADD10C,0.200000*%
%ADD11C,0.254000*%
%ADD12C,0.150000*%
G04 APERTURE END LIST*
D10*
G04 #@! TO.C,R7*
X74151180Y-47658300D02*
X74151180Y-48333300D01*
X74151180Y-46383300D02*
X74151180Y-47058300D01*
X73001180Y-47658300D02*
X73001180Y-48333300D01*
X73001180Y-46383300D02*
X73001180Y-47058300D01*
X74151180Y-48333300D02*
X73001180Y-48333300D01*
X74151180Y-46383300D02*
X73001180Y-46383300D01*
G04 #@! TO.C,R5*
X79997660Y-54385520D02*
X79997660Y-55535520D01*
X81947660Y-54385520D02*
X81947660Y-55535520D01*
X79997660Y-55535520D02*
X80672660Y-55535520D01*
X81272660Y-55535520D02*
X81947660Y-55535520D01*
X79997660Y-54385520D02*
X80672660Y-54385520D01*
X81272660Y-54385520D02*
X81947660Y-54385520D01*
G04 #@! TO.C,R2*
X63572700Y-63740120D02*
X64722700Y-63740120D01*
X63572700Y-61790120D02*
X64722700Y-61790120D01*
X64722700Y-63740120D02*
X64722700Y-63065120D01*
X64722700Y-62465120D02*
X64722700Y-61790120D01*
X63572700Y-63740120D02*
X63572700Y-63065120D01*
X63572700Y-62465120D02*
X63572700Y-61790120D01*
G04 #@! TO.C,R4*
X79470560Y-47190380D02*
X79470560Y-46515380D01*
X79470560Y-48465380D02*
X79470560Y-47790380D01*
X80620560Y-47190380D02*
X80620560Y-46515380D01*
X80620560Y-48465380D02*
X80620560Y-47790380D01*
X79470560Y-46515380D02*
X80620560Y-46515380D01*
X79470560Y-48465380D02*
X80620560Y-48465380D01*
G04 #@! TO.C,Q1*
X78133460Y-47462120D02*
X78133460Y-48062120D01*
D11*
X76583460Y-46302120D02*
X76583460Y-46962120D01*
X76583460Y-46302120D02*
X77398460Y-46302120D01*
X76583460Y-49222120D02*
X77398460Y-49222120D01*
X76583460Y-48562120D02*
X76583460Y-49222120D01*
X76583460Y-48562120D02*
X76583460Y-49222120D01*
X76583460Y-48562120D02*
X76583460Y-49222120D01*
G04 #@! TO.C,U2*
X69671000Y-61789280D02*
X72271000Y-61789280D01*
X69671000Y-61789280D02*
X69671000Y-62689280D01*
X69671000Y-66389280D02*
X72271000Y-66389280D01*
X69671000Y-65489280D02*
X69671000Y-66389280D01*
D10*
G04 #@! TO.C,Q3*
X80423740Y-59897120D02*
X81023740Y-59897120D01*
D11*
X79263740Y-61447120D02*
X79923740Y-61447120D01*
X79263740Y-61447120D02*
X79263740Y-60632120D01*
X82183740Y-61447120D02*
X82183740Y-60632120D01*
X81523740Y-61447120D02*
X82183740Y-61447120D01*
X81523740Y-61447120D02*
X82183740Y-61447120D01*
X81523740Y-61447120D02*
X82183740Y-61447120D01*
D10*
G04 #@! TO.C,C1*
X65316860Y-65780980D02*
X66051860Y-65780980D01*
X67986860Y-64600980D02*
X67986860Y-65380980D01*
X64916860Y-64600980D02*
X64916860Y-65380980D01*
X66851860Y-65780980D02*
X67586860Y-65780980D01*
X66851860Y-64200980D02*
X67586860Y-64200980D01*
X65316860Y-64200980D02*
X66051860Y-64200980D01*
X67586860Y-65780980D02*
G75*
G03X67986860Y-65380980I0J400000D01*
G01*
X67986860Y-64600980D02*
G75*
G03X67586860Y-64200980I-400000J0D01*
G01*
X65316860Y-64200980D02*
G75*
G03X64916860Y-64600980I0J-400000D01*
G01*
X64916860Y-65380980D02*
G75*
G03X65316860Y-65780980I400000J0D01*
G01*
G04 #@! TO.C,C2*
X66541960Y-63466780D02*
G75*
G03X66761960Y-63686780I220000J0D01*
G01*
X67471960Y-63686780D02*
G75*
G03X67691960Y-63466780I0J220000D01*
G01*
X66761960Y-61736780D02*
G75*
G03X66541960Y-61956780I0J-220000D01*
G01*
X67691960Y-61956780D02*
G75*
G03X67471960Y-61736780I-220000J0D01*
G01*
X67471960Y-63686780D02*
X66761960Y-63686780D01*
X66541960Y-63011780D02*
X66541960Y-63461780D01*
X67691960Y-63011780D02*
X67691960Y-63461780D01*
X66541960Y-61961780D02*
X66541960Y-62411780D01*
X67691960Y-61961780D02*
X67691960Y-62411790D01*
X67471960Y-61736790D02*
X66761960Y-61736790D01*
D12*
G04 #@! TO.C,D1*
G36*
X69226280Y-46628760D02*
X69526280Y-46628760D01*
X69526280Y-47828760D01*
X69226280Y-47828760D01*
X69226280Y-46628760D01*
G37*
X69226280Y-46628760D02*
X69526280Y-46628760D01*
X69526280Y-47828760D01*
X69226280Y-47828760D01*
X69226280Y-46628760D01*
D10*
X71601280Y-46438760D02*
X72736280Y-46438760D01*
X69901280Y-46438760D02*
X70801280Y-46438760D01*
X71601280Y-48018760D02*
X72736280Y-48018760D01*
X69701280Y-46631760D02*
X69701280Y-47825760D01*
X72736280Y-46438760D02*
X72736280Y-48018760D01*
X69901280Y-48018760D02*
X70801280Y-48018760D01*
X69701280Y-47825760D02*
X69901280Y-48018760D01*
X69701280Y-46631760D02*
X69901280Y-46438760D01*
G04 #@! TO.C,C3*
X63587940Y-65752780D02*
G75*
G03X63807940Y-65972780I220000J0D01*
G01*
X64517940Y-65972780D02*
G75*
G03X64737940Y-65752780I0J220000D01*
G01*
X63807940Y-64022780D02*
G75*
G03X63587940Y-64242780I0J-220000D01*
G01*
X64737940Y-64242780D02*
G75*
G03X64517940Y-64022780I-220000J0D01*
G01*
X64517940Y-65972780D02*
X63807940Y-65972780D01*
X63587940Y-65297780D02*
X63587940Y-65747780D01*
X64737940Y-65297780D02*
X64737940Y-65747780D01*
X63587940Y-64247780D02*
X63587940Y-64697780D01*
X64737940Y-64247780D02*
X64737940Y-64697790D01*
X64517940Y-64022790D02*
X63807940Y-64022790D01*
G04 #@! TO.C,R6*
X81310940Y-58461600D02*
X81310940Y-57311600D01*
X79360940Y-58461600D02*
X79360940Y-57311600D01*
X81310940Y-57311600D02*
X80635940Y-57311600D01*
X80035940Y-57311600D02*
X79360940Y-57311600D01*
X81310940Y-58461600D02*
X80635940Y-58461600D01*
X80035940Y-58461600D02*
X79360940Y-58461600D01*
G04 #@! TO.C,R1*
X66162880Y-61782500D02*
X65012880Y-61782500D01*
X66162880Y-63732500D02*
X65012880Y-63732500D01*
X65012880Y-61782500D02*
X65012880Y-62457500D01*
X65012880Y-63057500D02*
X65012880Y-63732500D01*
X66162880Y-61782500D02*
X66162880Y-62457500D01*
X66162880Y-63057500D02*
X66162880Y-63732500D01*
D11*
G04 #@! TO.C,Q2*
X79832340Y-51409520D02*
X79172340Y-51409520D01*
X79832340Y-51409520D02*
X79172340Y-51409520D01*
X79832340Y-51409520D02*
X79172340Y-51409520D01*
X79172340Y-51409520D02*
X79172340Y-52224520D01*
X82092340Y-51409520D02*
X82092340Y-52224520D01*
X82092340Y-51409520D02*
X81432340Y-51409520D01*
D10*
X80932340Y-52959520D02*
X80332340Y-52959520D01*
G04 #@! TO.C,U1*
D12*
X64203912Y-51637606D02*
X64584864Y-51637606D01*
X64632483Y-51685225D02*
X64775340Y-51875701D01*
X64156293Y-51685225D02*
X64013436Y-51875701D01*
X64108674Y-51685225D02*
X64680102Y-51685225D01*
X64680102Y-51732844D02*
X64108674Y-51732844D01*
X64061055Y-51780463D02*
X64727721Y-51780463D01*
X64727721Y-51828082D02*
X64061055Y-51828082D01*
X64013436Y-51875701D02*
X64775340Y-51875701D01*
X64775340Y-51923320D02*
X64013436Y-51923320D01*
X64013436Y-51970940D02*
X64775340Y-51970940D01*
X64775340Y-52018559D02*
X64013436Y-52018559D01*
X64775340Y-52066178D02*
X64632483Y-52256654D01*
X64013436Y-52066178D02*
X64775340Y-52066178D01*
X64013436Y-52066178D02*
X64156293Y-52256654D01*
X64727721Y-52113797D02*
X64061055Y-52113797D01*
X64061055Y-52161416D02*
X64727721Y-52161416D01*
X64680102Y-52209035D02*
X64108674Y-52209035D01*
X64108674Y-52256654D02*
X64680102Y-52256654D01*
X64584864Y-52304273D02*
X64203912Y-52304273D01*
X64013436Y-51875701D02*
X64013436Y-52066178D01*
X64108674Y-52256654D01*
X64299150Y-52351892D01*
X64489626Y-52351892D01*
X64680102Y-52256654D01*
X64775340Y-52066178D01*
X64775340Y-51875701D01*
X64680102Y-51685225D01*
X64489626Y-51589987D01*
X64299150Y-51589987D01*
X64108674Y-51685225D01*
X64013436Y-51875701D01*
G04 #@! TD*
M02*
