G04 #@! TF.GenerationSoftware,KiCad,Pcbnew,(5.0.2)-1*
G04 #@! TF.CreationDate,2019-08-16T13:34:43+08:00*
G04 #@! TF.ProjectId,IRMQTT,49524d51-5454-42e6-9b69-6361645f7063,rev?*
G04 #@! TF.SameCoordinates,Original*
G04 #@! TF.FileFunction,Soldermask,Top*
G04 #@! TF.FilePolarity,Negative*
%FSLAX46Y46*%
G04 Gerber Fmt 4.6, Leading zero omitted, Abs format (unit mm)*
G04 Created by KiCad (PCBNEW (5.0.2)-1) date 2019-08-16 13:34:43*
%MOMM*%
%LPD*%
G01*
G04 APERTURE LIST*
%ADD10C,0.150000*%
%ADD11C,0.100000*%
G04 APERTURE END LIST*
D10*
X75391055Y-53961294D02*
X76191055Y-53961294D01*
X76191055Y-54151770D01*
X76152960Y-54266056D01*
X76076769Y-54342246D01*
X76000579Y-54380341D01*
X75848198Y-54418437D01*
X75733912Y-54418437D01*
X75581531Y-54380341D01*
X75505340Y-54342246D01*
X75429150Y-54266056D01*
X75391055Y-54151770D01*
X75391055Y-53961294D01*
X75429150Y-54723199D02*
X75391055Y-54799389D01*
X75391055Y-54951770D01*
X75429150Y-55027960D01*
X75505340Y-55066056D01*
X75543436Y-55066056D01*
X75619626Y-55027960D01*
X75657721Y-54951770D01*
X75657721Y-54837484D01*
X75695817Y-54761294D01*
X75772007Y-54723199D01*
X75810102Y-54723199D01*
X75886293Y-54761294D01*
X75924388Y-54837484D01*
X75924388Y-54951770D01*
X75886293Y-55027960D01*
X75467245Y-55408913D02*
X75429150Y-55447008D01*
X75391055Y-55408913D01*
X75429150Y-55370818D01*
X75467245Y-55408913D01*
X75391055Y-55408913D01*
X75886293Y-55408913D02*
X75848198Y-55447008D01*
X75810102Y-55408913D01*
X75848198Y-55370818D01*
X75886293Y-55408913D01*
X75810102Y-55408913D01*
X75391055Y-55789865D02*
X76191055Y-55789865D01*
X75391055Y-56132722D02*
X75810102Y-56132722D01*
X75886293Y-56094627D01*
X75924388Y-56018437D01*
X75924388Y-55904151D01*
X75886293Y-55827960D01*
X75848198Y-55789865D01*
X75924388Y-56856532D02*
X75391055Y-56856532D01*
X75924388Y-56513675D02*
X75505340Y-56513675D01*
X75429150Y-56551770D01*
X75391055Y-56627960D01*
X75391055Y-56742246D01*
X75429150Y-56818437D01*
X75467245Y-56856532D01*
X75429150Y-57542246D02*
X75391055Y-57466056D01*
X75391055Y-57313675D01*
X75429150Y-57237484D01*
X75505340Y-57199389D01*
X75810102Y-57199389D01*
X75886293Y-57237484D01*
X75924388Y-57313675D01*
X75924388Y-57466056D01*
X75886293Y-57542246D01*
X75810102Y-57580341D01*
X75733912Y-57580341D01*
X75657721Y-57199389D01*
X75391055Y-57847008D02*
X75924388Y-58266056D01*
X75924388Y-57847008D02*
X75391055Y-58266056D01*
D11*
G36*
X77136400Y-66550640D02*
X75834400Y-66550640D01*
X75834400Y-64848640D01*
X77136400Y-64848640D01*
X77136400Y-66550640D01*
X77136400Y-66550640D01*
G37*
G36*
X74336400Y-66550640D02*
X73034400Y-66550640D01*
X73034400Y-64848640D01*
X74336400Y-64848640D01*
X74336400Y-66550640D01*
X74336400Y-66550640D01*
G37*
G36*
X71571280Y-65957740D02*
X69969280Y-65957740D01*
X69969280Y-64755740D01*
X71571280Y-64755740D01*
X71571280Y-65957740D01*
X71571280Y-65957740D01*
G37*
G36*
X65271280Y-65957740D02*
X63669280Y-65957740D01*
X63669280Y-64755740D01*
X65271280Y-64755740D01*
X65271280Y-65957740D01*
X65271280Y-65957740D01*
G37*
G36*
X80703874Y-63188252D02*
X80913342Y-63275016D01*
X81101863Y-63400982D01*
X81262178Y-63561297D01*
X81388144Y-63749818D01*
X81474908Y-63959286D01*
X81519140Y-64181655D01*
X81519140Y-64408385D01*
X81474908Y-64630754D01*
X81388144Y-64840222D01*
X81262178Y-65028743D01*
X81101863Y-65189058D01*
X80913342Y-65315024D01*
X80703874Y-65401788D01*
X80481505Y-65446020D01*
X80254775Y-65446020D01*
X80032406Y-65401788D01*
X79822938Y-65315024D01*
X79634417Y-65189058D01*
X79474102Y-65028743D01*
X79348136Y-64840222D01*
X79261372Y-64630754D01*
X79217140Y-64408385D01*
X79217140Y-64181655D01*
X79261372Y-63959286D01*
X79348136Y-63749818D01*
X79474102Y-63561297D01*
X79634417Y-63400982D01*
X79822938Y-63275016D01*
X80032406Y-63188252D01*
X80254775Y-63144020D01*
X80481505Y-63144020D01*
X80703874Y-63188252D01*
X80703874Y-63188252D01*
G37*
G36*
X65271280Y-63417740D02*
X63669280Y-63417740D01*
X63669280Y-62215740D01*
X65271280Y-62215740D01*
X65271280Y-63417740D01*
X65271280Y-63417740D01*
G37*
G36*
X71571280Y-63417740D02*
X69969280Y-63417740D01*
X69969280Y-62215740D01*
X71571280Y-62215740D01*
X71571280Y-63417740D01*
X71571280Y-63417740D01*
G37*
G36*
X77892565Y-61663350D02*
X78043552Y-61709152D01*
X78182705Y-61783530D01*
X78304673Y-61883627D01*
X78404770Y-62005595D01*
X78479148Y-62144748D01*
X78524950Y-62295735D01*
X78540415Y-62452760D01*
X78524950Y-62609785D01*
X78479148Y-62760772D01*
X78404770Y-62899925D01*
X78304673Y-63021893D01*
X78182705Y-63121990D01*
X78043552Y-63196368D01*
X77892565Y-63242170D01*
X77774886Y-63253760D01*
X75396194Y-63253760D01*
X75278515Y-63242170D01*
X75127528Y-63196368D01*
X74988375Y-63121990D01*
X74866407Y-63021893D01*
X74766310Y-62899925D01*
X74691932Y-62760772D01*
X74646130Y-62609785D01*
X74630665Y-62452760D01*
X74646130Y-62295735D01*
X74691932Y-62144748D01*
X74766310Y-62005595D01*
X74866407Y-61883627D01*
X74988375Y-61783530D01*
X75127528Y-61709152D01*
X75278515Y-61663350D01*
X75396194Y-61651760D01*
X77774886Y-61651760D01*
X77892565Y-61663350D01*
X77892565Y-61663350D01*
G37*
G36*
X77017393Y-59129125D02*
X77092436Y-59151890D01*
X77102405Y-59154914D01*
X77180754Y-59196793D01*
X77249428Y-59253152D01*
X77305787Y-59321826D01*
X77347666Y-59400175D01*
X77347667Y-59400179D01*
X77373455Y-59485187D01*
X77379980Y-59551442D01*
X77379980Y-60395758D01*
X77373455Y-60462013D01*
X77350690Y-60537056D01*
X77347666Y-60547025D01*
X77305787Y-60625374D01*
X77249430Y-60694046D01*
X77249426Y-60694050D01*
X77180757Y-60750405D01*
X77180753Y-60750407D01*
X77102404Y-60792286D01*
X77092435Y-60795310D01*
X77017392Y-60818075D01*
X76928980Y-60826782D01*
X76840567Y-60818075D01*
X76765524Y-60795310D01*
X76755555Y-60792286D01*
X76677206Y-60750407D01*
X76608532Y-60694048D01*
X76608530Y-60694046D01*
X76552175Y-60625377D01*
X76547644Y-60616899D01*
X76510294Y-60547024D01*
X76507270Y-60537055D01*
X76484505Y-60462012D01*
X76477980Y-60395757D01*
X76477980Y-59551442D01*
X76484505Y-59485189D01*
X76510294Y-59400178D01*
X76510295Y-59400175D01*
X76552174Y-59321826D01*
X76608533Y-59253152D01*
X76677207Y-59196793D01*
X76755556Y-59154914D01*
X76765525Y-59151890D01*
X76840568Y-59129125D01*
X76928980Y-59120418D01*
X77017393Y-59129125D01*
X77017393Y-59129125D01*
G37*
G36*
X71047640Y-60480020D02*
X69495640Y-60480020D01*
X69495640Y-59728020D01*
X71047640Y-59728020D01*
X71047640Y-60480020D01*
X71047640Y-60480020D01*
G37*
G36*
X81854140Y-58881420D02*
X80152140Y-58881420D01*
X80152140Y-57579420D01*
X81854140Y-57579420D01*
X81854140Y-58881420D01*
X81854140Y-58881420D01*
G37*
G36*
X64927580Y-58471560D02*
X63225580Y-58471560D01*
X63225580Y-57169560D01*
X64927580Y-57169560D01*
X64927580Y-58471560D01*
X64927580Y-58471560D01*
G37*
G36*
X77017393Y-56629125D02*
X77092436Y-56651890D01*
X77102405Y-56654914D01*
X77180754Y-56696793D01*
X77249428Y-56753152D01*
X77305787Y-56821826D01*
X77347666Y-56900175D01*
X77347667Y-56900179D01*
X77373455Y-56985187D01*
X77379980Y-57051442D01*
X77379980Y-57895758D01*
X77373455Y-57962013D01*
X77351411Y-58034680D01*
X77347666Y-58047025D01*
X77305787Y-58125374D01*
X77249430Y-58194046D01*
X77249426Y-58194050D01*
X77180757Y-58250405D01*
X77180753Y-58250407D01*
X77102404Y-58292286D01*
X77092435Y-58295310D01*
X77017392Y-58318075D01*
X76928980Y-58326782D01*
X76840567Y-58318075D01*
X76765524Y-58295310D01*
X76755555Y-58292286D01*
X76677206Y-58250407D01*
X76608532Y-58194048D01*
X76608530Y-58194046D01*
X76552175Y-58125377D01*
X76547644Y-58116899D01*
X76510294Y-58047024D01*
X76506550Y-58034680D01*
X76484505Y-57962012D01*
X76477980Y-57895757D01*
X76477980Y-57051442D01*
X76484505Y-56985189D01*
X76510294Y-56900178D01*
X76510295Y-56900175D01*
X76552174Y-56821826D01*
X76608533Y-56753152D01*
X76677207Y-56696793D01*
X76755556Y-56654914D01*
X76765525Y-56651890D01*
X76840568Y-56629125D01*
X76928980Y-56620418D01*
X77017393Y-56629125D01*
X77017393Y-56629125D01*
G37*
G36*
X71683980Y-58034680D02*
X69981980Y-58034680D01*
X69981980Y-56732680D01*
X71683980Y-56732680D01*
X71683980Y-58034680D01*
X71683980Y-58034680D01*
G37*
G36*
X77017393Y-54629125D02*
X77092436Y-54651890D01*
X77102405Y-54654914D01*
X77180754Y-54696793D01*
X77249428Y-54753152D01*
X77305787Y-54821826D01*
X77347666Y-54900175D01*
X77347667Y-54900179D01*
X77373455Y-54985187D01*
X77379980Y-55051442D01*
X77379980Y-55895758D01*
X77373455Y-55962013D01*
X77350690Y-56037056D01*
X77347666Y-56047025D01*
X77305787Y-56125374D01*
X77249430Y-56194046D01*
X77249426Y-56194050D01*
X77180757Y-56250405D01*
X77180753Y-56250407D01*
X77102404Y-56292286D01*
X77092435Y-56295310D01*
X77017392Y-56318075D01*
X76928980Y-56326782D01*
X76840567Y-56318075D01*
X76765524Y-56295310D01*
X76755555Y-56292286D01*
X76677206Y-56250407D01*
X76608532Y-56194048D01*
X76608530Y-56194046D01*
X76552175Y-56125377D01*
X76547644Y-56116899D01*
X76510294Y-56047024D01*
X76507270Y-56037055D01*
X76484505Y-55962012D01*
X76477980Y-55895757D01*
X76477980Y-55051442D01*
X76484505Y-54985189D01*
X76510294Y-54900178D01*
X76510295Y-54900175D01*
X76552174Y-54821826D01*
X76608533Y-54753152D01*
X76677207Y-54696793D01*
X76755556Y-54654914D01*
X76765525Y-54651890D01*
X76840568Y-54629125D01*
X76928980Y-54620418D01*
X77017393Y-54629125D01*
X77017393Y-54629125D01*
G37*
G36*
X81854140Y-56081420D02*
X80152140Y-56081420D01*
X80152140Y-54779420D01*
X81854140Y-54779420D01*
X81854140Y-56081420D01*
X81854140Y-56081420D01*
G37*
G36*
X64927580Y-55671560D02*
X63225580Y-55671560D01*
X63225580Y-54369560D01*
X64927580Y-54369560D01*
X64927580Y-55671560D01*
X64927580Y-55671560D01*
G37*
G36*
X71683980Y-55234680D02*
X69981980Y-55234680D01*
X69981980Y-53932680D01*
X71683980Y-53932680D01*
X71683980Y-55234680D01*
X71683980Y-55234680D01*
G37*
G36*
X77017393Y-52129125D02*
X77092436Y-52151890D01*
X77102405Y-52154914D01*
X77180754Y-52196793D01*
X77249428Y-52253152D01*
X77305787Y-52321826D01*
X77347666Y-52400175D01*
X77347667Y-52400179D01*
X77373455Y-52485187D01*
X77379980Y-52551442D01*
X77379980Y-53395758D01*
X77373455Y-53462013D01*
X77350690Y-53537056D01*
X77347666Y-53547025D01*
X77305787Y-53625374D01*
X77249430Y-53694046D01*
X77249426Y-53694050D01*
X77180757Y-53750405D01*
X77180753Y-53750407D01*
X77102404Y-53792286D01*
X77092435Y-53795310D01*
X77017392Y-53818075D01*
X76928980Y-53826782D01*
X76840567Y-53818075D01*
X76765524Y-53795310D01*
X76755555Y-53792286D01*
X76677206Y-53750407D01*
X76608532Y-53694048D01*
X76608530Y-53694046D01*
X76552175Y-53625377D01*
X76547644Y-53616899D01*
X76510294Y-53547024D01*
X76507270Y-53537055D01*
X76484505Y-53462012D01*
X76477980Y-53395757D01*
X76477980Y-52551442D01*
X76484505Y-52485189D01*
X76510294Y-52400178D01*
X76510295Y-52400175D01*
X76552174Y-52321826D01*
X76608533Y-52253152D01*
X76677207Y-52196793D01*
X76755556Y-52154914D01*
X76765525Y-52151890D01*
X76840568Y-52129125D01*
X76928980Y-52120418D01*
X77017393Y-52129125D01*
X77017393Y-52129125D01*
G37*
G36*
X65540520Y-51279880D02*
X64380335Y-51279880D01*
X64355949Y-51282282D01*
X64332500Y-51289395D01*
X64310889Y-51300946D01*
X64291947Y-51316492D01*
X64270099Y-51345949D01*
X64252636Y-51378620D01*
X64183781Y-51462521D01*
X64099880Y-51531376D01*
X64004159Y-51582541D01*
X63900295Y-51614047D01*
X63819347Y-51622020D01*
X63765213Y-51622020D01*
X63684265Y-51614047D01*
X63580401Y-51582541D01*
X63484680Y-51531376D01*
X63400779Y-51462521D01*
X63331924Y-51378620D01*
X63280759Y-51282899D01*
X63249253Y-51179035D01*
X63238614Y-51071020D01*
X63249253Y-50963005D01*
X63280759Y-50859141D01*
X63331924Y-50763420D01*
X63400779Y-50679519D01*
X63484680Y-50610664D01*
X63580401Y-50559499D01*
X63684265Y-50527993D01*
X63765213Y-50520020D01*
X63813520Y-50520020D01*
X63837906Y-50517618D01*
X63861355Y-50510505D01*
X63882966Y-50498954D01*
X63901908Y-50483408D01*
X63917454Y-50464466D01*
X63929005Y-50442855D01*
X63936118Y-50419406D01*
X63938520Y-50395020D01*
X63938520Y-50177880D01*
X65540520Y-50177880D01*
X65540520Y-51279880D01*
X65540520Y-51279880D01*
G37*
G36*
X77957005Y-49768530D02*
X78107992Y-49814332D01*
X78247145Y-49888710D01*
X78369113Y-49988807D01*
X78469210Y-50110775D01*
X78543588Y-50249928D01*
X78589390Y-50400915D01*
X78604855Y-50557940D01*
X78589390Y-50714965D01*
X78543588Y-50865952D01*
X78469210Y-51005105D01*
X78369113Y-51127073D01*
X78247145Y-51227170D01*
X78107992Y-51301548D01*
X77957005Y-51347350D01*
X77839326Y-51358940D01*
X75260634Y-51358940D01*
X75142955Y-51347350D01*
X74991968Y-51301548D01*
X74852815Y-51227170D01*
X74730847Y-51127073D01*
X74630750Y-51005105D01*
X74556372Y-50865952D01*
X74510570Y-50714965D01*
X74495105Y-50557940D01*
X74510570Y-50400915D01*
X74556372Y-50249928D01*
X74630750Y-50110775D01*
X74730847Y-49988807D01*
X74852815Y-49888710D01*
X74991968Y-49814332D01*
X75142955Y-49768530D01*
X75260634Y-49756940D01*
X77839326Y-49756940D01*
X77957005Y-49768530D01*
X77957005Y-49768530D01*
G37*
G36*
X67787974Y-46784932D02*
X67997442Y-46871696D01*
X68185963Y-46997662D01*
X68346278Y-47157977D01*
X68472244Y-47346498D01*
X68559008Y-47555966D01*
X68603240Y-47778335D01*
X68603240Y-48005065D01*
X68559008Y-48227434D01*
X68472244Y-48436902D01*
X68346278Y-48625423D01*
X68185963Y-48785738D01*
X67997442Y-48911704D01*
X67787974Y-48998468D01*
X67565605Y-49042700D01*
X67338875Y-49042700D01*
X67116506Y-48998468D01*
X66907038Y-48911704D01*
X66718517Y-48785738D01*
X66558202Y-48625423D01*
X66432236Y-48436902D01*
X66345472Y-48227434D01*
X66301240Y-48005065D01*
X66301240Y-47778335D01*
X66345472Y-47555966D01*
X66432236Y-47346498D01*
X66558202Y-47157977D01*
X66718517Y-46997662D01*
X66907038Y-46871696D01*
X67116506Y-46784932D01*
X67338875Y-46740700D01*
X67565605Y-46740700D01*
X67787974Y-46784932D01*
X67787974Y-46784932D01*
G37*
G36*
X76346832Y-46311285D02*
X76421875Y-46334050D01*
X76431844Y-46337074D01*
X76501719Y-46374424D01*
X76510197Y-46378955D01*
X76578866Y-46435310D01*
X76578868Y-46435312D01*
X76635227Y-46503986D01*
X76677106Y-46582335D01*
X76680130Y-46592304D01*
X76702895Y-46667347D01*
X76709420Y-46733602D01*
X76709420Y-47977918D01*
X76702895Y-48044173D01*
X76680130Y-48119216D01*
X76677106Y-48129185D01*
X76635227Y-48207534D01*
X76578868Y-48276208D01*
X76510194Y-48332567D01*
X76431845Y-48374446D01*
X76421876Y-48377470D01*
X76346833Y-48400235D01*
X76258420Y-48408942D01*
X76170008Y-48400235D01*
X76094965Y-48377470D01*
X76084996Y-48374446D01*
X76006647Y-48332567D01*
X75937973Y-48276208D01*
X75881614Y-48207534D01*
X75839735Y-48129185D01*
X75836711Y-48119216D01*
X75813946Y-48044173D01*
X75807421Y-47977918D01*
X75807420Y-46733603D01*
X75813945Y-46667348D01*
X75839733Y-46582340D01*
X75839734Y-46582336D01*
X75881613Y-46503987D01*
X75881615Y-46503983D01*
X75937970Y-46435314D01*
X75937975Y-46435310D01*
X76006646Y-46378953D01*
X76084995Y-46337074D01*
X76094964Y-46334050D01*
X76170007Y-46311285D01*
X76258420Y-46302578D01*
X76346832Y-46311285D01*
X76346832Y-46311285D01*
G37*
G36*
X77616832Y-46311285D02*
X77691875Y-46334050D01*
X77701844Y-46337074D01*
X77771719Y-46374424D01*
X77780197Y-46378955D01*
X77848866Y-46435310D01*
X77848868Y-46435312D01*
X77905227Y-46503986D01*
X77947106Y-46582335D01*
X77950130Y-46592304D01*
X77972895Y-46667347D01*
X77979420Y-46733602D01*
X77979420Y-47977918D01*
X77972895Y-48044173D01*
X77950130Y-48119216D01*
X77947106Y-48129185D01*
X77905227Y-48207534D01*
X77848868Y-48276208D01*
X77780194Y-48332567D01*
X77701845Y-48374446D01*
X77691876Y-48377470D01*
X77616833Y-48400235D01*
X77528420Y-48408942D01*
X77440008Y-48400235D01*
X77364965Y-48377470D01*
X77354996Y-48374446D01*
X77276647Y-48332567D01*
X77207973Y-48276208D01*
X77151614Y-48207534D01*
X77109735Y-48129185D01*
X77106711Y-48119216D01*
X77083946Y-48044173D01*
X77077421Y-47977918D01*
X77077420Y-46733603D01*
X77083945Y-46667348D01*
X77109733Y-46582340D01*
X77109734Y-46582336D01*
X77151613Y-46503987D01*
X77151615Y-46503983D01*
X77207970Y-46435314D01*
X77207975Y-46435310D01*
X77276646Y-46378953D01*
X77354995Y-46337074D01*
X77364964Y-46334050D01*
X77440007Y-46311285D01*
X77528420Y-46302578D01*
X77616832Y-46311285D01*
X77616832Y-46311285D01*
G37*
G36*
X78886832Y-46311285D02*
X78961875Y-46334050D01*
X78971844Y-46337074D01*
X79041719Y-46374424D01*
X79050197Y-46378955D01*
X79118866Y-46435310D01*
X79118868Y-46435312D01*
X79175227Y-46503986D01*
X79217106Y-46582335D01*
X79220130Y-46592304D01*
X79242895Y-46667347D01*
X79249420Y-46733602D01*
X79249420Y-47977918D01*
X79242895Y-48044173D01*
X79220130Y-48119216D01*
X79217106Y-48129185D01*
X79175227Y-48207534D01*
X79118868Y-48276208D01*
X79050194Y-48332567D01*
X78971845Y-48374446D01*
X78961876Y-48377470D01*
X78886833Y-48400235D01*
X78798420Y-48408942D01*
X78710008Y-48400235D01*
X78634965Y-48377470D01*
X78624996Y-48374446D01*
X78546647Y-48332567D01*
X78477973Y-48276208D01*
X78421614Y-48207534D01*
X78379735Y-48129185D01*
X78376711Y-48119216D01*
X78353946Y-48044173D01*
X78347421Y-47977918D01*
X78347420Y-46733603D01*
X78353945Y-46667348D01*
X78379733Y-46582340D01*
X78379734Y-46582336D01*
X78421613Y-46503987D01*
X78421615Y-46503983D01*
X78477970Y-46435314D01*
X78477975Y-46435310D01*
X78546646Y-46378953D01*
X78624995Y-46337074D01*
X78634964Y-46334050D01*
X78710007Y-46311285D01*
X78798420Y-46302578D01*
X78886832Y-46311285D01*
X78886832Y-46311285D01*
G37*
G36*
X80156832Y-46311285D02*
X80231875Y-46334050D01*
X80241844Y-46337074D01*
X80311719Y-46374424D01*
X80320197Y-46378955D01*
X80388866Y-46435310D01*
X80388868Y-46435312D01*
X80445227Y-46503986D01*
X80487106Y-46582335D01*
X80490130Y-46592304D01*
X80512895Y-46667347D01*
X80519420Y-46733602D01*
X80519420Y-47977918D01*
X80512895Y-48044173D01*
X80490130Y-48119216D01*
X80487106Y-48129185D01*
X80445227Y-48207534D01*
X80388868Y-48276208D01*
X80320194Y-48332567D01*
X80241845Y-48374446D01*
X80231876Y-48377470D01*
X80156833Y-48400235D01*
X80068420Y-48408942D01*
X79980008Y-48400235D01*
X79904965Y-48377470D01*
X79894996Y-48374446D01*
X79816647Y-48332567D01*
X79747973Y-48276208D01*
X79691614Y-48207534D01*
X79649735Y-48129185D01*
X79646711Y-48119216D01*
X79623946Y-48044173D01*
X79617421Y-47977918D01*
X79617420Y-46733603D01*
X79623945Y-46667348D01*
X79649733Y-46582340D01*
X79649734Y-46582336D01*
X79691613Y-46503987D01*
X79691615Y-46503983D01*
X79747970Y-46435314D01*
X79747975Y-46435310D01*
X79816646Y-46378953D01*
X79894995Y-46337074D01*
X79904964Y-46334050D01*
X79980007Y-46311285D01*
X80068420Y-46302578D01*
X80156832Y-46311285D01*
X80156832Y-46311285D01*
G37*
G36*
X74268740Y-48237240D02*
X72966740Y-48237240D01*
X72966740Y-46535240D01*
X74268740Y-46535240D01*
X74268740Y-48237240D01*
X74268740Y-48237240D01*
G37*
G36*
X71468740Y-48237240D02*
X70166740Y-48237240D01*
X70166740Y-46535240D01*
X71468740Y-46535240D01*
X71468740Y-48237240D01*
X71468740Y-48237240D01*
G37*
G36*
X65540520Y-48079880D02*
X63938520Y-48079880D01*
X63938520Y-46977880D01*
X65540520Y-46977880D01*
X65540520Y-48079880D01*
X65540520Y-48079880D01*
G37*
M02*
