M48
;DRILL file {KiCad (5.0.2)-1} date 2019-08-16 13:34:46
;FORMAT={-:-/ absolute / inch / decimal}
FMAT,2
INCH,TZ
T1C0.0157
T2C0.0276
T3C0.0354
%
G90
G05
T1
X2.4906Y-2.51
X2.5563Y-2.4251
X2.5921Y-2.283
X2.6048Y-2.5293
X2.6807Y-2.485
X2.717Y-2.1725
X2.8259Y-2.0274
X2.848Y-2.366
X2.8591Y-1.9827
X2.901Y-2.3027
X2.9027Y-2.0998
X3.0821Y-2.3076
X3.1458Y-2.4463
X3.1585Y-1.9375
X3.1678Y-2.0458
T2
X2.5115Y-2.0107
T2
X3.0287Y-2.0757G85X3.0287Y-2.0954
G05
X3.0287Y-2.1742G85X3.0287Y-2.1938
G05
X3.0287Y-2.2529G85X3.0287Y-2.2726
G05
X3.0287Y-2.3513G85X3.0287Y-2.371
G05
T3
X3.0591Y-1.9905G85X2.9685Y-1.9905
G05
X3.0605Y-2.4588G85X2.9699Y-2.4588
G05
T0
M30
