G04 #@! TF.GenerationSoftware,KiCad,Pcbnew,(5.0.2)-1*
G04 #@! TF.CreationDate,2019-08-16T13:34:43+08:00*
G04 #@! TF.ProjectId,IRMQTT,49524d51-5454-42e6-9b69-6361645f7063,rev?*
G04 #@! TF.SameCoordinates,Original*
G04 #@! TF.FileFunction,Soldermask,Bot*
G04 #@! TF.FilePolarity,Negative*
%FSLAX46Y46*%
G04 Gerber Fmt 4.6, Leading zero omitted, Abs format (unit mm)*
G04 Created by KiCad (PCBNEW (5.0.2)-1) date 2019-08-16 13:34:43*
%MOMM*%
%LPD*%
G01*
G04 APERTURE LIST*
%ADD10C,0.100000*%
G04 APERTURE END LIST*
D10*
G36*
X73410335Y-65190214D02*
X73449610Y-65194082D01*
X73500002Y-65209369D01*
X73525199Y-65217012D01*
X73594860Y-65254247D01*
X73655922Y-65304358D01*
X73706033Y-65365420D01*
X73743268Y-65435081D01*
X73743268Y-65435082D01*
X73766198Y-65510670D01*
X73773940Y-65589280D01*
X73766198Y-65667890D01*
X73750911Y-65718282D01*
X73743268Y-65743479D01*
X73706033Y-65813140D01*
X73655922Y-65874202D01*
X73594860Y-65924313D01*
X73525199Y-65961548D01*
X73500002Y-65969191D01*
X73449610Y-65984478D01*
X73410335Y-65988346D01*
X73390699Y-65990280D01*
X72151301Y-65990280D01*
X72131665Y-65988346D01*
X72092390Y-65984478D01*
X72041998Y-65969191D01*
X72016801Y-65961548D01*
X71947140Y-65924313D01*
X71886078Y-65874202D01*
X71835967Y-65813140D01*
X71798732Y-65743479D01*
X71791089Y-65718282D01*
X71775802Y-65667890D01*
X71768060Y-65589280D01*
X71775802Y-65510670D01*
X71798732Y-65435082D01*
X71798732Y-65435081D01*
X71835967Y-65365420D01*
X71886078Y-65304358D01*
X71947140Y-65254247D01*
X72016801Y-65217012D01*
X72041998Y-65209369D01*
X72092390Y-65194082D01*
X72131665Y-65190214D01*
X72151301Y-65188280D01*
X73390699Y-65188280D01*
X73410335Y-65190214D01*
X73410335Y-65190214D01*
G37*
G36*
X64538940Y-65773780D02*
X63786940Y-65773780D01*
X63786940Y-64221780D01*
X64538940Y-64221780D01*
X64538940Y-65773780D01*
X64538940Y-65773780D01*
G37*
G36*
X67737860Y-65531980D02*
X66705860Y-65531980D01*
X66705860Y-64449980D01*
X67737860Y-64449980D01*
X67737860Y-65531980D01*
X67737860Y-65531980D01*
G37*
G36*
X66197860Y-65531980D02*
X65165860Y-65531980D01*
X65165860Y-64449980D01*
X66197860Y-64449980D01*
X66197860Y-65531980D01*
X66197860Y-65531980D01*
G37*
G36*
X80703874Y-63188252D02*
X80913342Y-63275016D01*
X81101863Y-63400982D01*
X81262178Y-63561297D01*
X81388144Y-63749818D01*
X81474908Y-63959286D01*
X81519140Y-64181655D01*
X81519140Y-64408385D01*
X81474908Y-64630754D01*
X81388144Y-64840222D01*
X81262178Y-65028743D01*
X81101863Y-65189058D01*
X80913342Y-65315024D01*
X80703874Y-65401788D01*
X80481505Y-65446020D01*
X80254775Y-65446020D01*
X80032406Y-65401788D01*
X79822938Y-65315024D01*
X79634417Y-65189058D01*
X79474102Y-65028743D01*
X79348136Y-64840222D01*
X79261372Y-64630754D01*
X79217140Y-64408385D01*
X79217140Y-64181655D01*
X79261372Y-63959286D01*
X79348136Y-63749818D01*
X79474102Y-63561297D01*
X79634417Y-63400982D01*
X79822938Y-63275016D01*
X80032406Y-63188252D01*
X80254775Y-63144020D01*
X80481505Y-63144020D01*
X80703874Y-63188252D01*
X80703874Y-63188252D01*
G37*
G36*
X71103510Y-63041321D02*
X71227032Y-63053487D01*
X71425146Y-63113585D01*
X71607729Y-63211177D01*
X71767765Y-63342515D01*
X71899103Y-63502551D01*
X71961168Y-63618666D01*
X71963059Y-63622205D01*
X71976673Y-63642579D01*
X71994000Y-63659906D01*
X72014374Y-63673520D01*
X72037013Y-63682898D01*
X72061047Y-63687678D01*
X72073299Y-63688280D01*
X73390699Y-63688280D01*
X73410335Y-63690214D01*
X73449610Y-63694082D01*
X73500002Y-63709369D01*
X73525199Y-63717012D01*
X73594860Y-63754247D01*
X73655922Y-63804358D01*
X73706033Y-63865420D01*
X73743268Y-63935081D01*
X73743268Y-63935082D01*
X73766198Y-64010670D01*
X73773940Y-64089280D01*
X73766198Y-64167890D01*
X73762022Y-64181655D01*
X73743268Y-64243479D01*
X73706033Y-64313140D01*
X73655922Y-64374202D01*
X73594860Y-64424313D01*
X73525199Y-64461548D01*
X73500002Y-64469191D01*
X73449610Y-64484478D01*
X73410335Y-64488346D01*
X73390699Y-64490280D01*
X72073299Y-64490280D01*
X72048913Y-64492682D01*
X72025464Y-64499795D01*
X72003853Y-64511346D01*
X71984911Y-64526892D01*
X71969365Y-64545834D01*
X71963059Y-64556355D01*
X71899103Y-64676009D01*
X71767765Y-64836045D01*
X71607729Y-64967383D01*
X71425146Y-65064975D01*
X71227032Y-65125073D01*
X71103510Y-65137239D01*
X71072631Y-65140280D01*
X69469369Y-65140280D01*
X69438490Y-65137239D01*
X69314968Y-65125073D01*
X69116854Y-65064975D01*
X68934271Y-64967383D01*
X68774235Y-64836045D01*
X68642897Y-64676009D01*
X68545305Y-64493426D01*
X68485207Y-64295312D01*
X68464915Y-64089280D01*
X68485207Y-63883248D01*
X68545305Y-63685134D01*
X68642897Y-63502551D01*
X68774235Y-63342515D01*
X68934271Y-63211177D01*
X69116854Y-63113585D01*
X69314968Y-63053487D01*
X69438490Y-63041321D01*
X69469369Y-63038280D01*
X71072631Y-63038280D01*
X71103510Y-63041321D01*
X71103510Y-63041321D01*
G37*
G36*
X64523700Y-63541120D02*
X63771700Y-63541120D01*
X63771700Y-61989120D01*
X64523700Y-61989120D01*
X64523700Y-63541120D01*
X64523700Y-63541120D01*
G37*
G36*
X65963880Y-63533500D02*
X65211880Y-63533500D01*
X65211880Y-61981500D01*
X65963880Y-61981500D01*
X65963880Y-63533500D01*
X65963880Y-63533500D01*
G37*
G36*
X67492960Y-63487780D02*
X66740960Y-63487780D01*
X66740960Y-61935780D01*
X67492960Y-61935780D01*
X67492960Y-63487780D01*
X67492960Y-63487780D01*
G37*
G36*
X77892565Y-61663350D02*
X78043552Y-61709152D01*
X78182705Y-61783530D01*
X78304673Y-61883627D01*
X78404770Y-62005595D01*
X78479148Y-62144748D01*
X78524950Y-62295735D01*
X78540415Y-62452760D01*
X78524950Y-62609785D01*
X78479148Y-62760772D01*
X78404770Y-62899925D01*
X78304673Y-63021893D01*
X78182705Y-63121990D01*
X78043552Y-63196368D01*
X77892565Y-63242170D01*
X77774886Y-63253760D01*
X75396194Y-63253760D01*
X75278515Y-63242170D01*
X75127528Y-63196368D01*
X74988375Y-63121990D01*
X74866407Y-63021893D01*
X74766310Y-62899925D01*
X74691932Y-62760772D01*
X74646130Y-62609785D01*
X74630665Y-62452760D01*
X74646130Y-62295735D01*
X74691932Y-62144748D01*
X74766310Y-62005595D01*
X74866407Y-61883627D01*
X74988375Y-61783530D01*
X75127528Y-61709152D01*
X75278515Y-61663350D01*
X75396194Y-61651760D01*
X77774886Y-61651760D01*
X77892565Y-61663350D01*
X77892565Y-61663350D01*
G37*
G36*
X73410335Y-62190214D02*
X73449610Y-62194082D01*
X73500002Y-62209369D01*
X73525199Y-62217012D01*
X73594860Y-62254247D01*
X73655922Y-62304358D01*
X73706033Y-62365420D01*
X73743268Y-62435081D01*
X73743268Y-62435082D01*
X73766198Y-62510670D01*
X73773940Y-62589280D01*
X73766198Y-62667890D01*
X73759151Y-62691120D01*
X73743268Y-62743479D01*
X73706033Y-62813140D01*
X73655922Y-62874202D01*
X73594860Y-62924313D01*
X73525199Y-62961548D01*
X73500002Y-62969191D01*
X73449610Y-62984478D01*
X73410335Y-62988346D01*
X73390699Y-62990280D01*
X72151301Y-62990280D01*
X72131665Y-62988346D01*
X72092390Y-62984478D01*
X72041998Y-62969191D01*
X72016801Y-62961548D01*
X71947140Y-62924313D01*
X71886078Y-62874202D01*
X71835967Y-62813140D01*
X71798732Y-62743479D01*
X71782849Y-62691120D01*
X71775802Y-62667890D01*
X71768060Y-62589280D01*
X71775802Y-62510670D01*
X71798732Y-62435082D01*
X71798732Y-62435081D01*
X71835967Y-62365420D01*
X71886078Y-62304358D01*
X71947140Y-62254247D01*
X72016801Y-62217012D01*
X72041998Y-62209369D01*
X72092390Y-62194082D01*
X72131665Y-62190214D01*
X72151301Y-62188280D01*
X73390699Y-62188280D01*
X73410335Y-62190214D01*
X73410335Y-62190214D01*
G37*
G36*
X81124740Y-62723120D02*
X80322740Y-62723120D01*
X80322740Y-61371120D01*
X81124740Y-61371120D01*
X81124740Y-62723120D01*
X81124740Y-62723120D01*
G37*
G36*
X68280693Y-59276545D02*
X68355736Y-59299310D01*
X68365705Y-59302334D01*
X68444054Y-59344213D01*
X68512728Y-59400572D01*
X68569087Y-59469246D01*
X68610966Y-59547595D01*
X68610967Y-59547599D01*
X68636755Y-59632607D01*
X68643280Y-59698862D01*
X68643280Y-60443178D01*
X68636755Y-60509433D01*
X68622663Y-60555885D01*
X68610966Y-60594445D01*
X68569087Y-60672794D01*
X68512730Y-60741466D01*
X68512726Y-60741470D01*
X68444057Y-60797825D01*
X68444053Y-60797827D01*
X68365704Y-60839706D01*
X68355735Y-60842730D01*
X68280692Y-60865495D01*
X68192280Y-60874202D01*
X68103867Y-60865495D01*
X68028824Y-60842730D01*
X68018855Y-60839706D01*
X67940506Y-60797827D01*
X67871832Y-60741468D01*
X67871830Y-60741466D01*
X67815475Y-60672797D01*
X67812155Y-60666585D01*
X67773594Y-60594444D01*
X67764620Y-60564861D01*
X67761897Y-60555884D01*
X67752520Y-60533245D01*
X67738906Y-60512871D01*
X67721578Y-60495544D01*
X67701204Y-60481930D01*
X67678564Y-60472553D01*
X67654531Y-60467773D01*
X67630027Y-60467773D01*
X67605993Y-60472554D01*
X67583354Y-60481931D01*
X67562980Y-60495545D01*
X67545653Y-60512873D01*
X67532039Y-60533247D01*
X67522663Y-60555884D01*
X67510966Y-60594445D01*
X67469087Y-60672794D01*
X67412730Y-60741466D01*
X67412726Y-60741470D01*
X67344057Y-60797825D01*
X67344053Y-60797827D01*
X67265704Y-60839706D01*
X67255735Y-60842730D01*
X67180692Y-60865495D01*
X67092280Y-60874202D01*
X67003867Y-60865495D01*
X66928824Y-60842730D01*
X66918855Y-60839706D01*
X66840506Y-60797827D01*
X66771832Y-60741468D01*
X66771830Y-60741466D01*
X66715475Y-60672797D01*
X66710944Y-60664319D01*
X66673594Y-60594444D01*
X66670570Y-60584475D01*
X66647805Y-60509432D01*
X66641280Y-60443177D01*
X66641280Y-59698862D01*
X66647805Y-59632607D01*
X66673593Y-59547597D01*
X66715473Y-59469247D01*
X66771833Y-59400572D01*
X66840506Y-59344214D01*
X66840505Y-59344214D01*
X66840507Y-59344213D01*
X66918856Y-59302334D01*
X66928825Y-59299310D01*
X67003868Y-59276545D01*
X67092280Y-59267838D01*
X67180693Y-59276545D01*
X67255736Y-59299310D01*
X67265705Y-59302334D01*
X67344054Y-59344213D01*
X67412728Y-59400572D01*
X67469087Y-59469246D01*
X67510966Y-59547595D01*
X67519940Y-59577178D01*
X67522663Y-59586155D01*
X67532040Y-59608794D01*
X67545654Y-59629168D01*
X67562982Y-59646495D01*
X67583356Y-59660109D01*
X67605996Y-59669486D01*
X67630029Y-59674266D01*
X67654533Y-59674266D01*
X67678567Y-59669485D01*
X67701206Y-59660108D01*
X67721580Y-59646494D01*
X67738907Y-59629166D01*
X67752521Y-59608792D01*
X67761897Y-59586155D01*
X67773594Y-59547596D01*
X67815473Y-59469247D01*
X67871833Y-59400572D01*
X67940506Y-59344214D01*
X67940505Y-59344214D01*
X67940507Y-59344213D01*
X68018856Y-59302334D01*
X68028825Y-59299310D01*
X68103868Y-59276545D01*
X68192280Y-59267838D01*
X68280693Y-59276545D01*
X68280693Y-59276545D01*
G37*
G36*
X64980693Y-59276545D02*
X65055736Y-59299310D01*
X65065705Y-59302334D01*
X65144054Y-59344213D01*
X65212728Y-59400572D01*
X65269087Y-59469246D01*
X65310966Y-59547595D01*
X65310967Y-59547599D01*
X65336755Y-59632607D01*
X65343280Y-59698862D01*
X65343280Y-60443178D01*
X65336755Y-60509433D01*
X65322663Y-60555885D01*
X65310966Y-60594445D01*
X65269087Y-60672794D01*
X65212730Y-60741466D01*
X65212726Y-60741470D01*
X65144057Y-60797825D01*
X65144053Y-60797827D01*
X65065704Y-60839706D01*
X65055735Y-60842730D01*
X64980692Y-60865495D01*
X64892280Y-60874202D01*
X64803867Y-60865495D01*
X64728824Y-60842730D01*
X64718855Y-60839706D01*
X64640506Y-60797827D01*
X64571832Y-60741468D01*
X64571830Y-60741466D01*
X64515475Y-60672797D01*
X64512155Y-60666585D01*
X64473594Y-60594444D01*
X64464620Y-60564861D01*
X64461897Y-60555884D01*
X64452520Y-60533245D01*
X64438906Y-60512871D01*
X64421578Y-60495544D01*
X64401204Y-60481930D01*
X64378564Y-60472553D01*
X64354531Y-60467773D01*
X64330027Y-60467773D01*
X64305993Y-60472554D01*
X64283354Y-60481931D01*
X64262980Y-60495545D01*
X64245653Y-60512873D01*
X64232039Y-60533247D01*
X64222663Y-60555884D01*
X64210966Y-60594445D01*
X64169087Y-60672794D01*
X64112730Y-60741466D01*
X64112726Y-60741470D01*
X64044057Y-60797825D01*
X64044053Y-60797827D01*
X63965704Y-60839706D01*
X63955735Y-60842730D01*
X63880692Y-60865495D01*
X63792280Y-60874202D01*
X63703867Y-60865495D01*
X63628824Y-60842730D01*
X63618855Y-60839706D01*
X63540506Y-60797827D01*
X63471832Y-60741468D01*
X63471830Y-60741466D01*
X63415475Y-60672797D01*
X63410944Y-60664319D01*
X63373594Y-60594444D01*
X63370570Y-60584475D01*
X63347805Y-60509432D01*
X63341280Y-60443177D01*
X63341280Y-59698862D01*
X63347805Y-59632607D01*
X63373593Y-59547597D01*
X63415473Y-59469247D01*
X63471833Y-59400572D01*
X63540506Y-59344214D01*
X63540505Y-59344214D01*
X63540507Y-59344213D01*
X63618856Y-59302334D01*
X63628825Y-59299310D01*
X63703868Y-59276545D01*
X63792280Y-59267838D01*
X63880693Y-59276545D01*
X63955736Y-59299310D01*
X63965705Y-59302334D01*
X64044054Y-59344213D01*
X64112728Y-59400572D01*
X64169087Y-59469246D01*
X64210966Y-59547595D01*
X64219940Y-59577178D01*
X64222663Y-59586155D01*
X64232040Y-59608794D01*
X64245654Y-59629168D01*
X64262982Y-59646495D01*
X64283356Y-59660109D01*
X64305996Y-59669486D01*
X64330029Y-59674266D01*
X64354533Y-59674266D01*
X64378567Y-59669485D01*
X64401206Y-59660108D01*
X64421580Y-59646494D01*
X64438907Y-59629166D01*
X64452521Y-59608792D01*
X64461897Y-59586155D01*
X64473594Y-59547596D01*
X64515473Y-59469247D01*
X64571833Y-59400572D01*
X64640506Y-59344214D01*
X64640505Y-59344214D01*
X64640507Y-59344213D01*
X64718856Y-59302334D01*
X64728825Y-59299310D01*
X64803868Y-59276545D01*
X64892280Y-59267838D01*
X64980693Y-59276545D01*
X64980693Y-59276545D01*
G37*
G36*
X71580693Y-59276545D02*
X71655736Y-59299310D01*
X71665705Y-59302334D01*
X71744054Y-59344213D01*
X71812728Y-59400572D01*
X71869087Y-59469246D01*
X71910966Y-59547595D01*
X71910967Y-59547599D01*
X71936755Y-59632607D01*
X71943280Y-59698862D01*
X71943280Y-60443178D01*
X71936755Y-60509433D01*
X71922663Y-60555885D01*
X71910966Y-60594445D01*
X71869087Y-60672794D01*
X71812730Y-60741466D01*
X71812726Y-60741470D01*
X71744057Y-60797825D01*
X71744053Y-60797827D01*
X71665704Y-60839706D01*
X71655735Y-60842730D01*
X71580692Y-60865495D01*
X71492280Y-60874202D01*
X71403867Y-60865495D01*
X71328824Y-60842730D01*
X71318855Y-60839706D01*
X71240506Y-60797827D01*
X71171832Y-60741468D01*
X71171830Y-60741466D01*
X71115475Y-60672797D01*
X71112155Y-60666585D01*
X71073594Y-60594444D01*
X71064620Y-60564861D01*
X71061897Y-60555884D01*
X71052520Y-60533245D01*
X71038906Y-60512871D01*
X71021578Y-60495544D01*
X71001204Y-60481930D01*
X70978564Y-60472553D01*
X70954531Y-60467773D01*
X70930027Y-60467773D01*
X70905993Y-60472554D01*
X70883354Y-60481931D01*
X70862980Y-60495545D01*
X70845653Y-60512873D01*
X70832039Y-60533247D01*
X70822663Y-60555884D01*
X70810966Y-60594445D01*
X70769087Y-60672794D01*
X70712730Y-60741466D01*
X70712726Y-60741470D01*
X70644057Y-60797825D01*
X70644053Y-60797827D01*
X70565704Y-60839706D01*
X70555735Y-60842730D01*
X70480692Y-60865495D01*
X70392280Y-60874202D01*
X70303867Y-60865495D01*
X70228824Y-60842730D01*
X70218855Y-60839706D01*
X70140506Y-60797827D01*
X70071832Y-60741468D01*
X70071830Y-60741466D01*
X70015475Y-60672797D01*
X70010944Y-60664319D01*
X69973594Y-60594444D01*
X69970570Y-60584475D01*
X69947805Y-60509432D01*
X69941280Y-60443177D01*
X69941280Y-59698862D01*
X69947805Y-59632607D01*
X69973593Y-59547597D01*
X70015473Y-59469247D01*
X70071833Y-59400572D01*
X70140506Y-59344214D01*
X70140505Y-59344214D01*
X70140507Y-59344213D01*
X70218856Y-59302334D01*
X70228825Y-59299310D01*
X70303868Y-59276545D01*
X70392280Y-59267838D01*
X70480693Y-59276545D01*
X70555736Y-59299310D01*
X70565705Y-59302334D01*
X70644054Y-59344213D01*
X70712728Y-59400572D01*
X70769087Y-59469246D01*
X70810966Y-59547595D01*
X70819940Y-59577178D01*
X70822663Y-59586155D01*
X70832040Y-59608794D01*
X70845654Y-59629168D01*
X70862982Y-59646495D01*
X70883356Y-59660109D01*
X70905996Y-59669486D01*
X70930029Y-59674266D01*
X70954533Y-59674266D01*
X70978567Y-59669485D01*
X71001206Y-59660108D01*
X71021580Y-59646494D01*
X71038907Y-59629166D01*
X71052521Y-59608792D01*
X71061897Y-59586155D01*
X71073594Y-59547596D01*
X71115473Y-59469247D01*
X71171833Y-59400572D01*
X71240506Y-59344214D01*
X71240505Y-59344214D01*
X71240507Y-59344213D01*
X71318856Y-59302334D01*
X71328825Y-59299310D01*
X71403868Y-59276545D01*
X71492280Y-59267838D01*
X71580693Y-59276545D01*
X71580693Y-59276545D01*
G37*
G36*
X77017393Y-59129125D02*
X77092436Y-59151890D01*
X77102405Y-59154914D01*
X77180754Y-59196793D01*
X77249428Y-59253152D01*
X77305787Y-59321826D01*
X77347666Y-59400175D01*
X77347667Y-59400179D01*
X77373455Y-59485187D01*
X77379980Y-59551442D01*
X77379980Y-60395758D01*
X77373455Y-60462013D01*
X77358026Y-60512873D01*
X77347666Y-60547025D01*
X77305787Y-60625374D01*
X77249430Y-60694046D01*
X77249426Y-60694050D01*
X77180757Y-60750405D01*
X77180753Y-60750407D01*
X77102404Y-60792286D01*
X77092435Y-60795310D01*
X77017392Y-60818075D01*
X76928980Y-60826782D01*
X76840567Y-60818075D01*
X76765524Y-60795310D01*
X76755555Y-60792286D01*
X76677206Y-60750407D01*
X76608532Y-60694048D01*
X76608530Y-60694046D01*
X76552175Y-60625377D01*
X76547644Y-60616899D01*
X76510294Y-60547024D01*
X76506114Y-60533245D01*
X76484505Y-60462012D01*
X76477980Y-60395757D01*
X76477980Y-59551442D01*
X76484505Y-59485189D01*
X76510294Y-59400178D01*
X76510295Y-59400175D01*
X76552174Y-59321826D01*
X76608533Y-59253152D01*
X76677207Y-59196793D01*
X76755556Y-59154914D01*
X76765525Y-59151890D01*
X76840568Y-59129125D01*
X76928980Y-59120418D01*
X77017393Y-59129125D01*
X77017393Y-59129125D01*
G37*
G36*
X82074740Y-60223120D02*
X81272740Y-60223120D01*
X81272740Y-58871120D01*
X82074740Y-58871120D01*
X82074740Y-60223120D01*
X82074740Y-60223120D01*
G37*
G36*
X80174740Y-60223120D02*
X79372740Y-60223120D01*
X79372740Y-58871120D01*
X80174740Y-58871120D01*
X80174740Y-60223120D01*
X80174740Y-60223120D01*
G37*
G36*
X77017393Y-56629125D02*
X77092436Y-56651890D01*
X77102405Y-56654914D01*
X77180754Y-56696793D01*
X77249428Y-56753152D01*
X77305787Y-56821826D01*
X77347666Y-56900175D01*
X77347667Y-56900179D01*
X77373455Y-56985187D01*
X77379980Y-57051442D01*
X77379980Y-57895758D01*
X77373455Y-57962013D01*
X77350690Y-58037056D01*
X77347666Y-58047025D01*
X77305787Y-58125374D01*
X77249430Y-58194046D01*
X77249426Y-58194050D01*
X77180757Y-58250405D01*
X77180753Y-58250407D01*
X77102404Y-58292286D01*
X77092435Y-58295310D01*
X77017392Y-58318075D01*
X76928980Y-58326782D01*
X76840567Y-58318075D01*
X76765524Y-58295310D01*
X76755555Y-58292286D01*
X76677206Y-58250407D01*
X76608532Y-58194048D01*
X76608530Y-58194046D01*
X76552175Y-58125377D01*
X76547644Y-58116899D01*
X76510294Y-58047024D01*
X76507270Y-58037055D01*
X76484505Y-57962012D01*
X76477980Y-57895757D01*
X76477980Y-57051442D01*
X76484505Y-56985189D01*
X76510294Y-56900178D01*
X76510295Y-56900175D01*
X76552174Y-56821826D01*
X76608533Y-56753152D01*
X76677207Y-56696793D01*
X76755556Y-56654914D01*
X76765525Y-56651890D01*
X76840568Y-56629125D01*
X76928980Y-56620418D01*
X77017393Y-56629125D01*
X77017393Y-56629125D01*
G37*
G36*
X81111940Y-58262600D02*
X79559940Y-58262600D01*
X79559940Y-57510600D01*
X81111940Y-57510600D01*
X81111940Y-58262600D01*
X81111940Y-58262600D01*
G37*
G36*
X77017393Y-54629125D02*
X77092436Y-54651890D01*
X77102405Y-54654914D01*
X77180754Y-54696793D01*
X77249428Y-54753152D01*
X77305787Y-54821826D01*
X77347666Y-54900175D01*
X77347667Y-54900179D01*
X77373455Y-54985187D01*
X77379980Y-55051442D01*
X77379980Y-55895758D01*
X77373455Y-55962013D01*
X77350690Y-56037056D01*
X77347666Y-56047025D01*
X77305787Y-56125374D01*
X77249430Y-56194046D01*
X77249426Y-56194050D01*
X77180757Y-56250405D01*
X77180753Y-56250407D01*
X77102404Y-56292286D01*
X77092435Y-56295310D01*
X77017392Y-56318075D01*
X76928980Y-56326782D01*
X76840567Y-56318075D01*
X76765524Y-56295310D01*
X76755555Y-56292286D01*
X76677206Y-56250407D01*
X76608532Y-56194048D01*
X76608530Y-56194046D01*
X76552175Y-56125377D01*
X76547644Y-56116899D01*
X76510294Y-56047024D01*
X76507270Y-56037055D01*
X76484505Y-55962012D01*
X76477980Y-55895757D01*
X76477980Y-55051442D01*
X76484505Y-54985189D01*
X76510294Y-54900178D01*
X76510295Y-54900175D01*
X76552174Y-54821826D01*
X76608533Y-54753152D01*
X76677207Y-54696793D01*
X76755556Y-54654914D01*
X76765525Y-54651890D01*
X76840568Y-54629125D01*
X76928980Y-54620418D01*
X77017393Y-54629125D01*
X77017393Y-54629125D01*
G37*
G36*
X81748660Y-55336520D02*
X80196660Y-55336520D01*
X80196660Y-54584520D01*
X81748660Y-54584520D01*
X81748660Y-55336520D01*
X81748660Y-55336520D01*
G37*
G36*
X80083340Y-53985520D02*
X79281340Y-53985520D01*
X79281340Y-52633520D01*
X80083340Y-52633520D01*
X80083340Y-53985520D01*
X80083340Y-53985520D01*
G37*
G36*
X81983340Y-53985520D02*
X81181340Y-53985520D01*
X81181340Y-52633520D01*
X81983340Y-52633520D01*
X81983340Y-53985520D01*
X81983340Y-53985520D01*
G37*
G36*
X77017393Y-52129125D02*
X77092436Y-52151890D01*
X77102405Y-52154914D01*
X77180754Y-52196793D01*
X77249428Y-52253152D01*
X77305787Y-52321826D01*
X77347666Y-52400175D01*
X77347667Y-52400179D01*
X77373455Y-52485187D01*
X77379980Y-52551442D01*
X77379980Y-53395758D01*
X77373455Y-53462013D01*
X77350690Y-53537056D01*
X77347666Y-53547025D01*
X77305787Y-53625374D01*
X77249430Y-53694046D01*
X77249426Y-53694050D01*
X77180757Y-53750405D01*
X77180753Y-53750407D01*
X77102404Y-53792286D01*
X77092435Y-53795310D01*
X77017392Y-53818075D01*
X76928980Y-53826782D01*
X76840567Y-53818075D01*
X76765524Y-53795310D01*
X76755555Y-53792286D01*
X76677206Y-53750407D01*
X76608532Y-53694048D01*
X76608530Y-53694046D01*
X76552175Y-53625377D01*
X76547644Y-53616899D01*
X76510294Y-53547024D01*
X76507270Y-53537055D01*
X76484505Y-53462012D01*
X76477980Y-53395757D01*
X76477980Y-52551442D01*
X76484505Y-52485189D01*
X76510294Y-52400178D01*
X76510295Y-52400175D01*
X76552174Y-52321826D01*
X76608533Y-52253152D01*
X76677207Y-52196793D01*
X76755556Y-52154914D01*
X76765525Y-52151890D01*
X76840568Y-52129125D01*
X76928980Y-52120418D01*
X77017393Y-52129125D01*
X77017393Y-52129125D01*
G37*
G36*
X64980693Y-49276545D02*
X65055736Y-49299310D01*
X65065705Y-49302334D01*
X65144054Y-49344213D01*
X65212728Y-49400572D01*
X65269087Y-49469246D01*
X65310966Y-49547595D01*
X65310967Y-49547599D01*
X65336755Y-49632607D01*
X65343280Y-49698862D01*
X65343280Y-50443178D01*
X65336755Y-50509433D01*
X65313990Y-50584476D01*
X65310966Y-50594445D01*
X65269087Y-50672794D01*
X65212730Y-50741466D01*
X65212726Y-50741470D01*
X65144057Y-50797825D01*
X65144053Y-50797827D01*
X65065704Y-50839706D01*
X65055735Y-50842730D01*
X64980692Y-50865495D01*
X64892280Y-50874202D01*
X64803867Y-50865495D01*
X64728824Y-50842730D01*
X64718855Y-50839706D01*
X64640506Y-50797827D01*
X64571832Y-50741468D01*
X64571830Y-50741466D01*
X64515475Y-50672797D01*
X64497430Y-50639037D01*
X64473594Y-50594444D01*
X64462521Y-50557940D01*
X64461897Y-50555884D01*
X64452520Y-50533245D01*
X64438906Y-50512871D01*
X64421578Y-50495544D01*
X64401204Y-50481930D01*
X64378564Y-50472553D01*
X64354531Y-50467773D01*
X64330027Y-50467773D01*
X64305993Y-50472554D01*
X64283354Y-50481931D01*
X64262980Y-50495545D01*
X64245653Y-50512873D01*
X64232039Y-50533247D01*
X64222663Y-50555885D01*
X64218664Y-50569067D01*
X64210966Y-50594445D01*
X64210965Y-50594447D01*
X64210282Y-50596698D01*
X64202700Y-50615004D01*
X64197919Y-50639037D01*
X64197919Y-50663541D01*
X64202699Y-50687575D01*
X64212077Y-50710214D01*
X64225686Y-50730581D01*
X64252636Y-50763420D01*
X64303801Y-50859141D01*
X64335307Y-50963005D01*
X64345946Y-51071020D01*
X64335307Y-51179035D01*
X64303801Y-51282899D01*
X64252636Y-51378620D01*
X64183781Y-51462521D01*
X64099880Y-51531376D01*
X64004159Y-51582541D01*
X63900295Y-51614047D01*
X63819347Y-51622020D01*
X63765213Y-51622020D01*
X63684265Y-51614047D01*
X63580401Y-51582541D01*
X63484680Y-51531376D01*
X63400779Y-51462521D01*
X63331924Y-51378620D01*
X63280759Y-51282899D01*
X63249253Y-51179035D01*
X63238614Y-51071020D01*
X63249253Y-50963005D01*
X63280759Y-50859141D01*
X63331924Y-50763420D01*
X63358872Y-50730583D01*
X63372483Y-50710214D01*
X63381861Y-50687575D01*
X63386641Y-50663541D01*
X63386641Y-50639037D01*
X63381861Y-50615004D01*
X63374277Y-50596695D01*
X63347805Y-50509432D01*
X63341280Y-50443177D01*
X63341280Y-49698862D01*
X63347805Y-49632607D01*
X63373593Y-49547597D01*
X63415473Y-49469247D01*
X63471833Y-49400572D01*
X63540506Y-49344214D01*
X63540505Y-49344214D01*
X63540507Y-49344213D01*
X63618856Y-49302334D01*
X63628825Y-49299310D01*
X63703868Y-49276545D01*
X63792280Y-49267838D01*
X63880693Y-49276545D01*
X63955736Y-49299310D01*
X63965705Y-49302334D01*
X64044054Y-49344213D01*
X64112728Y-49400572D01*
X64169087Y-49469246D01*
X64210966Y-49547595D01*
X64219940Y-49577178D01*
X64222663Y-49586155D01*
X64232040Y-49608794D01*
X64245654Y-49629168D01*
X64262982Y-49646495D01*
X64283356Y-49660109D01*
X64305996Y-49669486D01*
X64330029Y-49674266D01*
X64354533Y-49674266D01*
X64378567Y-49669485D01*
X64401206Y-49660108D01*
X64421580Y-49646494D01*
X64438907Y-49629166D01*
X64452521Y-49608792D01*
X64461897Y-49586155D01*
X64473594Y-49547596D01*
X64515473Y-49469247D01*
X64571833Y-49400572D01*
X64640506Y-49344214D01*
X64640505Y-49344214D01*
X64640507Y-49344213D01*
X64718856Y-49302334D01*
X64728825Y-49299310D01*
X64803868Y-49276545D01*
X64892280Y-49267838D01*
X64980693Y-49276545D01*
X64980693Y-49276545D01*
G37*
G36*
X81033340Y-51485520D02*
X80231340Y-51485520D01*
X80231340Y-50133520D01*
X81033340Y-50133520D01*
X81033340Y-51485520D01*
X81033340Y-51485520D01*
G37*
G36*
X77957005Y-49768530D02*
X78107992Y-49814332D01*
X78247145Y-49888710D01*
X78369113Y-49988807D01*
X78469210Y-50110775D01*
X78543588Y-50249928D01*
X78589390Y-50400915D01*
X78604855Y-50557940D01*
X78589390Y-50714965D01*
X78543588Y-50865952D01*
X78469210Y-51005105D01*
X78369113Y-51127073D01*
X78247145Y-51227170D01*
X78107992Y-51301548D01*
X77957005Y-51347350D01*
X77839326Y-51358940D01*
X75260634Y-51358940D01*
X75142955Y-51347350D01*
X74991968Y-51301548D01*
X74852815Y-51227170D01*
X74730847Y-51127073D01*
X74630750Y-51005105D01*
X74556372Y-50865952D01*
X74510570Y-50714965D01*
X74495105Y-50557940D01*
X74510570Y-50400915D01*
X74556372Y-50249928D01*
X74630750Y-50110775D01*
X74730847Y-49988807D01*
X74852815Y-49888710D01*
X74991968Y-49814332D01*
X75142955Y-49768530D01*
X75260634Y-49756940D01*
X77839326Y-49756940D01*
X77957005Y-49768530D01*
X77957005Y-49768530D01*
G37*
G36*
X70480693Y-49276545D02*
X70555736Y-49299310D01*
X70565705Y-49302334D01*
X70644054Y-49344213D01*
X70712728Y-49400572D01*
X70769087Y-49469246D01*
X70810966Y-49547595D01*
X70810967Y-49547599D01*
X70836755Y-49632607D01*
X70843280Y-49698862D01*
X70843280Y-50443178D01*
X70836755Y-50509433D01*
X70813990Y-50584476D01*
X70810966Y-50594445D01*
X70769087Y-50672794D01*
X70712730Y-50741466D01*
X70712726Y-50741470D01*
X70644057Y-50797825D01*
X70644053Y-50797827D01*
X70565704Y-50839706D01*
X70555735Y-50842730D01*
X70480692Y-50865495D01*
X70392280Y-50874202D01*
X70303867Y-50865495D01*
X70228824Y-50842730D01*
X70218855Y-50839706D01*
X70140506Y-50797827D01*
X70071832Y-50741468D01*
X70071830Y-50741466D01*
X70015475Y-50672797D01*
X69997430Y-50639037D01*
X69973594Y-50594444D01*
X69962521Y-50557940D01*
X69961897Y-50555884D01*
X69952520Y-50533245D01*
X69938906Y-50512871D01*
X69921578Y-50495544D01*
X69901204Y-50481930D01*
X69878564Y-50472553D01*
X69854531Y-50467773D01*
X69830027Y-50467773D01*
X69805993Y-50472554D01*
X69783354Y-50481931D01*
X69762980Y-50495545D01*
X69745653Y-50512873D01*
X69732039Y-50533247D01*
X69722663Y-50555885D01*
X69716065Y-50577637D01*
X69710966Y-50594445D01*
X69669087Y-50672794D01*
X69612730Y-50741466D01*
X69612726Y-50741470D01*
X69544057Y-50797825D01*
X69544053Y-50797827D01*
X69465704Y-50839706D01*
X69455735Y-50842730D01*
X69380692Y-50865495D01*
X69292280Y-50874202D01*
X69203867Y-50865495D01*
X69128824Y-50842730D01*
X69118855Y-50839706D01*
X69040506Y-50797827D01*
X68971832Y-50741468D01*
X68971830Y-50741466D01*
X68915475Y-50672797D01*
X68897430Y-50639037D01*
X68873594Y-50594444D01*
X68870570Y-50584475D01*
X68847805Y-50509432D01*
X68841280Y-50443177D01*
X68841280Y-49698862D01*
X68847805Y-49632607D01*
X68873593Y-49547597D01*
X68915473Y-49469247D01*
X68971833Y-49400572D01*
X69040506Y-49344214D01*
X69040505Y-49344214D01*
X69040507Y-49344213D01*
X69118856Y-49302334D01*
X69128825Y-49299310D01*
X69203868Y-49276545D01*
X69292280Y-49267838D01*
X69380693Y-49276545D01*
X69455736Y-49299310D01*
X69465705Y-49302334D01*
X69544054Y-49344213D01*
X69612728Y-49400572D01*
X69669087Y-49469246D01*
X69710966Y-49547595D01*
X69719940Y-49577178D01*
X69722663Y-49586155D01*
X69732040Y-49608794D01*
X69745654Y-49629168D01*
X69762982Y-49646495D01*
X69783356Y-49660109D01*
X69805996Y-49669486D01*
X69830029Y-49674266D01*
X69854533Y-49674266D01*
X69878567Y-49669485D01*
X69901206Y-49660108D01*
X69921580Y-49646494D01*
X69938907Y-49629166D01*
X69952521Y-49608792D01*
X69961897Y-49586155D01*
X69973594Y-49547596D01*
X70015473Y-49469247D01*
X70071833Y-49400572D01*
X70140506Y-49344214D01*
X70140505Y-49344214D01*
X70140507Y-49344213D01*
X70218856Y-49302334D01*
X70228825Y-49299310D01*
X70303868Y-49276545D01*
X70392280Y-49267838D01*
X70480693Y-49276545D01*
X70480693Y-49276545D01*
G37*
G36*
X79159460Y-49113120D02*
X77807460Y-49113120D01*
X77807460Y-48311120D01*
X79159460Y-48311120D01*
X79159460Y-49113120D01*
X79159460Y-49113120D01*
G37*
G36*
X67787974Y-46784932D02*
X67997442Y-46871696D01*
X68185963Y-46997662D01*
X68346278Y-47157977D01*
X68472244Y-47346498D01*
X68559008Y-47555966D01*
X68603240Y-47778335D01*
X68603240Y-48005065D01*
X68559008Y-48227434D01*
X68472244Y-48436902D01*
X68346278Y-48625423D01*
X68185963Y-48785738D01*
X67997442Y-48911704D01*
X67787974Y-48998468D01*
X67565605Y-49042700D01*
X67338875Y-49042700D01*
X67116506Y-48998468D01*
X66907038Y-48911704D01*
X66718517Y-48785738D01*
X66558202Y-48625423D01*
X66432236Y-48436902D01*
X66345472Y-48227434D01*
X66301240Y-48005065D01*
X66301240Y-47778335D01*
X66345472Y-47555966D01*
X66432236Y-47346498D01*
X66558202Y-47157977D01*
X66718517Y-46997662D01*
X66907038Y-46871696D01*
X67116506Y-46784932D01*
X67338875Y-46740700D01*
X67565605Y-46740700D01*
X67787974Y-46784932D01*
X67787974Y-46784932D01*
G37*
G36*
X80421560Y-48266380D02*
X79669560Y-48266380D01*
X79669560Y-46714380D01*
X80421560Y-46714380D01*
X80421560Y-48266380D01*
X80421560Y-48266380D01*
G37*
G36*
X76659460Y-48163120D02*
X75307460Y-48163120D01*
X75307460Y-47361120D01*
X76659460Y-47361120D01*
X76659460Y-48163120D01*
X76659460Y-48163120D01*
G37*
G36*
X73952180Y-48134300D02*
X73200180Y-48134300D01*
X73200180Y-46582300D01*
X73952180Y-46582300D01*
X73952180Y-48134300D01*
X73952180Y-48134300D01*
G37*
G36*
X72487280Y-47769760D02*
X71455280Y-47769760D01*
X71455280Y-46687760D01*
X72487280Y-46687760D01*
X72487280Y-47769760D01*
X72487280Y-47769760D01*
G37*
G36*
X70947280Y-47769760D02*
X69915280Y-47769760D01*
X69915280Y-46687760D01*
X70947280Y-46687760D01*
X70947280Y-47769760D01*
X70947280Y-47769760D01*
G37*
G36*
X79159460Y-47213120D02*
X77807460Y-47213120D01*
X77807460Y-46411120D01*
X79159460Y-46411120D01*
X79159460Y-47213120D01*
X79159460Y-47213120D01*
G37*
M02*
