G04 #@! TF.GenerationSoftware,KiCad,Pcbnew,(5.0.2)-1*
G04 #@! TF.CreationDate,2019-08-16T13:34:43+08:00*
G04 #@! TF.ProjectId,IRMQTT,49524d51-5454-42e6-9b69-6361645f7063,rev?*
G04 #@! TF.SameCoordinates,Original*
G04 #@! TF.FileFunction,Legend,Top*
G04 #@! TF.FilePolarity,Positive*
%FSLAX46Y46*%
G04 Gerber Fmt 4.6, Leading zero omitted, Abs format (unit mm)*
G04 Created by KiCad (PCBNEW (5.0.2)-1) date 2019-08-16 13:34:43*
%MOMM*%
%LPD*%
G01*
G04 APERTURE LIST*
%ADD10C,0.150000*%
%ADD11C,0.250000*%
%ADD12C,0.300000*%
%ADD13C,0.200000*%
%ADD14C,0.120000*%
G04 APERTURE END LIST*
D10*
X69718276Y-58589871D02*
X69384942Y-58589871D01*
X69384942Y-59113680D02*
X69384942Y-58113680D01*
X69861133Y-58113680D01*
X70242085Y-58447014D02*
X70242085Y-59447014D01*
X70242085Y-58494633D02*
X70337323Y-58447014D01*
X70527800Y-58447014D01*
X70623038Y-58494633D01*
X70670657Y-58542252D01*
X70718276Y-58637490D01*
X70718276Y-58923204D01*
X70670657Y-59018442D01*
X70623038Y-59066061D01*
X70527800Y-59113680D01*
X70337323Y-59113680D01*
X70242085Y-59066061D01*
X77336628Y-49124511D02*
X76993771Y-49124511D01*
X77165200Y-48524511D02*
X77165200Y-49124511D01*
X75694245Y-48534671D02*
X75894245Y-48820385D01*
X76037102Y-48534671D02*
X76037102Y-49134671D01*
X75808531Y-49134671D01*
X75751388Y-49106100D01*
X75722817Y-49077528D01*
X75694245Y-49020385D01*
X75694245Y-48934671D01*
X75722817Y-48877528D01*
X75751388Y-48848957D01*
X75808531Y-48820385D01*
X76037102Y-48820385D01*
D11*
X72579626Y-49214093D02*
X73979626Y-49214093D01*
X73446293Y-49214093D02*
X73512960Y-49347426D01*
X73512960Y-49614093D01*
X73446293Y-49747426D01*
X73379626Y-49814093D01*
X73246293Y-49880760D01*
X72846293Y-49880760D01*
X72712960Y-49814093D01*
X72646293Y-49747426D01*
X72579626Y-49614093D01*
X72579626Y-49347426D01*
X72646293Y-49214093D01*
X72579626Y-50480760D02*
X73979626Y-50480760D01*
X73446293Y-50480760D02*
X73512960Y-50614093D01*
X73512960Y-50880760D01*
X73446293Y-51014093D01*
X73379626Y-51080760D01*
X73246293Y-51147426D01*
X72846293Y-51147426D01*
X72712960Y-51080760D01*
X72646293Y-51014093D01*
X72579626Y-50880760D01*
X72579626Y-50614093D01*
X72646293Y-50480760D01*
X72646293Y-51680760D02*
X72579626Y-51814093D01*
X72579626Y-52080760D01*
X72646293Y-52214093D01*
X72779626Y-52280760D01*
X72846293Y-52280760D01*
X72979626Y-52214093D01*
X73046293Y-52080760D01*
X73046293Y-51880760D01*
X73112960Y-51747426D01*
X73246293Y-51680760D01*
X73312960Y-51680760D01*
X73446293Y-51747426D01*
X73512960Y-51880760D01*
X73512960Y-52080760D01*
X73446293Y-52214093D01*
X72712960Y-52880760D02*
X72646293Y-52947426D01*
X72579626Y-52880760D01*
X72646293Y-52814093D01*
X72712960Y-52880760D01*
X72579626Y-52880760D01*
X72579626Y-53547426D02*
X73512960Y-53547426D01*
X73979626Y-53547426D02*
X73912960Y-53480760D01*
X73846293Y-53547426D01*
X73912960Y-53614093D01*
X73979626Y-53547426D01*
X73846293Y-53547426D01*
X72579626Y-54414093D02*
X72646293Y-54280760D01*
X72712960Y-54214093D01*
X72846293Y-54147426D01*
X73246293Y-54147426D01*
X73379626Y-54214093D01*
X73446293Y-54280760D01*
X73512960Y-54414093D01*
X73512960Y-54614093D01*
X73446293Y-54747426D01*
X73379626Y-54814093D01*
X73246293Y-54880760D01*
X72846293Y-54880760D01*
X72712960Y-54814093D01*
X72646293Y-54747426D01*
X72579626Y-54614093D01*
X72579626Y-54414093D01*
X72579626Y-55480760D02*
X73979626Y-55480760D01*
X73446293Y-55480760D02*
X73512960Y-55614093D01*
X73512960Y-55880760D01*
X73446293Y-56014093D01*
X73379626Y-56080760D01*
X73246293Y-56147426D01*
X72846293Y-56147426D01*
X72712960Y-56080760D01*
X72646293Y-56014093D01*
X72579626Y-55880760D01*
X72579626Y-55614093D01*
X72646293Y-55480760D01*
X72579626Y-56747426D02*
X73512960Y-56747426D01*
X73246293Y-56747426D02*
X73379626Y-56814093D01*
X73446293Y-56880760D01*
X73512960Y-57014093D01*
X73512960Y-57147426D01*
X72579626Y-57814093D02*
X72646293Y-57680760D01*
X72712960Y-57614093D01*
X72846293Y-57547426D01*
X73246293Y-57547426D01*
X73379626Y-57614093D01*
X73446293Y-57680760D01*
X73512960Y-57814093D01*
X73512960Y-58014093D01*
X73446293Y-58147426D01*
X73379626Y-58214093D01*
X73246293Y-58280760D01*
X72846293Y-58280760D01*
X72712960Y-58214093D01*
X72646293Y-58147426D01*
X72579626Y-58014093D01*
X72579626Y-57814093D01*
X72579626Y-58880760D02*
X73979626Y-58880760D01*
X73112960Y-59014093D02*
X72579626Y-59414093D01*
X73512960Y-59414093D02*
X72979626Y-58880760D01*
X72646293Y-60547426D02*
X72579626Y-60414093D01*
X72579626Y-60147426D01*
X72646293Y-60014093D01*
X72779626Y-59947426D01*
X73312960Y-59947426D01*
X73446293Y-60014093D01*
X73512960Y-60147426D01*
X73512960Y-60414093D01*
X73446293Y-60547426D01*
X73312960Y-60614093D01*
X73179626Y-60614093D01*
X73046293Y-59947426D01*
X72579626Y-61214093D02*
X73512960Y-61214093D01*
X73246293Y-61214093D02*
X73379626Y-61280760D01*
X73446293Y-61347426D01*
X73512960Y-61480760D01*
X73512960Y-61614093D01*
X72712960Y-62080760D02*
X72646293Y-62147426D01*
X72579626Y-62080760D01*
X72646293Y-62014093D01*
X72712960Y-62080760D01*
X72579626Y-62080760D01*
X72646293Y-63347426D02*
X72579626Y-63214093D01*
X72579626Y-62947426D01*
X72646293Y-62814093D01*
X72712960Y-62747426D01*
X72846293Y-62680760D01*
X73246293Y-62680760D01*
X73379626Y-62747426D01*
X73446293Y-62814093D01*
X73512960Y-62947426D01*
X73512960Y-63214093D01*
X73446293Y-63347426D01*
X73512960Y-63947426D02*
X72579626Y-63947426D01*
X73379626Y-63947426D02*
X73446293Y-64014093D01*
X73512960Y-64147426D01*
X73512960Y-64347426D01*
X73446293Y-64480760D01*
X73312960Y-64547426D01*
X72579626Y-64547426D01*
D12*
X66659368Y-52725285D02*
X68159368Y-52725285D01*
X66659368Y-54296714D02*
X67373654Y-53796714D01*
X66659368Y-53439571D02*
X68159368Y-53439571D01*
X68159368Y-54011000D01*
X68087940Y-54153857D01*
X68016511Y-54225285D01*
X67873654Y-54296714D01*
X67659368Y-54296714D01*
X67516511Y-54225285D01*
X67445082Y-54153857D01*
X67373654Y-54011000D01*
X67373654Y-53439571D01*
X66659368Y-54939571D02*
X68159368Y-54939571D01*
X67087940Y-55439571D01*
X68159368Y-55939571D01*
X66659368Y-55939571D01*
X66516511Y-57653857D02*
X66587940Y-57511000D01*
X66730797Y-57368142D01*
X66945082Y-57153857D01*
X67016511Y-57011000D01*
X67016511Y-56868142D01*
X66659368Y-56939571D02*
X66730797Y-56796714D01*
X66873654Y-56653857D01*
X67159368Y-56582428D01*
X67659368Y-56582428D01*
X67945082Y-56653857D01*
X68087940Y-56796714D01*
X68159368Y-56939571D01*
X68159368Y-57225285D01*
X68087940Y-57368142D01*
X67945082Y-57511000D01*
X67659368Y-57582428D01*
X67159368Y-57582428D01*
X66873654Y-57511000D01*
X66730797Y-57368142D01*
X66659368Y-57225285D01*
X66659368Y-56939571D01*
X68159368Y-58011000D02*
X68159368Y-58868142D01*
X66659368Y-58439571D02*
X68159368Y-58439571D01*
X68159368Y-59153857D02*
X68159368Y-60011000D01*
X66659368Y-59582428D02*
X68159368Y-59582428D01*
D10*
X78303457Y-49116260D02*
X78360600Y-49144831D01*
X78446314Y-49144831D01*
X78532028Y-49116260D01*
X78589171Y-49059117D01*
X78617742Y-49001974D01*
X78646314Y-48887688D01*
X78646314Y-48801974D01*
X78617742Y-48687688D01*
X78589171Y-48630545D01*
X78532028Y-48573402D01*
X78446314Y-48544831D01*
X78389171Y-48544831D01*
X78303457Y-48573402D01*
X78274885Y-48601974D01*
X78274885Y-48801974D01*
X78389171Y-48801974D01*
X79928060Y-49193091D02*
X79728060Y-48593091D01*
X79528060Y-49193091D01*
D13*
G04 #@! TO.C,WI*
X64079120Y-50038000D02*
X64079120Y-48683000D01*
X65384680Y-50040540D02*
X64079120Y-50040540D01*
X65384680Y-50040540D02*
X65384680Y-48685540D01*
X65382140Y-49748440D02*
X64079120Y-49756060D01*
G04 #@! TO.C,R3*
X71246640Y-59529020D02*
X71246640Y-60679020D01*
X69296640Y-59529020D02*
X69296640Y-60679020D01*
X71246640Y-60679020D02*
X70571640Y-60679020D01*
X69971640Y-60679020D02*
X69296640Y-60679020D01*
X71246640Y-59529020D02*
X70571640Y-59529020D01*
X69971640Y-59529020D02*
X69296640Y-59529020D01*
D10*
G04 #@! TO.C,IRFT1*
X65384680Y-61655960D02*
X65384680Y-66655960D01*
X69844920Y-61655960D02*
X69844920Y-66655960D01*
X69844920Y-61655960D02*
X65384680Y-61655960D01*
X69844920Y-66655960D02*
X65384680Y-66655960D01*
X68353548Y-65219580D02*
G75*
G03X68353548Y-65219580I-789548J0D01*
G01*
G04 #@! TO.C,D6*
X80518000Y-56850280D02*
X80992980Y-56161940D01*
X81549240Y-56850280D02*
X80518000Y-56850280D01*
X81015840Y-56144160D02*
X81549240Y-56850280D01*
X80109060Y-56134000D02*
X81874360Y-56134000D01*
X80093820Y-55227220D02*
X80093820Y-58300620D01*
X81892140Y-55295800D02*
X81892140Y-58369200D01*
G04 #@! TO.C,D4*
X73550780Y-64810640D02*
X76624180Y-64810640D01*
X73482200Y-66608960D02*
X76555600Y-66608960D01*
X74388980Y-66593720D02*
X74388980Y-64828420D01*
X74399140Y-65686940D02*
X75105260Y-65153540D01*
X75105260Y-65153540D02*
X75105260Y-66184780D01*
X75105260Y-66184780D02*
X74416920Y-65709800D01*
G04 #@! TO.C,D3*
X72237600Y-47871380D02*
X71549260Y-47396400D01*
X72237600Y-46840140D02*
X72237600Y-47871380D01*
X71531480Y-47373540D02*
X72237600Y-46840140D01*
X71521320Y-48280320D02*
X71521320Y-46515020D01*
X70614540Y-48295560D02*
X73687940Y-48295560D01*
X70683120Y-46497240D02*
X73756520Y-46497240D01*
G04 #@! TO.C,D5*
X64561720Y-56400700D02*
X64086740Y-57089040D01*
X63530480Y-56400700D02*
X64561720Y-56400700D01*
X64063880Y-57106820D02*
X63530480Y-56400700D01*
X64970660Y-57116980D02*
X63205360Y-57116980D01*
X64985900Y-58023760D02*
X64985900Y-54950360D01*
X63187580Y-57955180D02*
X63187580Y-54881780D01*
D14*
G04 #@! TO.C,J2*
X78830900Y-50489360D02*
X74327480Y-50489360D01*
X74330900Y-62490860D02*
X74328360Y-50489360D01*
X78830900Y-62489360D02*
X78830900Y-50489360D01*
X78830900Y-62490860D02*
X74330900Y-62490860D01*
D10*
G04 #@! TO.C,D2*
X71318120Y-55963820D02*
X70843140Y-56652160D01*
X70286880Y-55963820D02*
X71318120Y-55963820D01*
X70820280Y-56669940D02*
X70286880Y-55963820D01*
X71727060Y-56680100D02*
X69961760Y-56680100D01*
X71742300Y-57586880D02*
X71742300Y-54513480D01*
X69943980Y-57518300D02*
X69943980Y-54444900D01*
G04 #@! TO.C,WI*
X64364924Y-49501993D02*
X65164924Y-49311517D01*
X64593496Y-49159136D01*
X65164924Y-49006755D01*
X64364924Y-48816279D01*
X65164924Y-48511517D02*
X64364924Y-48511517D01*
G04 #@! TO.C,IRFT1*
X66098128Y-63762844D02*
X66098128Y-62962844D01*
X66936223Y-63762844D02*
X66669557Y-63381892D01*
X66479080Y-63762844D02*
X66479080Y-62962844D01*
X66783842Y-62962844D01*
X66860033Y-63000940D01*
X66898128Y-63039035D01*
X66936223Y-63115225D01*
X66936223Y-63229511D01*
X66898128Y-63305701D01*
X66860033Y-63343797D01*
X66783842Y-63381892D01*
X66479080Y-63381892D01*
X67545747Y-63343797D02*
X67279080Y-63343797D01*
X67279080Y-63762844D02*
X67279080Y-62962844D01*
X67660033Y-62962844D01*
X67850509Y-62962844D02*
X68307652Y-62962844D01*
X68079080Y-63762844D02*
X68079080Y-62962844D01*
X68993366Y-63762844D02*
X68536223Y-63762844D01*
X68764795Y-63762844D02*
X68764795Y-62962844D01*
X68688604Y-63077130D01*
X68612414Y-63153320D01*
X68536223Y-63191416D01*
G04 #@! TO.C,J2*
X75295267Y-60113728D02*
X76057172Y-60113728D01*
X75676220Y-60494680D02*
X75676220Y-59732776D01*
G04 #@! TD*
M02*
